<?xml version="1.0" standalone="no"?>
<!DOCTYPE svg PUBLIC "-//W3C//DTD SVG 1.1//EN" "http://www.w3.org/Graphics/SVG/1.1/DTD/svg11.dtd" >
<svg xmlns="http://www.w3.org/2000/svg" xmlns:xlink="http://www.w3.org/1999/xlink" version="1.1">
<metadata>
Created by FontForge 20170731 at Tue Jan 31 13:40:42 2017
 By Aleksey,,,
Copyright 2012 The Encode Project Authors (impallari@gmail.com), with Reserved Font Name "Encode Sans".
</metadata>
<defs>
<font id="EncodeSans-Bold" horiz-adv-x="1255" >
  <font-face 
    font-family="Encode Sans"
    font-weight="700"
    font-stretch="normal"
    units-per-em="2000"
    panose-1="0 0 8 0 0 0 0 0 0 0"
    ascent="1600"
    descent="-400"
    x-height="1094"
    cap-height="1480"
    bbox="-1049 -497 2901 2245"
    underline-thickness="50"
    underline-position="-150"
    unicode-range="U+000D-FB02"
  />
<missing-glyph horiz-adv-x="1028" 
d="M843 1616v-2056h-652v2056h652zM685 1478h-340v-68h134v-76h-136v-68h342v68h-136v76h136v68zM549 1213h-206v-214h342v70h-136v144zM479 1143v-74h-68v74h68zM685 944h-342v-68h136v-76h-136v-68h206v144h136v68zM685 820h-68v-135h-274v-70h342v205zM685 569h-206v-115
h70v48h68v-97h-206v164h-68v-232h342v232zM685 214h-342v-233h342v233zM617 146v-97h-206v97h206zM685 -66h-342v-68h144l-144 -96v-68h342v68h-210l144 96h66v68z" />
    <glyph glyph-name="fi" unicode="fi" horiz-adv-x="1361" 
d="M258 1426q55 102 160 156t250 54q86 0 153 -15v-250q-44 11 -104 11q-196 0 -196 -181v-107h287v-252h-287v-842h-318v842h-178v252h178v91q0 139 55 241zM933.5 1296q-49.5 43 -49.5 123q0 81 49 124t149 43q99 0 148 -43t49 -124q0 -80 -49 -123t-148 -43t-148.5 43z
M922 0v1094h320v-1094h-320z" />
    <glyph glyph-name="fl" unicode="fl" horiz-adv-x="1360" 
d="M258 1426q55 102 160 156t250 54q86 0 153 -15v-250q-44 11 -104 11q-196 0 -196 -181v-107h287v-252h-287v-842h-318v842h-178v252h178v91q0 139 55 241zM922 1616h320v-1616h-320v1616z" />
    <glyph glyph-name="f_j" unicode="fj" horiz-adv-x="1361" 
d="M521 842v-842h-318v842h-178v252h178v91q0 139 55 241t160 156t250 54q86 0 153 -15v-250q-44 11 -104 11q-196 0 -196 -181v-107h287v-252h-287zM929.5 1298q-49.5 43 -49.5 123q0 81 49 124t149 43q99 0 148 -43t49 -124q0 -80 -49 -123t-148 -43t-148.5 43zM922 1094
h320v-905q0 -194 -62 -349t-208 -311l-207 137q87 116 122 231t35 279v918z" />
    <glyph glyph-name=".notdef" horiz-adv-x="1028" 
d="M843 1616v-2056h-652v2056h652zM685 1478h-340v-68h134v-76h-136v-68h342v68h-136v76h136v68zM549 1213h-206v-214h342v70h-136v144zM479 1143v-74h-68v74h68zM685 944h-342v-68h136v-76h-136v-68h206v144h136v68zM685 820h-68v-135h-274v-70h342v205zM685 569h-206v-115
h70v48h68v-97h-206v164h-68v-232h342v232zM685 214h-342v-233h342v233zM617 146v-97h-206v97h206zM685 -66h-342v-68h144l-144 -96v-68h342v68h-210l144 96h66v68z" />
    <glyph glyph-name=".null" horiz-adv-x="0" 
 />
    <glyph glyph-name="nonmarkingreturn" unicode="&#xd;" horiz-adv-x="503" 
 />
    <glyph glyph-name="NULL" horiz-adv-x="0" 
 />
    <glyph glyph-name="NULL" horiz-adv-x="0" 
 />
    <glyph glyph-name="space" unicode=" " horiz-adv-x="503" 
 />
    <glyph glyph-name="exclam" unicode="!" horiz-adv-x="597" 
d="M203 468l-74 496v516h340v-516l-71 -496h-195zM147.5 33q-56.5 50 -56.5 134q0 85 56 135t152 50q95 0 151 -50.5t56 -134.5q0 -55 -25.5 -96.5t-72.5 -64.5t-109 -23q-95 0 -151.5 50z" />
    <glyph glyph-name="quotedbl" unicode="&#x22;" horiz-adv-x="912" 
d="M141 845l-60 771h315l-60 -771h-195zM576 845l-60 771h315l-60 -771h-195z" />
    <glyph glyph-name="numbersign" unicode="#" 
d="M1155 846h-183l-22 -212h205v-242h-230l-41 -392h-246l41 392h-175l-41 -392h-246l41 392h-158v242h183l22 212h-205v242h230l41 392h246l-41 -392h175l41 392h246l-41 -392h158v-242zM704 634l22 212h-175l-22 -212h175z" />
    <glyph glyph-name="dollar" unicode="$" horiz-adv-x="1154" 
d="M1003 161q-96 -111 -275 -155v-246h-301v223q-87 4 -174.5 18.5t-162.5 38.5v265q92 -29 202.5 -45.5t199.5 -16.5q151 0 216.5 43.5t65.5 128.5q0 47 -19.5 78.5t-65.5 55t-129 45.5l-111 29q-198 49 -296 153.5t-98 272.5q0 165 93.5 274t278.5 151v246h301v-222
q167 -5 295 -39v-264q-70 19 -156.5 30.5t-164.5 11.5q-174 0 -248 -44.5t-74 -126.5q0 -45 17 -75t57.5 -52t113.5 -42l112 -28q216 -54 317.5 -158t101.5 -274q0 -165 -96 -276z" />
    <glyph glyph-name="percent" unicode="%" horiz-adv-x="2098" 
d="M274 621.5q-90 51.5 -140 155.5t-50 257q0 154 50 258t140 155.5t211 51.5q122 0 212 -51.5t140 -155.5t50 -258q0 -153 -50 -257t-140 -155.5t-212 -51.5q-121 0 -211 51.5zM587 0l662 1480h262l-662 -1480h-262zM596 831q40 61 40 203t-40 203.5t-111 61.5
q-150 0 -150 -264q0 -265 150 -265q71 0 111 61zM1401 33.5q-90 51.5 -140 155.5t-50 258q0 153 50 257.5t140 156t211 51.5q122 0 212 -51.5t140 -156t50 -257.5q0 -154 -50 -258t-140 -155.5t-212 -51.5q-121 0 -211 51.5zM1722.5 243.5q39.5 61.5 39.5 202.5
q0 142 -39.5 203.5t-110.5 61.5q-150 0 -150 -264q0 -265 150 -265q71 0 110.5 61.5z" />
    <glyph glyph-name="ampersand" unicode="&#x26;" horiz-adv-x="1602" 
d="M1455 -20l-258 173q-86 -85 -213.5 -128t-289.5 -43q-191 0 -323.5 52t-199 147t-66.5 224q0 125 63.5 221t170.5 149q-52 65 -74.5 130.5t-22.5 139.5q0 217 156 335.5t465 118.5q134 0 262 -23v-265q-115 26 -239 26q-172 0 -245.5 -50.5t-73.5 -148.5q0 -64 35 -115.5
t126 -117.5l376 -253q2 36 2 56q0 59 -9.5 126t-26.5 129h258q33 -124 33 -252q0 -116 -26 -214l267 -180zM992 291l-412 277q-25 16 -80 56q-72 -75 -72 -184q0 -108 78.5 -168.5t224.5 -60.5q167 0 261 80z" />
    <glyph glyph-name="quotesingle" unicode="'" horiz-adv-x="477" 
d="M141 845l-60 771h315l-60 -771h-195z" />
    <glyph glyph-name="parenleft" unicode="(" horiz-adv-x="716" 
d="M103 588q0 637 344 1028h335q-183 -225 -267 -476t-84 -552t84 -552t267 -476h-335q-344 391 -344 1028z" />
    <glyph glyph-name="parenright" unicode=")" horiz-adv-x="716" 
d="M200.5 36q83.5 251 83.5 552t-83.5 552t-266.5 476h335q343 -389 343 -1028t-343 -1028h-335q183 225 266.5 476z" />
    <glyph glyph-name="asterisk" unicode="*" horiz-adv-x="1006" 
d="M622 1139l139 -132l92 -128l-172 -124l-92 126l-86 184l-86 -184l-92 -126l-172 124l92 128l139 132l-187 25l-167 54l66 201l166 -54l171 -94l-36 192v153h212v-153l-36 -192l171 94l166 54l66 -201l-167 -54z" />
    <glyph glyph-name="plus" unicode="+" horiz-adv-x="1101" 
d="M423 318v320h-306v244h306v320h255v-320h306v-244h-306v-320h-255z" />
    <glyph glyph-name="comma" unicode="," horiz-adv-x="557" 
d="M431 307.5q54 -63.5 54 -188.5q0 -120 -42.5 -241.5t-114.5 -219.5h-183q45 97 70 175t31 152q-80 9 -127.5 60.5t-47.5 131.5q0 90 54.5 142t148.5 52q103 0 157 -63.5z" />
    <glyph glyph-name="hyphen" unicode="-" horiz-adv-x="911" 
d="M117 437v260h677v-260h-677z" />
    <glyph glyph-name="period" unicode="." horiz-adv-x="557" 
d="M127.5 35q-56.5 52 -56.5 142q0 89 56 141.5t152 52.5q95 0 151 -53t56 -141t-56.5 -141t-150.5 -53q-95 0 -151.5 52z" />
    <glyph glyph-name="slash" unicode="/" horiz-adv-x="790" 
d="M0 -240l474 1856h316l-474 -1856h-316z" />
    <glyph glyph-name="zero" unicode="0" horiz-adv-x="1338" 
d="M242.5 167.5q-149.5 186.5 -149.5 572.5q0 387 149.5 573t426.5 186t426.5 -186.5t149.5 -572.5t-150 -572.5t-426 -186.5q-277 0 -426.5 186.5zM809 294q56 46 85.5 154t29.5 291q0 184 -29.5 292.5t-85.5 154.5t-140 46t-140 -46t-85.5 -154t-29.5 -291
q0 -185 29.5 -293t85 -154t140.5 -46q84 0 140 46z" />
    <glyph glyph-name="one" unicode="1" horiz-adv-x="833" 
d="M479 1485h211v-1485h-327v1099l-335 -233v305z" />
    <glyph glyph-name="two" unicode="2" horiz-adv-x="1074" 
d="M1021 269v-269h-973v175l410 511q93 117 132 199t39 155q0 102 -64 149.5t-207 47.5q-86 0 -172 -15.5t-157 -42.5v265q69 24 170.5 39.5t192.5 15.5q280 0 419.5 -103.5t139.5 -323.5q-1 -117 -49 -230t-163 -253l-262 -320h544z" />
    <glyph glyph-name="three" unicode="3" horiz-adv-x="1088" 
d="M950 645q77 -90 77 -234q0 -205 -150.5 -317.5t-446.5 -112.5q-206 0 -387 51v243q86 -24 185 -38t188 -14q157 0 230.5 52t73.5 156q0 101 -71.5 152t-232.5 51h-216v246h168q155 0 227 49.5t72 144.5q0 91 -64.5 137t-199.5 46q-84 0 -172 -14.5t-162 -41.5v244
q72 24 173.5 39t195.5 15q267 0 404 -102.5t137 -294.5q0 -124 -66.5 -212.5t-184.5 -124.5q145 -30 222 -120z" />
    <glyph glyph-name="four" unicode="4" horiz-adv-x="1273" 
d="M1241 556v-252h-191v-304h-293v304h-720v178l515 998h313l-471 -924h363l32 424h261v-424h191z" />
    <glyph glyph-name="five" unicode="5" horiz-adv-x="1101" 
d="M791 829q136 -54 199 -149.5t63 -238.5q-1 -226 -152 -343t-445 -117q-200 0 -386 55v243q85 -24 184.5 -38.5t188.5 -14.5q156 0 229 52t73 156q0 72 -38 117t-133 71t-268 36l-190 11l52 811h825v-250h-535l-23 -334q220 -13 356 -67z" />
    <glyph glyph-name="six" unicode="6" horiz-adv-x="1251" 
d="M970 842q106 -48 166.5 -148t60.5 -250q0 -143 -63 -247.5t-179.5 -160t-273.5 -55.5q-271 0 -424.5 173.5t-153.5 537.5q0 403 184 605t532 202q183 0 302 -45v-249q-127 46 -286 46q-204 0 -306 -108.5t-109 -335.5q60 39 140.5 61t164.5 22q139 0 245 -48z
M842.5 270.5q59.5 55.5 59.5 164.5q0 112 -63.5 166.5t-177.5 54.5q-64 0 -126.5 -18t-113.5 -54q6 -139 39 -220t88.5 -115t134.5 -34q100 0 159.5 55.5z" />
    <glyph glyph-name="seven" unicode="7" horiz-adv-x="1024" 
d="M11 1480h955v-175l-476 -1305h-335l465 1211h-609v269z" />
    <glyph glyph-name="eight" unicode="8" horiz-adv-x="1338" 
d="M1193.5 624.5q61.5 -89.5 61.5 -218.5q0 -124 -65.5 -220t-196.5 -150.5t-320 -54.5q-199 0 -332 48.5t-197 135.5t-64 204q0 119 68.5 211.5t197.5 146.5q-119 66 -172 155t-53 206q0 123 64.5 216t191.5 144t310 51q165 0 283.5 -45t181 -129t62.5 -200
q0 -109 -55 -197t-173 -148q146 -66 207.5 -155.5zM493 1227.5q-64 -47.5 -64 -127.5q0 -59 27 -99t100 -74.5t212 -71.5q87 48 125.5 105.5t38.5 132.5q0 88 -63.5 135t-185.5 47q-126 0 -190 -47.5zM883 252.5q69 47.5 69 134.5q0 60 -29.5 101t-102.5 74t-207 66
q-35 9 -58 16q-84 -40 -127 -102.5t-43 -135.5q0 -98 72 -149.5t217 -51.5q140 0 209 47.5z" />
    <glyph glyph-name="nine" unicode="9" horiz-adv-x="1251" 
d="M994.5 1325.5q153.5 -173.5 153.5 -537.5q0 -403 -184 -605t-532 -202q-183 0 -302 45v249q126 -46 286 -46q204 0 306 108.5t109 335.5q-60 -39 -140.5 -61t-164.5 -22q-139 0 -245 48t-166.5 148t-60.5 250q0 143 63 247.5t179.5 160t273.5 55.5q271 0 424.5 -173.5z
M412.5 878.5q63.5 -54.5 177.5 -54.5q64 0 126.5 18t113.5 54q-6 139 -39 220t-88.5 115t-134.5 34q-100 0 -159.5 -55.5t-59.5 -164.5q0 -112 63.5 -166.5z" />
    <glyph glyph-name="colon" unicode=":" horiz-adv-x="557" 
d="M127.5 35q-56.5 52 -56.5 142q0 89 56 141.5t152 52.5q95 0 151 -53t56 -141t-56.5 -141t-150.5 -53q-95 0 -151.5 52zM127.5 775q-56.5 52 -56.5 142q0 89 56 141.5t152 52.5q95 0 151 -53t56 -141t-56.5 -141t-150.5 -53q-95 0 -151.5 52z" />
    <glyph glyph-name="semicolon" unicode=";" horiz-adv-x="557" 
d="M431 307.5q54 -63.5 54 -188.5q0 -120 -42.5 -241.5t-114.5 -219.5h-183q45 97 70 175t31 152q-80 9 -127.5 60.5t-47.5 131.5q0 90 54.5 142t148.5 52q103 0 157 -63.5zM127.5 775q-56.5 52 -56.5 142q0 89 56 141.5t152 52.5q95 0 151 -53t56 -141t-56.5 -141
t-150.5 -53q-95 0 -151.5 52z" />
    <glyph glyph-name="less" unicode="&#x3c;" horiz-adv-x="1101" 
d="M984 1241v-247l-639 -232l639 -236v-247l-867 330v302z" />
    <glyph glyph-name="equal" unicode="=" horiz-adv-x="1101" 
d="M117 861v244h867v-244h-867zM117 415v244h867v-244h-867z" />
    <glyph glyph-name="greater" unicode="&#x3e;" horiz-adv-x="1101" 
d="M117 1241l867 -330v-302l-867 -330v247l639 236l-639 232v247z" />
    <glyph glyph-name="question" unicode="?" horiz-adv-x="993" 
d="M291 831q130 26 204 60.5t104.5 78.5t30.5 102q0 88 -64.5 132.5t-201.5 44.5q-83 0 -170 -14.5t-162 -40.5v251q72 24 173.5 39t195.5 15q267 0 404 -103t137 -297q0 -157 -95 -260t-282 -161l-23 -215h-196zM293.5 33q-56.5 50 -56.5 134q0 85 55.5 135t151.5 50
t152 -50.5t56 -134.5q0 -83 -56.5 -133.5t-151.5 -50.5q-94 0 -150.5 50z" />
    <glyph glyph-name="at" unicode="@" horiz-adv-x="2090" 
d="M1761.5 1268q244.5 -230 244.5 -688q0 -313 -120.5 -456.5t-333.5 -143.5q-224 0 -311 150h-18q-36 -77 -112 -113.5t-175 -36.5q-111 0 -191 39t-122.5 110.5t-42.5 167.5q0 156 109 241t344 102l181 16v5q0 73 -24 115t-76.5 60.5t-140.5 18.5q-67 0 -146 -13.5
t-148 -38.5l1 240q77 26 170 40t179 14q175 0 283.5 -43.5t161 -141.5t52.5 -265v-339q0 -63 24.5 -92t73.5 -29q75 0 117 82.5t42 289.5q0 262 -78.5 423t-239 235t-412.5 74q-251 0 -411 -76.5t-239 -245.5t-79 -448q0 -282 81 -451.5t248.5 -246t437.5 -76.5
q228 0 454 55v-207q-220 -55 -454 -55q-496 0 -752 240t-256 740q0 497 250 737.5t720 240.5q464 0 708.5 -230zM1134 222q48 17 80 52v207l-150 -13q-87 -8 -127.5 -41t-40.5 -97q0 -63 38.5 -94t106.5 -31q45 0 93 17z" />
    <glyph glyph-name="A" unicode="A" horiz-adv-x="1460" 
d="M1125 0l-122 395h-549l-122 -395h-318l478 1480h476l478 -1480h-321zM533 654h390l-195 631z" />
    <glyph glyph-name="B" unicode="B" horiz-adv-x="1333" 
d="M1207 647.5q73 -88.5 73 -232.5q0 -142 -72.5 -237.5t-233.5 -145t-424 -49.5q-94 0 -208.5 8t-208.5 21v1435q105 23 231 37t244 14q328 0 479.5 -101.5t151.5 -310.5q0 -118 -62 -204t-174 -118q131 -28 204 -116.5zM452 1243v-365h210q146 0 208.5 46.5t62.5 144.5
q0 68 -28 110t-90 62t-166 20q-100 0 -197 -18zM839.5 243.5q74.5 22.5 106.5 67.5t32 117q0 108 -66.5 157t-217.5 49h-242v-405q75 -8 184 -8q129 0 203.5 22.5z" />
    <glyph glyph-name="C" unicode="C" horiz-adv-x="1238" 
d="M280 164.5q-197 183.5 -197 572.5q0 378 203 570t587 192q171 0 317 -35v-268q-145 34 -292 34q-162 0 -266 -50t-155.5 -157.5t-51.5 -281.5q0 -178 51 -286t152 -156.5t259 -48.5q142 0 303 47v-269q-72 -22 -158.5 -34.5t-174.5 -12.5q-380 0 -577 183.5z" />
    <glyph glyph-name="D" unicode="D" horiz-adv-x="1501" 
d="M133 9v1438q104 23 228.5 36t241.5 13q407 0 611 -185.5t204 -570.5q0 -264 -97 -431t-291 -245.5t-492 -78.5q-212 0 -405 24zM882 299q101 49 151 157t50 285q0 175 -50.5 283.5t-151.5 158.5t-256 50q-79 0 -166 -15v-961q64 -7 164 -7q158 0 259 49z" />
    <glyph glyph-name="E" unicode="E" 
d="M455 260h729v-260h-1051v1480h1041v-260h-719v-333h617v-260h-617v-367z" />
    <glyph glyph-name="F" unicode="F" horiz-adv-x="1214" 
d="M1171 1215h-712v-360h610v-265h-610v-590h-326v1480h1038v-265z" />
    <glyph glyph-name="G" unicode="G" horiz-adv-x="1426" 
d="M1299 720v-704q-200 -33 -369 -33q-425 0 -635.5 185t-211.5 568q0 379 215 571t626 192q175 0 333 -37v-268q-156 36 -304 36q-184 -1 -300 -51t-172.5 -159.5t-56.5 -287.5q0 -250 118 -365.5t363 -115.5q31 0 91 2v467h303z" />
    <glyph glyph-name="H" unicode="H" horiz-adv-x="1527" 
d="M133 0v1480h326v-580h609v580h326v-1480h-326v613h-609v-613h-326z" />
    <glyph glyph-name="I" unicode="I" horiz-adv-x="592" 
d="M133 0v1480h326v-1480h-326z" />
    <glyph glyph-name="J" unicode="J" horiz-adv-x="592" 
d="M-22 -211q86 115 121 230.5t35 279.5v1181h325v-1180q-2 -189 -64 -342t-209 -308z" />
    <glyph glyph-name="K" unicode="K" horiz-adv-x="1330" 
d="M1022 0l-421 613h-142v-613h-326v1480h326v-580h143l388 580h344l-479 -716l522 -764h-355z" />
    <glyph glyph-name="L" unicode="L" horiz-adv-x="1149" 
d="M133 0v1480h326v-1209h680v-271h-1006z" />
    <glyph glyph-name="M" unicode="M" horiz-adv-x="1879" 
d="M1345 1480h397v-1480h-305v1047l-363 -833h-269l-363 806v-1020h-305v1480h397l411 -932z" />
    <glyph glyph-name="N" unicode="N" horiz-adv-x="1544" 
d="M1104 1480h307v-1480h-328l-643 991v-991h-307v1480h328l643 -991v991z" />
    <glyph glyph-name="O" unicode="O" horiz-adv-x="1563" 
d="M410.5 64.5q-156.5 83.5 -242 253.5t-85.5 422t85.5 422t242 253.5t371.5 83.5t371.5 -84t241.5 -254t85 -421t-85.5 -421t-242 -254t-370.5 -84q-215 0 -371.5 83.5zM1052 361q93 117 93 372q0 264 -93.5 383.5t-269.5 119.5q-177 0 -270.5 -117t-93.5 -372
q0 -265 93 -384t271 -119q177 0 270 117z" />
    <glyph glyph-name="P" unicode="P" horiz-adv-x="1318" 
d="M133 1454q227 44 448 44q334 0 498.5 -130t164.5 -405q0 -264 -162 -399t-480 -135q-45 0 -143 4v-433h-326v1454zM850 741q77 68 77 220q0 153 -77 223t-239 70q-82 0 -152 -12v-560q73 -9 146 -9q168 0 245 68z" />
    <glyph glyph-name="Q" unicode="Q" horiz-adv-x="1563" 
d="M1357.5 259q-122.5 -185 -361.5 -234q212 -58 465 -87l-54 -255q-504 75 -794 214.5t-410 343t-120 492.5q0 256 85.5 427t242 255t371.5 84t371.5 -83.5t241.5 -253.5t85 -422q0 -296 -122.5 -481zM510 362.5q92 -118.5 272 -118.5q177 0 270 117t93 372
q0 264 -93.5 383.5t-269.5 119.5q-177 0 -270.5 -117t-93.5 -372q0 -266 92 -384.5z" />
    <glyph glyph-name="R" unicode="R" horiz-adv-x="1378" 
d="M1005 0l-378 543h-18q-70 0 -155 5v-548h-321v1447q106 23 226 37t237 14q321 0 481 -116.5t160 -358.5q0 -158 -76.5 -266t-220.5 -162l420 -595h-355zM454 794q84 -9 161 -9q162 0 239 56t77 181q0 123 -73.5 179.5t-228.5 56.5q-88 0 -175 -15v-449z" />
    <glyph glyph-name="S" unicode="S" horiz-adv-x="1154" 
d="M288.5 -2.5q-107.5 16.5 -198.5 46.5v264q93 -30 204.5 -47.5t208.5 -17.5q143 0 207 43.5t64 128.5q0 47 -19.5 78.5t-65.5 55t-129 45.5l-111 29q-198 49 -296 153.5t-98 272.5q0 215 156 332.5t461 117.5q97 0 187.5 -11.5t163.5 -31.5v-265q-71 22 -158.5 34
t-174.5 12q-166 0 -238 -44.5t-72 -126.5q0 -45 17 -75t57.5 -52t113.5 -42l112 -28q216 -54 317.5 -158t101.5 -274q0 -141 -71 -244t-204.5 -157.5t-319.5 -54.5q-108 0 -215.5 16.5z" />
    <glyph glyph-name="T" unicode="T" horiz-adv-x="1287" 
d="M480 0v1209h-467v271h1260v-271h-466v-1209h-327z" />
    <glyph glyph-name="U" unicode="U" horiz-adv-x="1496" 
d="M277.5 136.5q-151.5 155.5 -151.5 477.5v866h327v-898q0 -174 73 -254t225 -80t225 80t73 254v898h321v-866q0 -322 -150 -477.5t-469 -155.5q-322 0 -473.5 155.5z" />
    <glyph glyph-name="V" unicode="V" horiz-adv-x="1434" 
d="M1115 1480h318l-475 -1480h-482l-475 1480h341l384 -1233z" />
    <glyph glyph-name="W" unicode="W" horiz-adv-x="2282" 
d="M1943 1480h309l-391 -1480h-419l-295 1122l-307 -1122h-418l-392 1480h330l295 -1177l315 1177h361l307 -1191z" />
    <glyph glyph-name="X" unicode="X" horiz-adv-x="1376" 
d="M878 771l527 -771h-361l-360 533l-360 -533h-356l527 767l-492 713h363l322 -474l323 474h352z" />
    <glyph glyph-name="Y" unicode="Y" horiz-adv-x="1287" 
d="M1327 1480l-519 -854v-626h-326v625l-534 855h346l358 -579l353 579h322z" />
    <glyph glyph-name="Z" unicode="Z" horiz-adv-x="1240" 
d="M481 270h699v-270h-1120v179l688 1031h-677v270h1099v-179z" />
    <glyph glyph-name="bracketleft" unicode="[" horiz-adv-x="716" 
d="M153 -440v2056h593v-252h-273v-1552h266v-252h-586z" />
    <glyph glyph-name="backslash" unicode="\" horiz-adv-x="791" 
d="M475 -240l-475 1856h316l475 -1856h-316z" />
    <glyph glyph-name="bracketright" unicode="]" horiz-adv-x="716" 
d="M-23 -440v252h266v1552h-273v252h593v-2056h-586z" />
    <glyph glyph-name="asciicircum" unicode="^" 
d="M1191 740h-312l-251 464l-252 -464h-311l410 740h304z" />
    <glyph glyph-name="underscore" unicode="_" horiz-adv-x="1211" 
d="M88 -253v252h1035v-252h-1035z" />
    <glyph glyph-name="grave" unicode="`" horiz-adv-x="1134" 
d="M420 1233l-271 383h340l224 -383h-293z" />
    <glyph glyph-name="a" unicode="a" horiz-adv-x="1119" 
d="M793 1067q110 -44 163 -144.5t53 -272.5v-650h-264l-22 108h-15q-48 -65 -123 -96.5t-167 -31.5q-110 0 -190 39.5t-122.5 111t-42.5 166.5q0 157 109.5 243t345.5 101l178 15v14q0 76 -24.5 119t-78 61.5t-146.5 18.5q-67 0 -146.5 -11t-150.5 -33v240q78 22 173 34
t181 12q179 0 289 -44zM615 218.5q45 16.5 81 52.5v205l-146 -11q-90 -7 -131 -41.5t-41 -96.5q0 -61 37 -93t108 -32q47 0 92 16.5z" />
    <glyph glyph-name="b" unicode="b" horiz-adv-x="1231" 
d="M322 -4.5q-111 15.5 -203 45.5v1575h320v-628h15q48 59 120 91t163 32q119 0 215 -58t153 -179.5t57 -304.5q0 -291 -154.5 -440t-463.5 -149q-111 0 -222 15.5zM773 298q67 76 67 246q0 169 -57.5 237.5t-166.5 68.5q-51 0 -97.5 -16.5t-79.5 -49.5v-546q60 -16 129 -16
q138 0 205 76z" />
    <glyph glyph-name="c" unicode="c" horiz-adv-x="963" 
d="M214.5 120.5q-145.5 141.5 -145.5 424.5q0 285 154.5 425.5t447.5 140.5q136 0 245 -25v-253q-105 21 -201 21q-111 0 -180.5 -31t-102.5 -98.5t-33 -176.5q0 -165 71 -238t218 -73q51 0 104 8.5t124 27.5v-253q-126 -41 -278 -41q-278 0 -423.5 141.5z" />
    <glyph glyph-name="d" unicode="d" horiz-adv-x="1231" 
d="M290 38q-101 57 -161 178.5t-60 307.5q0 287 152.5 437.5t443.5 150.5q68 0 127 -8v512h320v-1616h-268l-20 114h-15q-48 -62 -122.5 -97.5t-168.5 -35.5q-127 0 -228 57zM712 260.5q48 18.5 80 55.5v541q-58 12 -126 12q-140 0 -207.5 -75.5t-67.5 -244.5t57 -238
t164 -69q52 0 100 18.5z" />
    <glyph glyph-name="e" unicode="e" horiz-adv-x="1110" 
d="M1053 454h-664q5 -88 37.5 -138.5t101.5 -73t188 -22.5q125 0 276 35v-239q-160 -37 -321 -37q-209 0 -341.5 59.5t-196.5 184.5t-64 325q0 180 59.5 306.5t173.5 191.5t276 65q232 0 353.5 -146.5t121.5 -426.5v-84zM437 847q-46 -62 -49 -208h367q-3 147 -47 208.5
t-134 61.5q-91 0 -137 -62z" />
    <glyph glyph-name="f" unicode="f" horiz-adv-x="803" 
d="M574 1335.5q-53 -46.5 -53 -147.5v-94h287v-252h-287v-842h-318v842h-178v252h178v79q0 146 56.5 249.5t166.5 158.5t268 55q82 0 160 -12v-250q-53 8 -111 8q-116 0 -169 -46.5z" />
    <glyph glyph-name="g" unicode="g" horiz-adv-x="1231" 
d="M145 -415v250q177 -49 342 -49q108 0 175 26t98.5 82.5t31.5 149.5v73h-15q-48 -59 -120.5 -91.5t-162.5 -32.5q-117 0 -213.5 58t-154 177.5t-57.5 296.5q0 286 156 436t466 150q108 0 221 -15.5t200 -44.5v-948q0 -197 -65.5 -321.5t-197.5 -183t-337 -58.5
q-198 0 -367 45zM712 269.5q47 16.5 80 49.5v536q-60 14 -129 14q-136 0 -204 -75.5t-68 -241.5q0 -165 57 -232t167 -67q50 0 97 16.5z" />
    <glyph glyph-name="h" unicode="h" horiz-adv-x="1223" 
d="M119 1616h320v-632h15q56 62 132 94.5t169 32.5q162 0 260 -104t98 -326v-681h-320v660q0 96 -39 136t-115 40q-56 0 -110.5 -23t-89.5 -67v-746h-320v1616z" />
    <glyph glyph-name="i" unicode="i" horiz-adv-x="558" 
d="M119 0v1094h320v-1094h-320zM130.5 1296q-49.5 43 -49.5 123q0 81 49 124t149 43q99 0 148 -43t49 -124q0 -80 -49 -123t-148 -43t-148.5 43z" />
    <glyph glyph-name="j" unicode="j" horiz-adv-x="558" 
d="M-38 -334q87 116 122 231t35 279v918h320v-905q0 -194 -62 -349t-208 -311zM126.5 1298q-49.5 43 -49.5 123q0 81 49 124t149 43q99 0 148 -43t49 -124q0 -80 -49 -123t-148 -43t-148.5 43z" />
    <glyph glyph-name="k" unicode="k" horiz-adv-x="1181" 
d="M866 0l-299 434h-128v-434h-320v1616h320v-926h126l273 404h341l-348 -526l383 -568h-348z" />
    <glyph glyph-name="l" unicode="l" horiz-adv-x="557" 
d="M119 0v1616h320v-1616h-320z" />
    <glyph glyph-name="m" unicode="m" horiz-adv-x="1806" 
d="M1598 1007q98 -104 98 -327v-680h-319v663q0 93 -37.5 133t-104.5 40q-48 0 -93 -18.5t-77 -56.5q3 -33 3 -71v-690h-313v663q0 94 -35 133.5t-102 39.5q-51 0 -99.5 -23t-79.5 -68v-745h-320v1094h263l22 -111h15q117 128 307 128q91 0 162.5 -34.5t115.5 -107.5
q68 73 153 107.5t175 34.5q168 0 266 -104z" />
    <glyph glyph-name="n" unicode="n" horiz-adv-x="1223" 
d="M119 1094h263l22 -111h15q60 62 142 95t179 33q173 0 273 -104t100 -326v-681h-320v662q0 95 -39 134.5t-115 39.5q-57 0 -111 -23t-89 -67v-746h-320v1094z" />
    <glyph glyph-name="o" unicode="o" horiz-adv-x="1206" 
d="M317.5 42q-119.5 63 -184 189.5t-64.5 312.5q0 282 139 424.5t395 142.5q255 0 394.5 -143t139.5 -422q0 -187 -64.5 -314t-184 -190t-285.5 -63t-285.5 63zM720 252q46 30 70.5 100.5t24.5 190.5q0 122 -24.5 194t-71 102t-116.5 30t-116.5 -30t-71 -100.5t-24.5 -191.5
q0 -122 24.5 -193.5t70.5 -101.5t117 -30t117 30z" />
    <glyph glyph-name="p" unicode="p" horiz-adv-x="1231" 
d="M119 1094h268l20 -116h15q48 62 122.5 97.5t168.5 35.5q127 0 228 -56.5t161 -178t60 -308.5q0 -287 -152.5 -437.5t-443.5 -150.5q-53 0 -127 8v-428h-320v1534zM772.5 298.5q67.5 75.5 67.5 244.5q0 170 -57 238.5t-164 68.5q-52 0 -100 -18.5t-80 -55.5v-541
q58 -12 126 -12q140 0 207.5 75.5z" />
    <glyph glyph-name="q" unicode="q" horiz-adv-x="1231" 
d="M792 103h-15q-48 -59 -120 -91t-163 -32q-119 0 -215 58t-153 179.5t-57 304.5q0 291 155.5 440t465.5 149q108 0 221.5 -15.5t200.5 -44.5v-1491h-320v543zM712 258.5q47 16.5 80 49.5v547q-60 14 -130 14q-135 0 -203 -76t-68 -246q0 -169 57.5 -237t166.5 -68
q50 0 97 16.5z" />
    <glyph glyph-name="r" unicode="r" horiz-adv-x="809" 
d="M119 1094h261l25 -141h15q45 79 120 117.5t170 38.5q48 0 88 -8v-289q-44 9 -108 9q-73 0 -143 -28t-108 -77v-716h-320v1094z" />
    <glyph glyph-name="s" unicode="s" horiz-adv-x="980" 
d="M90 27v234q162 -49 346 -49q104 0 150.5 27.5t46.5 80.5q0 41 -22 62t-77 32l-177 32q-153 28 -224 105.5t-71 209.5q0 107 57 185.5t172.5 121.5t286.5 43q78 0 154.5 -9t138.5 -25v-234q-133 36 -284 36q-228 0 -228 -110q0 -36 22.5 -58t75.5 -32l177 -32
q152 -29 224.5 -102.5t72.5 -213.5q0 -109 -57.5 -188t-168 -121.5t-264.5 -42.5q-195 0 -351 48z" />
    <glyph glyph-name="t" unicode="t" horiz-adv-x="843" 
d="M808 256v-253q-101 -23 -202 -23q-202 0 -306.5 100t-104.5 310v452h-178v252h178l58 386h262v-386h287v-252h-287v-402q0 -74 18.5 -117t57 -61.5t102.5 -18.5q42 0 115 13z" />
    <glyph glyph-name="u" unicode="u" horiz-adv-x="1214" 
d="M211.5 84.5q-101.5 103.5 -101.5 325.5v684h320v-663q0 -94 38.5 -134t110.5 -40q53 0 107 23t90 66v748h320v-1094h-264l-22 110h-13q-63 -64 -141.5 -96.5t-167.5 -32.5q-175 0 -276.5 103.5z" />
    <glyph glyph-name="v" unicode="v" horiz-adv-x="1167" 
d="M854 1094h315l-386 -1094h-400l-384 1094h334l260 -804z" />
    <glyph glyph-name="w" unicode="w" horiz-adv-x="1813" 
d="M1479 1094h291l-293 -1094h-354l-213 791l-218 -791h-354l-294 1094h303l187 -752l203 752h354l197 -741z" />
    <glyph glyph-name="x" unicode="x" horiz-adv-x="1126" 
d="M749 555l386 -555h-352l-222 332l-226 -332h-343l382 551l-375 543h352l216 -318l213 318h342z" />
    <glyph glyph-name="y" unicode="y" horiz-adv-x="1167" 
d="M854 1094h315l-541 -1534h-314l157 440h-88l-384 1094h334l258 -811z" />
    <glyph glyph-name="z" unicode="z" horiz-adv-x="1015" 
d="M461 252h504v-252h-899v203l492 639h-482v252h878v-202z" />
    <glyph glyph-name="braceleft" unicode="{" horiz-adv-x="756" 
d="M468.5 721.5q-44.5 -65.5 -140.5 -92.5q96 -27 140.5 -92.5t44.5 -171.5v-428q0 -74 37.5 -107t114.5 -33h121v-244q-80 -13 -175 -13q-207 0 -312.5 98.5t-105.5 288.5v444q0 63 -35 97.5t-96 34.5h-52v252h52q61 0 96 34.5t35 97.5v362q0 190 105.5 288.5t312.5 98.5
q95 0 175 -13v-244h-121q-77 0 -114.5 -33t-37.5 -107v-346q0 -106 -44.5 -171.5z" />
    <glyph glyph-name="bar" unicode="|" horiz-adv-x="554" 
d="M133 -440v2056h288v-2056h-288z" />
    <glyph glyph-name="braceright" unicode="}" horiz-adv-x="756" 
d="M746 755v-252h-52q-62 0 -96.5 -34.5t-34.5 -97.5v-444q0 -190 -105.5 -288.5t-312.5 -98.5q-95 0 -175 13v244h121q77 0 114.5 33t37.5 107v428q0 106 45 171.5t141 92.5q-96 27 -141 92.5t-45 171.5v346q0 74 -37.5 107t-114.5 33h-121v244q80 13 175 13
q207 0 312.5 -98.5t105.5 -288.5v-362q0 -63 34.5 -97.5t96.5 -34.5h52z" />
    <glyph glyph-name="asciitilde" unicode="~" horiz-adv-x="1101" 
d="M643.5 595q-48.5 16 -116.5 48q-59 27 -97.5 40.5t-77.5 13.5q-68 0 -123.5 -26t-111.5 -84v252q47 50 104 74t133 24q54 0 101.5 -15.5t118.5 -47.5q59 -27 97.5 -40.5t77.5 -13.5q68 0 123.5 26t111.5 83v-251q-47 -51 -104 -75t-133 -24q-55 0 -103.5 16z" />
    <glyph glyph-name="uni00A0" unicode="&#xa0;" horiz-adv-x="503" 
 />
    <glyph glyph-name="exclamdown" unicode="&#xa1;" horiz-adv-x="597" 
d="M449.5 1058q56.5 -53 56.5 -140q0 -88 -56 -141.5t-151 -53.5q-97 0 -152.5 52.5t-55.5 142.5q0 89 56.5 141t151.5 52q94 0 150.5 -53zM203 608h195l71 -488v-500h-340v500z" />
    <glyph glyph-name="cent" unicode="&#xa2;" horiz-adv-x="968" 
d="M474 782q-75 -72 -75 -234q0 -165 71 -238t218 -73q51 0 104 8.5t124 27.5v-253q-78 -26 -172 -35v-225h-273v234q-198 39 -300 176.5t-102 374.5q0 232 102.5 367.5t299.5 178.5v243h273v-225q88 -4 172 -23v-253q-107 21 -202 21q-165 0 -240 -72z" />
    <glyph glyph-name="sterling" unicode="&#xa3;" horiz-adv-x="1344" 
d="M1284 260v-260h-1210v260h196v371h-196v238h196v134q0 245 156.5 370.5t471.5 125.5q93 0 182 -10.5t160 -29.5v-264q-71 20 -157 31t-164 11q-124 0 -196 -22.5t-104.5 -70.5t-32.5 -128v-147h462v-238h-462v-371h698z" />
    <glyph glyph-name="currency" unicode="&#xa4;" 
d="M1052 469l114 -112l-155 -156l-113 115l-85 101q-84 -45 -185 -45q-102 0 -186 45l-85 -101l-112 -115l-156 156l115 112l101 85q-44 83 -44 186t45 185l-102 86l-116 112l156 156l112 -115l87 -102q83 44 185 44t184 -45l87 103l112 115l156 -156l-115 -112l-102 -87
q44 -82 44 -184t-44 -185zM499.5 600q49.5 -52 128.5 -52t128.5 51.5t49.5 140.5q0 84 -48 138t-128 54t-130 -51.5t-50 -140.5q0 -88 49.5 -140z" />
    <glyph glyph-name="yen" unicode="&#xa5;" horiz-adv-x="1301" 
d="M1335 1480l-422 -693h215v-189h-313v-148h313v-189h-313v-261h-326v261h-313v189h313v148h-313v189h212l-432 693h347l356 -580l355 580h321z" />
    <glyph glyph-name="brokenbar" unicode="&#xa6;" horiz-adv-x="554" 
d="M133 836v780h288v-780h-288zM133 -440v780h288v-780h-288z" />
    <glyph glyph-name="section" unicode="&#xa7;" horiz-adv-x="1110" 
d="M909 503q63 -67 63 -177q0 -107 -56.5 -185t-169 -120t-275.5 -42q-82 0 -169 10.5t-163 31.5v221q158 -42 328 -42q118 0 167 27.5t49 80.5q0 41 -23 63.5t-76 33.5l-216 42q-276 58 -276 306q0 134 107 222q-68 68 -68 175q0 162 129.5 254.5t396.5 92.5q148 0 275 -27
v-221q-120 28 -251 28q-261 0 -261 -110q0 -38 23.5 -60.5t75.5 -32.5l223 -41q138 -28 207.5 -101t69.5 -203q0 -135 -110 -226zM689 609l18 -4q26 25 37.5 49t11.5 53q0 49 -27.5 78t-92.5 43l-215 42l-24 5q-22 -26 -32.5 -51t-10.5 -53q0 -47 27.5 -76.5t91.5 -43.5z
" />
    <glyph glyph-name="dieresis" unicode="&#xa8;" horiz-adv-x="1134" 
d="M195 1300.5q-45 42.5 -45 118.5t45 119t128 43t127.5 -43t44.5 -119t-45 -118.5t-127 -42.5q-83 0 -128 42.5zM684 1300.5q-45 42.5 -45 118.5t44.5 119t127.5 43t128 -43t45 -119t-45 -118.5t-128 -42.5q-82 0 -127 42.5z" />
    <glyph glyph-name="copyright" unicode="&#xa9;" horiz-adv-x="1663" 
d="M439 73q-170 95 -263 267.5t-93 399.5t93 399.5t263 267.5t393 95t392.5 -95t262.5 -267.5t93 -399.5t-93 -399.5t-262.5 -267.5t-392.5 -95t-393 95zM1138 219.5q129 72.5 197.5 206t68.5 314.5t-68.5 314.5t-197.5 206t-306 72.5q-178 0 -306.5 -72.5t-197 -206
t-68.5 -314.5t68.5 -314.5t197 -206t306.5 -72.5q177 0 306 72.5zM664.5 371.5q-96.5 47.5 -149 139.5t-52.5 222q0 129 53.5 221.5t153.5 141t237 48.5q105 0 192 -24v-195q-52 10 -91 15t-81 5q-231 0 -231 -211q0 -104 56 -157.5t160 -53.5q43 0 85.5 7t101.5 23v-195
q-85 -34 -208 -34q-130 0 -226.5 47.5z" />
    <glyph glyph-name="ordfeminine" unicode="&#xaa;" horiz-adv-x="937" 
d="M669 1462q96 -37 142 -120.5t46 -226.5v-505h-246l-22 87h-14q-38 -52 -100.5 -78t-138.5 -26q-94 0 -161 32.5t-101.5 90t-34.5 133.5q0 130 89.5 198t286.5 78l147 10v18q0 47 -18 74.5t-61.5 40.5t-121.5 13q-59 0 -124 -9t-124 -26v215q70 18 150 28t154 10
q156 0 252 -37zM505.5 800q31.5 11 56.5 32v157l-104 -7q-67 -4 -97.5 -28.5t-30.5 -68.5q0 -47 29 -71.5t85 -24.5q30 0 61.5 11z" />
    <glyph glyph-name="guillemotleft" unicode="&#xab;" horiz-adv-x="1225" 
d="M334 133l-250 434l250 434h325l-249 -434l249 -434h-325zM855 133l-250 434l250 434h325l-249 -434l249 -434h-325z" />
    <glyph glyph-name="logicalnot" unicode="&#xac;" horiz-adv-x="1333" 
d="M967 198v440h-850v244h1105v-684h-255z" />
    <glyph glyph-name="uni00AD" unicode="&#xad;" horiz-adv-x="911" 
d="M117 437v260h677v-260h-677z" />
    <glyph glyph-name="registered" unicode="&#xae;" horiz-adv-x="1437" 
d="M1036.5 1420q138.5 -78 215.5 -218t77 -320t-77 -319.5t-215.5 -217t-317.5 -77.5t-317.5 77.5t-215.5 217t-77 319.5t77 320t215.5 218t317.5 78t317.5 -78zM967 457q107 60 165 169.5t58 255.5t-58.5 256.5t-165 170.5t-247.5 60q-142 0 -248.5 -60t-165 -170.5
t-58.5 -256.5t58.5 -255.5t165 -169.5t248.5 -60q141 0 248 60zM847 817l149 -217h-150l-136 198h-1h-68l-4 -198h-136v592h208q258 0 258 -198q0 -134 -120 -177zM641 909h90q52 0 77 21t25 64q0 87 -102 87h-90v-172z" />
    <glyph glyph-name="macron" unicode="&#xaf;" horiz-adv-x="1134" 
d="M212 1324v192h710v-192h-710z" />
    <glyph glyph-name="degree" unicode="&#xb0;" horiz-adv-x="971" 
d="M292 803q-86 48 -134.5 133t-48.5 191q0 107 48.5 191.5t134.5 132.5t193 48q108 0 194 -48t134.5 -132.5t48.5 -191.5q0 -106 -48.5 -191t-134.5 -133t-194 -48q-107 0 -193 48zM577.5 963.5q40.5 22.5 63.5 65t23 98.5q0 86 -50.5 136t-128.5 50q-51 0 -91.5 -22.5
t-63.5 -64.5t-23 -99q0 -56 23 -98.5t63.5 -65t91.5 -22.5q52 0 92.5 22.5z" />
    <glyph glyph-name="plusminus" unicode="&#xb1;" horiz-adv-x="1101" 
d="M423 374v297h-306v245h306v297h255v-297h306v-245h-306v-297h-255zM117 1v244h867v-244h-867z" />
    <glyph glyph-name="uni00B2" unicode="&#xb2;" horiz-adv-x="855" 
d="M778 69v-205h-697v133l283 336q63 76 90 127.5t27 96.5q0 63 -42.5 92.5t-141.5 29.5q-59 0 -120 -11t-109 -29v201q52 18 122.5 27.5t143.5 9.5q199 0 299.5 -71.5t100.5 -222.5q-1 -78 -36 -153t-113 -168l-164 -193h357z" />
    <glyph glyph-name="uni00B3" unicode="&#xb3;" horiz-adv-x="855" 
d="M719.5 300.5q51.5 -60.5 51.5 -156.5q0 -140 -108 -216.5t-320 -76.5q-148 0 -275 34v186q62 -18 131.5 -27t131.5 -9q104 0 152 31t48 94q0 61 -44.5 91.5t-143.5 30.5h-173v186h146q178 0 178 115q0 55 -42.5 83t-134.5 28q-57 0 -120 -10.5t-113 -28.5v186
q49 16 122 26t141 10q194 0 292.5 -70t98.5 -202q0 -82 -44 -141.5t-122 -82.5q96 -20 147.5 -80.5z" />
    <glyph glyph-name="acute" unicode="&#xb4;" horiz-adv-x="1134" 
d="M420 1233l225 383h340l-272 -383h-293z" />
    <glyph glyph-name="uni00B5" unicode="&#xb5;" horiz-adv-x="1214" 
d="M1096 1094v-1094h-264l-22 110h-13q-49 -64 -111 -96.5t-132 -32.5q-69 0 -124 28v-449h-320v1533h320v-662q0 -94 38.5 -134t110.5 -40q53 0 107 23t90 66v748h320z" />
    <glyph glyph-name="paragraph" unicode="&#xb6;" horiz-adv-x="1318" 
d="M600 432q-47 -3 -92 -3q-216 0 -325.5 135t-109.5 399q0 277 115 406t358 129q154 0 281 -18v-1480h-227v432zM958 0v1480h227v-1480h-227z" />
    <glyph glyph-name="periodcentered" unicode="&#xb7;" horiz-adv-x="557" 
d="M127.5 418q-56.5 52 -56.5 141q0 90 55.5 142.5t152.5 52.5q95 0 151 -53.5t56 -141.5q0 -87 -56.5 -140t-150.5 -53q-95 0 -151.5 52z" />
    <glyph glyph-name="cedilla" unicode="&#xb8;" horiz-adv-x="1134" 
d="M774.5 -146q41.5 -45 41.5 -116q0 -85 -64.5 -132.5t-189.5 -47.5q-102 0 -181 31v124q38 -16 82.5 -24t83.5 -8q51 0 76 16.5t25 53.5q0 73 -102 73h-46v196h153v-108q80 -13 121.5 -58z" />
    <glyph glyph-name="uni00B9" unicode="&#xb9;" horiz-adv-x="855" 
d="M597 69h200v-205h-666v205h211v519l-208 -134v222l298 192h165v-799z" />
    <glyph glyph-name="ordmasculine" unicode="&#xba;" horiz-adv-x="1010" 
d="M165 710.5q-120 117.5 -120 336.5q0 218 120 335t340 117q145 0 248.5 -52.5t157.5 -154t54 -245.5t-54.5 -246t-157.5 -155t-248 -53q-220 0 -340 117.5zM627 865.5q42 53.5 42 181.5t-42 180.5t-122 52.5q-79 0 -121 -53t-42 -180q0 -128 42 -181.5t121 -53.5
q80 0 122 53.5z" />
    <glyph glyph-name="guillemotright" unicode="&#xbb;" horiz-adv-x="1225" 
d="M44 133l250 434l-250 434h326l249 -434l-249 -434h-326zM565 133l250 434l-250 434h326l249 -434l-249 -434h-326z" />
    <glyph glyph-name="onequarter" unicode="&#xbc;" horiz-adv-x="2081" 
d="M597 821h200v-205h-666v205h211v519l-208 -134v222l298 192h165v-799zM505 -136l805 1752h266l-805 -1752h-266zM2059 252v-192h-123v-196h-223v196h-462v136l311 668h236l-282 -612h197l44 274h179v-274h123z" />
    <glyph glyph-name="onehalf" unicode="&#xbd;" horiz-adv-x="2081" 
d="M597 821h200v-205h-666v205h211v519l-208 -134v222l298 192h165v-799zM505 -136l805 1752h266l-805 -1752h-266zM2004 69v-205h-697v133l283 336q63 76 90 127.5t27 96.5q0 63 -42.5 92.5t-141.5 29.5q-59 0 -120 -11t-109 -29v201q52 18 122.5 27.5t143.5 9.5
q199 0 299.5 -71.5t100.5 -222.5q-1 -78 -36 -153t-113 -168l-164 -193h357z" />
    <glyph glyph-name="threequarters" unicode="&#xbe;" horiz-adv-x="2081" 
d="M719.5 1052.5q51.5 -60.5 51.5 -156.5q0 -140 -108 -216.5t-320 -76.5q-148 0 -275 34v186q62 -18 131.5 -27t131.5 -9q104 0 152 31t48 94q0 61 -44.5 91.5t-143.5 30.5h-173v186h146q178 0 178 115q0 55 -42.5 83t-134.5 28q-57 0 -120 -10.5t-113 -28.5v186
q49 16 122 26t141 10q194 0 292.5 -70t98.5 -202q0 -82 -44 -141.5t-122 -82.5q96 -20 147.5 -80.5zM505 -136l805 1752h266l-805 -1752h-266zM2059 252v-192h-123v-196h-223v196h-462v136l311 668h236l-282 -612h197l44 274h179v-274h123z" />
    <glyph glyph-name="questiondown" unicode="&#xbf;" horiz-adv-x="993" 
d="M699.5 1061q56.5 -50 56.5 -134q0 -85 -56 -135t-152 -50q-95 0 -151 50.5t-56 134.5q0 83 56.5 133.5t150.5 50.5q95 0 151.5 -50zM702 263q-129 -26 -203.5 -60.5t-105 -78t-30.5 -100.5q0 -174 266 -174q84 0 170.5 14.5t161.5 41.5v-251q-72 -25 -173.5 -40
t-195.5 -15q-267 0 -404 102.5t-137 295.5q0 156 95 258.5t282 159.5l23 215h195z" />
    <glyph glyph-name="Agrave" unicode="&#xc0;" horiz-adv-x="1460" 
d="M1125 0l-122 395h-549l-122 -395h-318l478 1480h476l478 -1480h-321zM533 654h390l-195 631zM585 1595l-228 303h336l180 -303h-288z" />
    <glyph glyph-name="Aacute" unicode="&#xc1;" horiz-adv-x="1460" 
d="M1125 0l-122 395h-549l-122 -395h-318l478 1480h476l478 -1480h-321zM533 654h390l-195 631zM583 1595l180 303h337l-228 -303h-289z" />
    <glyph glyph-name="Acircumflex" unicode="&#xc2;" horiz-adv-x="1460" 
d="M1125 0l-122 395h-549l-122 -395h-318l478 1480h476l478 -1480h-321zM533 654h390l-195 631zM1121 1595h-243l-149 185l-149 -185h-243l256 303h272z" />
    <glyph glyph-name="Atilde" unicode="&#xc3;" horiz-adv-x="1460" 
d="M1125 0l-122 395h-549l-122 -395h-318l478 1480h476l478 -1480h-321zM533 654h390l-195 631zM813 1629q-40 10 -101 30q-55 19 -89 27.5t-72 8.5q-60 0 -106 -17t-93 -53v183q41 37 89.5 55t115.5 18q48 0 89.5 -10.5t99.5 -30.5q52 -19 87.5 -28t73.5 -9q60 0 106 17
t93 53v-183q-40 -37 -88.5 -54t-116.5 -17q-48 0 -88 10z" />
    <glyph glyph-name="Adieresis" unicode="&#xc4;" horiz-adv-x="1460" 
d="M1125 0l-122 395h-549l-122 -395h-318l478 1480h476l478 -1480h-321zM533 654h390l-195 631zM344 1643.5q-44 37.5 -44 107.5q0 69 44 107t128 38t128 -38t44 -107q0 -70 -43.5 -107.5t-128.5 -37.5q-84 0 -128 37.5zM857.5 1643.5q-43.5 37.5 -43.5 107.5q0 69 44 107
t128 38t128 -38t44 -107q0 -70 -44 -107.5t-128 -37.5q-85 0 -128.5 37.5z" />
    <glyph glyph-name="Aring" unicode="&#xc5;" horiz-adv-x="1460" 
d="M1125 0l-122 395h-549l-122 -395h-318l478 1480h476l478 -1480h-321zM533 654h390l-195 631zM620 1555q-49 27 -77 74.5t-28 107.5t28 108t77 75t110 27t110 -27t77 -75t28 -108t-28 -107.5t-77 -74.5t-110 -27t-110 27zM797.5 1667q25.5 26 25.5 70q0 45 -25.5 71
t-67.5 26t-67.5 -26t-25.5 -71q0 -44 25.5 -70t67.5 -26t67.5 26z" />
    <glyph glyph-name="AE" unicode="&#xc6;" horiz-adv-x="2008" 
d="M1280 260h657v-260h-959l-29 394h-491l-124 -394h-320l482 1480h1431v-260h-724l27 -333h595v-260h-574zM540 655h389l-42 565h-170z" />
    <glyph glyph-name="Ccedilla" unicode="&#xc7;" horiz-adv-x="1238" 
d="M632 1180q-104 -50 -155.5 -157.5t-51.5 -281.5q0 -178 51 -286t152 -156.5t259 -48.5q142 0 303 47v-269q-72 -22 -158.5 -34.5t-174.5 -12.5q-29 0 -43 1v-68q90 -12 137 -56.5t47 -116.5q0 -87 -69 -135t-204 -48q-112 0 -202 32v123q86 -32 187 -32q60 0 90 16.5
t30 53.5q0 73 -121 73h-49v171q-284 43 -430.5 225t-146.5 517q0 378 203 570t587 192q171 0 317 -35v-268q-145 34 -292 34q-162 0 -266 -50z" />
    <glyph glyph-name="Egrave" unicode="&#xc8;" 
d="M455 260h729v-260h-1051v1480h1041v-260h-719v-333h617v-260h-617v-367zM531 1595l-228 303h336l180 -303h-288z" />
    <glyph glyph-name="Eacute" unicode="&#xc9;" 
d="M455 260h729v-260h-1051v1480h1041v-260h-719v-333h617v-260h-617v-367zM529 1595l180 303h337l-228 -303h-289z" />
    <glyph glyph-name="Ecircumflex" unicode="&#xca;" 
d="M455 260h729v-260h-1051v1480h1041v-260h-719v-333h617v-260h-617v-367zM1067 1595h-243l-149 185l-149 -185h-243l256 303h272z" />
    <glyph glyph-name="Edieresis" unicode="&#xcb;" 
d="M455 260h729v-260h-1051v1480h1041v-260h-719v-333h617v-260h-617v-367zM290 1643.5q-44 37.5 -44 107.5q0 69 44 107t128 38t128 -38t44 -107q0 -70 -43.5 -107.5t-128.5 -37.5q-84 0 -128 37.5zM803.5 1643.5q-43.5 37.5 -43.5 107.5q0 69 44 107t128 38t128 -38
t44 -107q0 -70 -44 -107.5t-128 -37.5q-85 0 -128.5 37.5z" />
    <glyph glyph-name="Igrave" unicode="&#xcc;" horiz-adv-x="592" 
d="M133 0v1480h326v-1480h-326zM152 1595l-228 303h336l180 -303h-288z" />
    <glyph glyph-name="Iacute" unicode="&#xcd;" horiz-adv-x="592" 
d="M133 0v1480h326v-1480h-326zM150 1595l180 303h337l-228 -303h-289z" />
    <glyph glyph-name="Icircumflex" unicode="&#xce;" horiz-adv-x="592" 
d="M133 0v1480h326v-1480h-326zM688 1595h-243l-149 185l-149 -185h-243l256 303h272z" />
    <glyph glyph-name="Idieresis" unicode="&#xcf;" horiz-adv-x="592" 
d="M133 0v1480h326v-1480h-326zM-89 1643.5q-44 37.5 -44 107.5q0 69 44 107t128 38t128 -38t44 -107q0 -70 -43.5 -107.5t-128.5 -37.5q-84 0 -128 37.5zM424.5 1643.5q-43.5 37.5 -43.5 107.5q0 69 44 107t128 38t128 -38t44 -107q0 -70 -44 -107.5t-128 -37.5
q-85 0 -128.5 37.5z" />
    <glyph glyph-name="Eth" unicode="&#xd0;" horiz-adv-x="1501" 
d="M1214 1310.5q204 -185.5 204 -570.5q0 -264 -97 -431t-291 -245.5t-492 -78.5q-212 0 -405 24v649h-129v208h129v581q104 23 228.5 36t241.5 13q407 0 611 -185.5zM882 299q101 49 151 157t50 285q0 175 -50.5 283.5t-151.5 158.5t-256 50q-79 0 -166 -15v-352h273v-208
h-273v-401q64 -7 164 -7q158 0 259 49z" />
    <glyph glyph-name="Ntilde" unicode="&#xd1;" horiz-adv-x="1544" 
d="M1104 1480h307v-1480h-328l-643 991v-991h-307v1480h328l643 -991v991zM856 1629q-40 10 -101 30q-55 19 -89 27.5t-72 8.5q-60 0 -106 -17t-93 -53v183q41 37 89.5 55t115.5 18q48 0 89.5 -10.5t99.5 -30.5q52 -19 87.5 -28t73.5 -9q60 0 106 17t93 53v-183
q-40 -37 -88.5 -54t-116.5 -17q-48 0 -88 10z" />
    <glyph glyph-name="Ograve" unicode="&#xd2;" horiz-adv-x="1563" 
d="M410.5 64.5q-156.5 83.5 -242 253.5t-85.5 422t85.5 422t242 253.5t371.5 83.5t371.5 -84t241.5 -254t85 -421t-85.5 -421t-242 -254t-370.5 -84q-215 0 -371.5 83.5zM1052 361q93 117 93 372q0 264 -93.5 383.5t-269.5 119.5q-177 0 -270.5 -117t-93.5 -372
q0 -265 93 -384t271 -119q177 0 270 117zM638 1595l-228 303h336l180 -303h-288z" />
    <glyph glyph-name="Oacute" unicode="&#xd3;" horiz-adv-x="1563" 
d="M410.5 64.5q-156.5 83.5 -242 253.5t-85.5 422t85.5 422t242 253.5t371.5 83.5t371.5 -84t241.5 -254t85 -421t-85.5 -421t-242 -254t-370.5 -84q-215 0 -371.5 83.5zM1052 361q93 117 93 372q0 264 -93.5 383.5t-269.5 119.5q-177 0 -270.5 -117t-93.5 -372
q0 -265 93 -384t271 -119q177 0 270 117zM636 1595l180 303h337l-228 -303h-289z" />
    <glyph glyph-name="Ocircumflex" unicode="&#xd4;" horiz-adv-x="1563" 
d="M410.5 64.5q-156.5 83.5 -242 253.5t-85.5 422t85.5 422t242 253.5t371.5 83.5t371.5 -84t241.5 -254t85 -421t-85.5 -421t-242 -254t-370.5 -84q-215 0 -371.5 83.5zM1052 361q93 117 93 372q0 264 -93.5 383.5t-269.5 119.5q-177 0 -270.5 -117t-93.5 -372
q0 -265 93 -384t271 -119q177 0 270 117zM1174 1595h-243l-149 185l-149 -185h-243l256 303h272z" />
    <glyph glyph-name="Otilde" unicode="&#xd5;" horiz-adv-x="1563" 
d="M410.5 64.5q-156.5 83.5 -242 253.5t-85.5 422t85.5 422t242 253.5t371.5 83.5t371.5 -84t241.5 -254t85 -421t-85.5 -421t-242 -254t-370.5 -84q-215 0 -371.5 83.5zM1052 361q93 117 93 372q0 264 -93.5 383.5t-269.5 119.5q-177 0 -270.5 -117t-93.5 -372
q0 -265 93 -384t271 -119q177 0 270 117zM866 1629q-40 10 -101 30q-55 19 -89 27.5t-72 8.5q-60 0 -106 -17t-93 -53v183q41 37 89.5 55t115.5 18q48 0 89.5 -10.5t99.5 -30.5q52 -19 87.5 -28t73.5 -9q60 0 106 17t93 53v-183q-40 -37 -88.5 -54t-116.5 -17q-48 0 -88 10z
" />
    <glyph glyph-name="Odieresis" unicode="&#xd6;" horiz-adv-x="1563" 
d="M410.5 64.5q-156.5 83.5 -242 253.5t-85.5 422t85.5 422t242 253.5t371.5 83.5t371.5 -84t241.5 -254t85 -421t-85.5 -421t-242 -254t-370.5 -84q-215 0 -371.5 83.5zM1052 361q93 117 93 372q0 264 -93.5 383.5t-269.5 119.5q-177 0 -270.5 -117t-93.5 -372
q0 -265 93 -384t271 -119q177 0 270 117zM397 1643.5q-44 37.5 -44 107.5q0 69 44 107t128 38t128 -38t44 -107q0 -70 -43.5 -107.5t-128.5 -37.5q-84 0 -128 37.5zM910.5 1643.5q-43.5 37.5 -43.5 107.5q0 69 44 107t128 38t128 -38t44 -107q0 -70 -44 -107.5t-128 -37.5
q-85 0 -128.5 37.5z" />
    <glyph glyph-name="multiply" unicode="&#xd7;" horiz-adv-x="1042" 
d="M259 326l-172 172l262 262l-262 262l172 172l262 -262l262 262l172 -172l-262 -262l262 -262l-172 -172l-262 262z" />
    <glyph glyph-name="Oslash" unicode="&#xd8;" horiz-adv-x="1563" 
d="M1437.5 1054q42.5 -137 42.5 -314q0 -251 -85.5 -421t-242 -254t-370.5 -84q-238 0 -403 102l-102 -131l-134 105l107 137q-167 195 -167 546q0 252 85.5 422t242 253.5t371.5 83.5q239 0 402 -102l102 131l134 -105l-107 -137q82 -95 124.5 -232zM458 463l547 703
q-86 70 -223 70q-177 0 -270.5 -117t-93.5 -372q0 -172 40 -284zM1052 361q93 117 93 372q0 172 -41 284l-546 -703q84 -70 224 -70q177 0 270 117z" />
    <glyph glyph-name="Ugrave" unicode="&#xd9;" horiz-adv-x="1496" 
d="M277.5 136.5q-151.5 155.5 -151.5 477.5v866h327v-898q0 -174 73 -254t225 -80t225 80t73 254v898h321v-866q0 -322 -150 -477.5t-469 -155.5q-322 0 -473.5 155.5zM607 1595l-228 303h336l180 -303h-288z" />
    <glyph glyph-name="Uacute" unicode="&#xda;" horiz-adv-x="1496" 
d="M277.5 136.5q-151.5 155.5 -151.5 477.5v866h327v-898q0 -174 73 -254t225 -80t225 80t73 254v898h321v-866q0 -322 -150 -477.5t-469 -155.5q-322 0 -473.5 155.5zM605 1595l180 303h337l-228 -303h-289z" />
    <glyph glyph-name="Ucircumflex" unicode="&#xdb;" horiz-adv-x="1496" 
d="M277.5 136.5q-151.5 155.5 -151.5 477.5v866h327v-898q0 -174 73 -254t225 -80t225 80t73 254v898h321v-866q0 -322 -150 -477.5t-469 -155.5q-322 0 -473.5 155.5zM1143 1595h-243l-149 185l-149 -185h-243l256 303h272z" />
    <glyph glyph-name="Udieresis" unicode="&#xdc;" horiz-adv-x="1496" 
d="M277.5 136.5q-151.5 155.5 -151.5 477.5v866h327v-898q0 -174 73 -254t225 -80t225 80t73 254v898h321v-866q0 -322 -150 -477.5t-469 -155.5q-322 0 -473.5 155.5zM366 1643.5q-44 37.5 -44 107.5q0 69 44 107t128 38t128 -38t44 -107q0 -70 -43.5 -107.5t-128.5 -37.5
q-84 0 -128 37.5zM879.5 1643.5q-43.5 37.5 -43.5 107.5q0 69 44 107t128 38t128 -38t44 -107q0 -70 -44 -107.5t-128 -37.5q-85 0 -128.5 37.5z" />
    <glyph glyph-name="Yacute" unicode="&#xdd;" horiz-adv-x="1287" 
d="M1327 1480l-519 -854v-626h-326v625l-534 855h346l358 -579l353 579h322zM498 1595l180 303h337l-228 -303h-289z" />
    <glyph glyph-name="Thorn" unicode="&#xde;" horiz-adv-x="1328" 
d="M133 1480h326v-193q70 8 127 8q331 0 494.5 -130t163.5 -405q0 -264 -161 -399t-479 -135q-47 0 -145 4v-230h-326v1480zM850 538q77 68 77 220q0 153 -77 223t-239 70q-81 0 -152 -12v-561q78 -8 146 -8q168 0 245 68z" />
    <glyph glyph-name="germandbls" unicode="&#xdf;" horiz-adv-x="1571" 
d="M1449 544.5q72 -73.5 72 -213.5q0 -109 -58.5 -188t-172.5 -121.5t-277 -42.5q-81 0 -168.5 11t-163.5 31v233q74 -20 161.5 -31t166.5 -11q117 0 166 27t49 81q0 40 -22.5 61.5t-76.5 32.5l-177 32q-153 28 -224.5 105.5t-71.5 209.5q0 106 56 182.5t167.5 117.5
t273.5 41h6q1 11 1 32q0 146 -79 213.5t-219 67.5q-169 0 -252 -91t-83 -282v-1042h-320v837h-178v257h180q10 172 88 293.5t215.5 185t325.5 63.5q166 0 289 -56.5t192 -174.5t69 -296q0 -108 -34 -239q-67 9 -156 9q-136 0 -190 -30t-54 -80q0 -36 22.5 -58t75.5 -32
l177 -32q152 -29 224 -102.5z" />
    <glyph glyph-name="agrave" unicode="&#xe0;" horiz-adv-x="1119" 
d="M793 1067q110 -44 163 -144.5t53 -272.5v-650h-264l-22 108h-15q-48 -65 -123 -96.5t-167 -31.5q-110 0 -190 39.5t-122.5 111t-42.5 166.5q0 157 109.5 243t345.5 101l178 15v14q0 76 -24.5 119t-78 61.5t-146.5 18.5q-67 0 -146.5 -11t-150.5 -33v240q78 22 173 34
t181 12q179 0 289 -44zM615 218.5q45 16.5 81 52.5v205l-146 -11q-90 -7 -131 -41.5t-41 -96.5q0 -61 37 -93t108 -32q47 0 92 16.5zM409 1233l-271 383h340l224 -383h-293z" />
    <glyph glyph-name="aacute" unicode="&#xe1;" horiz-adv-x="1119" 
d="M793 1067q110 -44 163 -144.5t53 -272.5v-650h-264l-22 108h-15q-48 -65 -123 -96.5t-167 -31.5q-110 0 -190 39.5t-122.5 111t-42.5 166.5q0 157 109.5 243t345.5 101l178 15v14q0 76 -24.5 119t-78 61.5t-146.5 18.5q-67 0 -146.5 -11t-150.5 -33v240q78 22 173 34
t181 12q179 0 289 -44zM615 218.5q45 16.5 81 52.5v205l-146 -11q-90 -7 -131 -41.5t-41 -96.5q0 -61 37 -93t108 -32q47 0 92 16.5zM409 1233l225 383h340l-272 -383h-293z" />
    <glyph glyph-name="acircumflex" unicode="&#xe2;" horiz-adv-x="1119" 
d="M793 1067q110 -44 163 -144.5t53 -272.5v-650h-264l-22 108h-15q-48 -65 -123 -96.5t-167 -31.5q-110 0 -190 39.5t-122.5 111t-42.5 166.5q0 157 109.5 243t345.5 101l178 15v14q0 76 -24.5 119t-78 61.5t-146.5 18.5q-67 0 -146.5 -11t-150.5 -33v240q78 22 173 34
t181 12q179 0 289 -44zM615 218.5q45 16.5 81 52.5v205l-146 -11q-90 -7 -131 -41.5t-41 -96.5q0 -61 37 -93t108 -32q47 0 92 16.5zM920 1233h-230l-134 233l-135 -233h-229l233 383h262z" />
    <glyph glyph-name="atilde" unicode="&#xe3;" horiz-adv-x="1119" 
d="M793 1067q110 -44 163 -144.5t53 -272.5v-650h-264l-22 108h-15q-48 -65 -123 -96.5t-167 -31.5q-110 0 -190 39.5t-122.5 111t-42.5 166.5q0 157 109.5 243t345.5 101l178 15v14q0 76 -24.5 119t-78 61.5t-146.5 18.5q-67 0 -146.5 -11t-150.5 -33v240q78 22 173 34
t181 12q179 0 289 -44zM615 218.5q45 16.5 81 52.5v205l-146 -11q-90 -7 -131 -41.5t-41 -96.5q0 -61 37 -93t108 -32q47 0 92 16.5zM631.5 1297.5q-39.5 12.5 -93.5 36.5q-48 22 -80 32.5t-65 10.5q-56 0 -101 -20t-91 -65v200q39 40 87 58.5t110 18.5q43 0 82.5 -12.5
t93.5 -36.5q48 -22 80 -32.5t65 -10.5q56 0 101 20t91 65v-200q-39 -40 -87 -58.5t-110 -18.5q-43 0 -82.5 12.5z" />
    <glyph glyph-name="adieresis" unicode="&#xe4;" horiz-adv-x="1119" 
d="M793 1067q110 -44 163 -144.5t53 -272.5v-650h-264l-22 108h-15q-48 -65 -123 -96.5t-167 -31.5q-110 0 -190 39.5t-122.5 111t-42.5 166.5q0 157 109.5 243t345.5 101l178 15v14q0 76 -24.5 119t-78 61.5t-146.5 18.5q-67 0 -146.5 -11t-150.5 -33v240q78 22 173 34
t181 12q179 0 289 -44zM615 218.5q45 16.5 81 52.5v205l-146 -11q-90 -7 -131 -41.5t-41 -96.5q0 -61 37 -93t108 -32q47 0 92 16.5zM184 1300.5q-45 42.5 -45 118.5t45 119t128 43t127.5 -43t44.5 -119t-45 -118.5t-127 -42.5q-83 0 -128 42.5zM673 1300.5
q-45 42.5 -45 118.5t44.5 119t127.5 43t128 -43t45 -119t-45 -118.5t-128 -42.5q-82 0 -127 42.5z" />
    <glyph glyph-name="aring" unicode="&#xe5;" horiz-adv-x="1119" 
d="M793 1067q110 -44 163 -144.5t53 -272.5v-650h-264l-22 108h-15q-48 -65 -123 -96.5t-167 -31.5q-110 0 -190 39.5t-122.5 111t-42.5 166.5q0 157 109.5 243t345.5 101l178 15v14q0 76 -24.5 119t-78 61.5t-146.5 18.5q-67 0 -146.5 -11t-150.5 -33v240q78 22 173 34
t181 12q179 0 289 -44zM615 218.5q45 16.5 81 52.5v205l-146 -11q-90 -7 -131 -41.5t-41 -96.5q0 -61 37 -93t108 -32q47 0 92 16.5zM446 1255q-49 27 -77 74.5t-28 107.5t28 107.5t77 74.5t110 27t110 -27t77 -74.5t28 -107.5t-28 -107.5t-77 -74.5t-110 -27t-110 27z
M623.5 1366q25.5 26 25.5 71t-25.5 71t-67.5 26t-67.5 -26t-25.5 -71t25.5 -71t67.5 -26t67.5 26z" />
    <glyph glyph-name="ae" unicode="&#xe6;" horiz-adv-x="1722" 
d="M1665 454h-655q5 -88 37 -138.5t99.5 -73t183.5 -22.5q124 0 274 35v-239q-159 -37 -318 -37q-167 0 -283 39t-187 121q-144 -159 -369 -159q-124 0 -210 39t-130 111t-44 169q0 160 114 250t352 90h170v30q0 76 -26 119.5t-80.5 62t-146.5 18.5q-66 0 -145.5 -11.5
t-149.5 -32.5v240q164 46 340 46q140 0 234.5 -32.5t150.5 -101.5q60 66 144 100.5t188 34.5q144 0 246.5 -65t156.5 -193.5t54 -315.5v-84zM1056.5 847.5q-44.5 -61.5 -47.5 -208.5h359q-3 147 -46.5 208.5t-131.5 61.5q-89 0 -133.5 -61.5zM635 224.5q51 21.5 97 72.5
q-22 72 -30 164h-143q-181 0 -181 -136q0 -59 38 -90.5t110 -31.5q58 0 109 21.5z" />
    <glyph glyph-name="ccedilla" unicode="&#xe7;" horiz-adv-x="963" 
d="M534.5 823q-69.5 -31 -102.5 -98.5t-33 -176.5q0 -165 71 -238t218 -73q51 0 104 8.5t124 27.5v-253q-60 -20 -131 -30.5t-145 -10.5v-67q80 -13 121.5 -58t41.5 -116q0 -85 -64.5 -132.5t-189.5 -47.5q-102 0 -181 31v124q38 -16 82.5 -24t83.5 -8q51 0 76 16.5t25 53.5
q0 73 -102 73h-46v167q-205 35 -311.5 173.5t-106.5 380.5q0 285 154.5 425.5t447.5 140.5q136 0 245 -25v-253q-105 21 -201 21q-111 0 -180.5 -31z" />
    <glyph glyph-name="egrave" unicode="&#xe8;" horiz-adv-x="1110" 
d="M1053 454h-664q5 -88 37.5 -138.5t101.5 -73t188 -22.5q125 0 276 35v-239q-160 -37 -321 -37q-209 0 -341.5 59.5t-196.5 184.5t-64 325q0 180 59.5 306.5t173.5 191.5t276 65q232 0 353.5 -146.5t121.5 -426.5v-84zM437 847q-46 -62 -49 -208h367q-3 147 -47 208.5
t-134 61.5q-91 0 -137 -62zM425 1233l-271 383h340l224 -383h-293z" />
    <glyph glyph-name="eacute" unicode="&#xe9;" horiz-adv-x="1110" 
d="M1053 454h-664q5 -88 37.5 -138.5t101.5 -73t188 -22.5q125 0 276 35v-239q-160 -37 -321 -37q-209 0 -341.5 59.5t-196.5 184.5t-64 325q0 180 59.5 306.5t173.5 191.5t276 65q232 0 353.5 -146.5t121.5 -426.5v-84zM437 847q-46 -62 -49 -208h367q-3 147 -47 208.5
t-134 61.5q-91 0 -137 -62zM425 1233l225 383h340l-272 -383h-293z" />
    <glyph glyph-name="ecircumflex" unicode="&#xea;" horiz-adv-x="1110" 
d="M1053 454h-664q5 -88 37.5 -138.5t101.5 -73t188 -22.5q125 0 276 35v-239q-160 -37 -321 -37q-209 0 -341.5 59.5t-196.5 184.5t-64 325q0 180 59.5 306.5t173.5 191.5t276 65q232 0 353.5 -146.5t121.5 -426.5v-84zM437 847q-46 -62 -49 -208h367q-3 147 -47 208.5
t-134 61.5q-91 0 -137 -62zM936 1233h-230l-134 233l-135 -233h-229l233 383h262z" />
    <glyph glyph-name="edieresis" unicode="&#xeb;" horiz-adv-x="1110" 
d="M1053 454h-664q5 -88 37.5 -138.5t101.5 -73t188 -22.5q125 0 276 35v-239q-160 -37 -321 -37q-209 0 -341.5 59.5t-196.5 184.5t-64 325q0 180 59.5 306.5t173.5 191.5t276 65q232 0 353.5 -146.5t121.5 -426.5v-84zM437 847q-46 -62 -49 -208h367q-3 147 -47 208.5
t-134 61.5q-91 0 -137 -62zM200 1300.5q-45 42.5 -45 118.5t45 119t128 43t127.5 -43t44.5 -119t-45 -118.5t-127 -42.5q-83 0 -128 42.5zM689 1300.5q-45 42.5 -45 118.5t44.5 119t127.5 43t128 -43t45 -119t-45 -118.5t-128 -42.5q-82 0 -127 42.5z" />
    <glyph glyph-name="igrave" unicode="&#xec;" horiz-adv-x="558" 
d="M119 0v1094h320v-1094h-320zM132 1233l-271 383h340l224 -383h-293z" />
    <glyph glyph-name="iacute" unicode="&#xed;" horiz-adv-x="558" 
d="M119 0v1094h320v-1094h-320zM132 1233l225 383h340l-272 -383h-293z" />
    <glyph glyph-name="icircumflex" unicode="&#xee;" horiz-adv-x="558" 
d="M119 0v1094h320v-1094h-320zM643 1233h-230l-134 233l-135 -233h-229l233 383h262z" />
    <glyph glyph-name="idieresis" unicode="&#xef;" horiz-adv-x="558" 
d="M119 0v1094h320v-1094h-320zM-93 1300.5q-45 42.5 -45 118.5t45 119t128 43t127.5 -43t44.5 -119t-45 -118.5t-127 -42.5q-83 0 -128 42.5zM396 1300.5q-45 42.5 -45 118.5t44.5 119t127.5 43t128 -43t45 -119t-45 -118.5t-128 -42.5q-82 0 -127 42.5z" />
    <glyph glyph-name="eth" unicode="&#xf0;" horiz-adv-x="1206" 
d="M1076 968.5q62 -182.5 62 -358.5q0 -321 -138 -476.5t-397 -155.5q-167 0 -286.5 63.5t-183.5 190t-64 312.5q0 187 62.5 312.5t176 186.5t266.5 61q78 0 144 -26q-46 94 -110 180l-422 -75l-34 174l324 58q-104 107 -233 201h379q86 -64 160 -146l291 52l34 -175
l-201 -36q108 -160 170 -342.5zM762 294q53 74 53 247q0 122 -24.5 194t-71 102.5t-116.5 30.5q-106 0 -159 -73t-53 -250q0 -121 24 -192.5t70.5 -102t117.5 -30.5q106 0 159 74z" />
    <glyph glyph-name="ntilde" unicode="&#xf1;" horiz-adv-x="1223" 
d="M119 1094h263l22 -111h15q60 62 142 95t179 33q173 0 273 -104t100 -326v-681h-320v662q0 95 -39 134.5t-115 39.5q-57 0 -111 -23t-89 -67v-746h-320v1094zM692.5 1297.5q-39.5 12.5 -93.5 36.5q-48 22 -80 32.5t-65 10.5q-56 0 -101 -20t-91 -65v200q39 40 87 58.5
t110 18.5q43 0 82.5 -12.5t93.5 -36.5q48 -22 80 -32.5t65 -10.5q56 0 101 20t91 65v-200q-39 -40 -87 -58.5t-110 -18.5q-43 0 -82.5 12.5z" />
    <glyph glyph-name="ograve" unicode="&#xf2;" horiz-adv-x="1206" 
d="M317.5 42q-119.5 63 -184 189.5t-64.5 312.5q0 282 139 424.5t395 142.5q255 0 394.5 -143t139.5 -422q0 -187 -64.5 -314t-184 -190t-285.5 -63t-285.5 63zM720 252q46 30 70.5 100.5t24.5 190.5q0 122 -24.5 194t-71 102t-116.5 30t-116.5 -30t-71 -100.5t-24.5 -191.5
q0 -122 24.5 -193.5t70.5 -101.5t117 -30t117 30zM456 1233l-271 383h340l224 -383h-293z" />
    <glyph glyph-name="oacute" unicode="&#xf3;" horiz-adv-x="1206" 
d="M317.5 42q-119.5 63 -184 189.5t-64.5 312.5q0 282 139 424.5t395 142.5q255 0 394.5 -143t139.5 -422q0 -187 -64.5 -314t-184 -190t-285.5 -63t-285.5 63zM720 252q46 30 70.5 100.5t24.5 190.5q0 122 -24.5 194t-71 102t-116.5 30t-116.5 -30t-71 -100.5t-24.5 -191.5
q0 -122 24.5 -193.5t70.5 -101.5t117 -30t117 30zM456 1233l225 383h340l-272 -383h-293z" />
    <glyph glyph-name="ocircumflex" unicode="&#xf4;" horiz-adv-x="1206" 
d="M317.5 42q-119.5 63 -184 189.5t-64.5 312.5q0 282 139 424.5t395 142.5q255 0 394.5 -143t139.5 -422q0 -187 -64.5 -314t-184 -190t-285.5 -63t-285.5 63zM720 252q46 30 70.5 100.5t24.5 190.5q0 122 -24.5 194t-71 102t-116.5 30t-116.5 -30t-71 -100.5t-24.5 -191.5
q0 -122 24.5 -193.5t70.5 -101.5t117 -30t117 30zM967 1233h-230l-134 233l-135 -233h-229l233 383h262z" />
    <glyph glyph-name="otilde" unicode="&#xf5;" horiz-adv-x="1206" 
d="M317.5 42q-119.5 63 -184 189.5t-64.5 312.5q0 282 139 424.5t395 142.5q255 0 394.5 -143t139.5 -422q0 -187 -64.5 -314t-184 -190t-285.5 -63t-285.5 63zM720 252q46 30 70.5 100.5t24.5 190.5q0 122 -24.5 194t-71 102t-116.5 30t-116.5 -30t-71 -100.5t-24.5 -191.5
q0 -122 24.5 -193.5t70.5 -101.5t117 -30t117 30zM678.5 1297.5q-39.5 12.5 -93.5 36.5q-48 22 -80 32.5t-65 10.5q-56 0 -101 -20t-91 -65v200q39 40 87 58.5t110 18.5q43 0 82.5 -12.5t93.5 -36.5q48 -22 80 -32.5t65 -10.5q56 0 101 20t91 65v-200q-39 -40 -87 -58.5
t-110 -18.5q-43 0 -82.5 12.5z" />
    <glyph glyph-name="odieresis" unicode="&#xf6;" horiz-adv-x="1206" 
d="M317.5 42q-119.5 63 -184 189.5t-64.5 312.5q0 282 139 424.5t395 142.5q255 0 394.5 -143t139.5 -422q0 -187 -64.5 -314t-184 -190t-285.5 -63t-285.5 63zM720 252q46 30 70.5 100.5t24.5 190.5q0 122 -24.5 194t-71 102t-116.5 30t-116.5 -30t-71 -100.5t-24.5 -191.5
q0 -122 24.5 -193.5t70.5 -101.5t117 -30t117 30zM231 1300.5q-45 42.5 -45 118.5t45 119t128 43t127.5 -43t44.5 -119t-45 -118.5t-127 -42.5q-83 0 -128 42.5zM720 1300.5q-45 42.5 -45 118.5t44.5 119t127.5 43t128 -43t45 -119t-45 -118.5t-128 -42.5q-82 0 -127 42.5z
" />
    <glyph glyph-name="divide" unicode="&#xf7;" horiz-adv-x="1101" 
d="M412.5 1036.5q-51.5 47.5 -51.5 128.5q0 82 51 129.5t139 47.5q87 0 138 -48.5t51 -128.5t-52 -128t-137 -48q-87 0 -138.5 47.5zM117 638v244h867v-244h-867zM412.5 225.5q-51.5 47.5 -51.5 128.5q0 82 50.5 129.5t139.5 47.5q87 0 138 -48t51 -129q0 -80 -52 -128
t-137 -48q-87 0 -138.5 47.5z" />
    <glyph glyph-name="oslash" unicode="&#xf8;" horiz-adv-x="1206" 
d="M1137 546q0 -187 -64.5 -314t-184 -190t-285.5 -63q-157 0 -271 55l-68 -93l-130 97l68 93q-133 145 -133 413q0 282 139 424.5t395 142.5q157 0 267 -53l69 95l130 -97l-68 -92q136 -145 136 -418zM481.5 842.5q-48.5 -30.5 -74 -102t-25.5 -193.5q0 -99 17 -167
l330 459q-48 34 -126 34q-73 0 -121.5 -30.5zM724.5 248.5q48.5 30.5 74 102t25.5 192.5q0 107 -19 173l-331 -462q47 -36 129 -36q73 0 121.5 30.5z" />
    <glyph glyph-name="ugrave" unicode="&#xf9;" horiz-adv-x="1214" 
d="M211.5 84.5q-101.5 103.5 -101.5 325.5v684h320v-663q0 -94 38.5 -134t110.5 -40q53 0 107 23t90 66v748h320v-1094h-264l-22 110h-13q-63 -64 -141.5 -96.5t-167.5 -32.5q-175 0 -276.5 103.5zM456 1233l-271 383h340l224 -383h-293z" />
    <glyph glyph-name="uacute" unicode="&#xfa;" horiz-adv-x="1214" 
d="M211.5 84.5q-101.5 103.5 -101.5 325.5v684h320v-663q0 -94 38.5 -134t110.5 -40q53 0 107 23t90 66v748h320v-1094h-264l-22 110h-13q-63 -64 -141.5 -96.5t-167.5 -32.5q-175 0 -276.5 103.5zM456 1233l225 383h340l-272 -383h-293z" />
    <glyph glyph-name="ucircumflex" unicode="&#xfb;" horiz-adv-x="1214" 
d="M211.5 84.5q-101.5 103.5 -101.5 325.5v684h320v-663q0 -94 38.5 -134t110.5 -40q53 0 107 23t90 66v748h320v-1094h-264l-22 110h-13q-63 -64 -141.5 -96.5t-167.5 -32.5q-175 0 -276.5 103.5zM967 1233h-230l-134 233l-135 -233h-229l233 383h262z" />
    <glyph glyph-name="udieresis" unicode="&#xfc;" horiz-adv-x="1214" 
d="M211.5 84.5q-101.5 103.5 -101.5 325.5v684h320v-663q0 -94 38.5 -134t110.5 -40q53 0 107 23t90 66v748h320v-1094h-264l-22 110h-13q-63 -64 -141.5 -96.5t-167.5 -32.5q-175 0 -276.5 103.5zM231 1300.5q-45 42.5 -45 118.5t45 119t128 43t127.5 -43t44.5 -119
t-45 -118.5t-127 -42.5q-83 0 -128 42.5zM720 1300.5q-45 42.5 -45 118.5t44.5 119t127.5 43t128 -43t45 -119t-45 -118.5t-128 -42.5q-82 0 -127 42.5z" />
    <glyph glyph-name="yacute" unicode="&#xfd;" horiz-adv-x="1167" 
d="M854 1094h315l-541 -1534h-314l157 440h-88l-384 1094h334l258 -811zM437 1233l225 383h340l-272 -383h-293z" />
    <glyph glyph-name="thorn" unicode="&#xfe;" horiz-adv-x="1231" 
d="M119 1616h320v-628h15q49 59 121 91t162 32q119 0 215 -58t153 -180t57 -305q0 -287 -152.5 -437.5t-443.5 -150.5q-53 0 -127 8v-428h-320v2056zM772.5 298.5q67.5 75.5 67.5 244.5t-57.5 238t-165.5 69q-51 0 -98.5 -18t-79.5 -53v-544q58 -12 126 -12
q140 0 207.5 75.5z" />
    <glyph glyph-name="ydieresis" unicode="&#xff;" horiz-adv-x="1167" 
d="M854 1094h315l-541 -1534h-314l157 440h-88l-384 1094h334l258 -811zM212 1300.5q-45 42.5 -45 118.5t45 119t128 43t127.5 -43t44.5 -119t-45 -118.5t-127 -42.5q-83 0 -128 42.5zM701 1300.5q-45 42.5 -45 118.5t44.5 119t127.5 43t128 -43t45 -119t-45 -118.5
t-128 -42.5q-82 0 -127 42.5z" />
    <glyph glyph-name="Amacron" unicode="&#x100;" horiz-adv-x="1460" 
d="M1125 0l-122 395h-549l-122 -395h-318l478 1480h476l478 -1480h-321zM533 654h390l-195 631zM361 1651v192h736v-192h-736z" />
    <glyph glyph-name="amacron" unicode="&#x101;" horiz-adv-x="1119" 
d="M793 1067q110 -44 163 -144.5t53 -272.5v-650h-264l-22 108h-15q-48 -65 -123 -96.5t-167 -31.5q-110 0 -190 39.5t-122.5 111t-42.5 166.5q0 157 109.5 243t345.5 101l178 15v14q0 76 -24.5 119t-78 61.5t-146.5 18.5q-67 0 -146.5 -11t-150.5 -33v240q78 22 173 34
t181 12q179 0 289 -44zM615 218.5q45 16.5 81 52.5v205l-146 -11q-90 -7 -131 -41.5t-41 -96.5q0 -61 37 -93t108 -32q47 0 92 16.5zM201 1324v192h710v-192h-710z" />
    <glyph glyph-name="Abreve" unicode="&#x102;" horiz-adv-x="1460" 
d="M1125 0l-122 395h-549l-122 -395h-318l478 1480h476l478 -1480h-321zM533 654h390l-195 631zM459 1676q-97 77 -113 213h196q12 -68 56.5 -101t131.5 -33q86 0 130 33t56 101h196q-16 -136 -112.5 -213t-269.5 -77q-174 0 -271 77z" />
    <glyph glyph-name="abreve" unicode="&#x103;" horiz-adv-x="1119" 
d="M793 1067q110 -44 163 -144.5t53 -272.5v-650h-264l-22 108h-15q-48 -65 -123 -96.5t-167 -31.5q-110 0 -190 39.5t-122.5 111t-42.5 166.5q0 157 109.5 243t345.5 101l178 15v14q0 76 -24.5 119t-78 61.5t-146.5 18.5q-67 0 -146.5 -11t-150.5 -33v240q78 22 173 34
t181 12q179 0 289 -44zM615 218.5q45 16.5 81 52.5v205l-146 -11q-90 -7 -131 -41.5t-41 -96.5q0 -61 37 -93t108 -32q47 0 92 16.5zM295.5 1332.5q-94.5 90.5 -103.5 261.5h194q7 -95 49 -142t122 -47q79 0 120.5 46.5t48.5 142.5h194q-9 -172 -103 -262t-260 -90
q-167 0 -261.5 90.5z" />
    <glyph glyph-name="Aogonek" unicode="&#x104;" horiz-adv-x="1460" 
d="M1499 -284v-125q-86 -33 -185 -33q-139 0 -210 55t-71 153q0 70 37.5 128t122.5 106h-68l-122 395h-549l-122 -395h-318l478 1480h476l478 -1480q-128 -50 -179 -100.5t-51 -111.5q0 -102 141 -102q64 0 142 30zM533 654h390l-195 631z" />
    <glyph glyph-name="aogonek" unicode="&#x105;" horiz-adv-x="1119" 
d="M1048 -283v-126q-79 -33 -171 -33q-127 0 -194 55.5t-67 152.5q0 70 35 128t115 106h-21l-22 108h-15q-48 -65 -123 -96.5t-167 -31.5q-110 0 -190 39.5t-122.5 111t-42.5 166.5q0 157 109.5 243t345.5 101l178 15v14q0 76 -24.5 119t-78 61.5t-146.5 18.5
q-67 0 -146.5 -11t-150.5 -33v240q78 22 173 34t181 12q179 0 289 -44t163 -144.5t53 -272.5v-650q-116 -49 -163 -100.5t-47 -113.5q0 -47 31 -73.5t90 -26.5q62 0 128 31zM615 218.5q45 16.5 81 52.5v205l-146 -11q-90 -7 -131 -41.5t-41 -96.5q0 -61 37 -93t108 -32
q47 0 92 16.5z" />
    <glyph glyph-name="Cacute" unicode="&#x106;" horiz-adv-x="1238" 
d="M280 164.5q-197 183.5 -197 572.5q0 378 203 570t587 192q171 0 317 -35v-268q-145 34 -292 34q-162 0 -266 -50t-155.5 -157.5t-51.5 -281.5q0 -178 51 -286t152 -156.5t259 -48.5q142 0 303 47v-269q-72 -22 -158.5 -34.5t-174.5 -12.5q-380 0 -577 183.5zM606 1595
l180 303h337l-228 -303h-289z" />
    <glyph glyph-name="cacute" unicode="&#x107;" horiz-adv-x="963" 
d="M214.5 120.5q-145.5 141.5 -145.5 424.5q0 285 154.5 425.5t447.5 140.5q136 0 245 -25v-253q-105 21 -201 21q-111 0 -180.5 -31t-102.5 -98.5t-33 -176.5q0 -165 71 -238t218 -73q51 0 104 8.5t124 27.5v-253q-126 -41 -278 -41q-278 0 -423.5 141.5zM391 1233l225 383
h340l-272 -383h-293z" />
    <glyph glyph-name="Ccircumflex" unicode="&#x108;" horiz-adv-x="1238" 
d="M280 164.5q-197 183.5 -197 572.5q0 378 203 570t587 192q171 0 317 -35v-268q-145 34 -292 34q-162 0 -266 -50t-155.5 -157.5t-51.5 -281.5q0 -178 51 -286t152 -156.5t259 -48.5q142 0 303 47v-269q-72 -22 -158.5 -34.5t-174.5 -12.5q-380 0 -577 183.5zM1144 1595
h-243l-149 185l-149 -185h-243l256 303h272z" />
    <glyph glyph-name="ccircumflex" unicode="&#x109;" horiz-adv-x="963" 
d="M214.5 120.5q-145.5 141.5 -145.5 424.5q0 285 154.5 425.5t447.5 140.5q136 0 245 -25v-253q-105 21 -201 21q-111 0 -180.5 -31t-102.5 -98.5t-33 -176.5q0 -165 71 -238t218 -73q51 0 104 8.5t124 27.5v-253q-126 -41 -278 -41q-278 0 -423.5 141.5zM902 1233h-230
l-134 233l-135 -233h-229l233 383h262z" />
    <glyph glyph-name="Cdotaccent" unicode="&#x10a;" horiz-adv-x="1238" 
d="M280 164.5q-197 183.5 -197 572.5q0 378 203 570t587 192q171 0 317 -35v-268q-145 34 -292 34q-162 0 -266 -50t-155.5 -157.5t-51.5 -281.5q0 -178 51 -286t152 -156.5t259 -48.5q142 0 303 47v-269q-72 -22 -158.5 -34.5t-174.5 -12.5q-380 0 -577 183.5zM606 1643.5
q-50 37.5 -50 107.5q0 69 50 107t146 38t146 -38t50 -107q0 -70 -50 -107.5t-146 -37.5t-146 37.5z" />
    <glyph glyph-name="cdotaccent" unicode="&#x10b;" horiz-adv-x="963" 
d="M214.5 120.5q-145.5 141.5 -145.5 424.5q0 285 154.5 425.5t447.5 140.5q136 0 245 -25v-253q-105 21 -201 21q-111 0 -180.5 -31t-102.5 -98.5t-33 -176.5q0 -165 71 -238t218 -73q51 0 104 8.5t124 27.5v-253q-126 -41 -278 -41q-278 0 -423.5 141.5zM389.5 1296
q-49.5 43 -49.5 123q0 81 49 124t149 43q99 0 148 -43t49 -124q0 -80 -49 -123t-148 -43t-148.5 43z" />
    <glyph glyph-name="Ccaron" unicode="&#x10c;" horiz-adv-x="1238" 
d="M280 164.5q-197 183.5 -197 572.5q0 378 203 570t587 192q171 0 317 -35v-268q-145 34 -292 34q-162 0 -266 -50t-155.5 -157.5t-51.5 -281.5q0 -178 51 -286t152 -156.5t259 -48.5q142 0 303 47v-269q-72 -22 -158.5 -34.5t-174.5 -12.5q-380 0 -577 183.5zM901 1898
h243l-256 -303h-272l-256 303h243l149 -185z" />
    <glyph glyph-name="ccaron" unicode="&#x10d;" horiz-adv-x="963" 
d="M214.5 120.5q-145.5 141.5 -145.5 424.5q0 285 154.5 425.5t447.5 140.5q136 0 245 -25v-253q-105 21 -201 21q-111 0 -180.5 -31t-102.5 -98.5t-33 -176.5q0 -165 71 -238t218 -73q51 0 104 8.5t124 27.5v-253q-126 -41 -278 -41q-278 0 -423.5 141.5zM674 1616h229
l-234 -383h-262l-234 383h229l136 -234z" />
    <glyph glyph-name="Dcaron" unicode="&#x10e;" horiz-adv-x="1501" 
d="M133 9v1438q104 23 228.5 36t241.5 13q407 0 611 -185.5t204 -570.5q0 -264 -97 -431t-291 -245.5t-492 -78.5q-212 0 -405 24zM882 299q101 49 151 157t50 285q0 175 -50.5 283.5t-151.5 158.5t-256 50q-79 0 -166 -15v-961q64 -7 164 -7q158 0 259 49zM819 1898h243
l-256 -303h-272l-256 303h243l149 -185z" />
    <glyph glyph-name="dcaron" unicode="&#x10f;" horiz-adv-x="1231" 
d="M290 38q-101 57 -161 178.5t-60 307.5q0 287 152.5 437.5t443.5 150.5q68 0 127 -8v512h320v-1616h-268l-20 114h-15q-48 -62 -122.5 -97.5t-168.5 -35.5q-127 0 -228 57zM712 260.5q48 18.5 80 55.5v541q-58 12 -126 12q-140 0 -207.5 -75.5t-67.5 -244.5t57 -238
t164 -69q52 0 100 18.5zM1204.5 1392q6.5 104 6.5 224h213q0 -119 -18 -232.5t-51 -203.5h-173q16 108 22.5 212z" />
    <glyph glyph-name="Dcroat" unicode="&#x110;" horiz-adv-x="1501" 
d="M1214 1310.5q204 -185.5 204 -570.5q0 -264 -97 -431t-291 -245.5t-492 -78.5q-212 0 -405 24v649h-129v208h129v581q104 23 228.5 36t241.5 13q407 0 611 -185.5zM882 299q101 49 151 157t50 285q0 175 -50.5 283.5t-151.5 158.5t-256 50q-79 0 -166 -15v-352h273v-208
h-273v-401q64 -7 164 -7q158 0 259 49z" />
    <glyph glyph-name="dcroat" unicode="&#x111;" horiz-adv-x="1231" 
d="M1227 1254h-115v-1254h-268l-20 114h-15q-48 -62 -122.5 -97.5t-168.5 -35.5q-127 0 -228 57t-161 178.5t-60 307.5q0 287 152.5 437.5t443.5 150.5q68 0 127 -8v150h-338v200h338v162h320v-162h115v-200zM792 857q-58 12 -126 12q-140 0 -207.5 -75.5t-67.5 -244.5
t57 -238t164 -69q52 0 100 18.5t80 55.5v541z" />
    <glyph glyph-name="Emacron" unicode="&#x112;" 
d="M455 260h729v-260h-1051v1480h1041v-260h-719v-333h617v-260h-617v-367zM307 1651v192h736v-192h-736z" />
    <glyph glyph-name="emacron" unicode="&#x113;" horiz-adv-x="1110" 
d="M1053 454h-664q5 -88 37.5 -138.5t101.5 -73t188 -22.5q125 0 276 35v-239q-160 -37 -321 -37q-209 0 -341.5 59.5t-196.5 184.5t-64 325q0 180 59.5 306.5t173.5 191.5t276 65q232 0 353.5 -146.5t121.5 -426.5v-84zM437 847q-46 -62 -49 -208h367q-3 147 -47 208.5
t-134 61.5q-91 0 -137 -62zM217 1324v192h710v-192h-710z" />
    <glyph glyph-name="Ebreve" unicode="&#x114;" 
d="M455 260h729v-260h-1051v1480h1041v-260h-719v-333h617v-260h-617v-367zM405 1676q-97 77 -113 213h196q12 -68 56.5 -101t131.5 -33q86 0 130 33t56 101h196q-16 -136 -112.5 -213t-269.5 -77q-174 0 -271 77z" />
    <glyph glyph-name="ebreve" unicode="&#x115;" horiz-adv-x="1110" 
d="M1053 454h-664q5 -88 37.5 -138.5t101.5 -73t188 -22.5q125 0 276 35v-239q-160 -37 -321 -37q-209 0 -341.5 59.5t-196.5 184.5t-64 325q0 180 59.5 306.5t173.5 191.5t276 65q232 0 353.5 -146.5t121.5 -426.5v-84zM437 847q-46 -62 -49 -208h367q-3 147 -47 208.5
t-134 61.5q-91 0 -137 -62zM311.5 1332.5q-94.5 90.5 -103.5 261.5h194q7 -95 49 -142t122 -47q79 0 120.5 46.5t48.5 142.5h194q-9 -172 -103 -262t-260 -90q-167 0 -261.5 90.5z" />
    <glyph glyph-name="Edotaccent" unicode="&#x116;" 
d="M455 260h729v-260h-1051v1480h1041v-260h-719v-333h617v-260h-617v-367zM529 1643.5q-50 37.5 -50 107.5q0 69 50 107t146 38t146 -38t50 -107q0 -70 -50 -107.5t-146 -37.5t-146 37.5z" />
    <glyph glyph-name="edotaccent" unicode="&#x117;" horiz-adv-x="1110" 
d="M1053 454h-664q5 -88 37.5 -138.5t101.5 -73t188 -22.5q125 0 276 35v-239q-160 -37 -321 -37q-209 0 -341.5 59.5t-196.5 184.5t-64 325q0 180 59.5 306.5t173.5 191.5t276 65q232 0 353.5 -146.5t121.5 -426.5v-84zM437 847q-46 -62 -49 -208h367q-3 147 -47 208.5
t-134 61.5q-91 0 -137 -62zM423.5 1296q-49.5 43 -49.5 123q0 81 49 124t149 43q99 0 148 -43t49 -124q0 -80 -49 -123t-148 -43t-148.5 43z" />
    <glyph glyph-name="Eogonek" unicode="&#x118;" 
d="M917 -100.5q-51 -50.5 -51 -111.5q0 -102 141 -102q64 0 142 30v-125q-86 -33 -185 -33q-139 0 -210 55t-71 153q0 70 37.5 128t122.5 106h-710v1480h1041v-260h-719v-333h617v-260h-617v-367h729v-260h-88q-128 -50 -179 -100.5z" />
    <glyph glyph-name="eogonek" unicode="&#x119;" horiz-adv-x="1110" 
d="M1053 454h-664q5 -88 37.5 -138.5t101.5 -73t188 -22.5q125 0 276 35v-239q-139 -49 -194 -106t-55 -123q0 -48 31 -74.5t90 -26.5q62 0 128 31v-126q-79 -33 -171 -33q-127 0 -194.5 55.5t-67.5 152.5q0 63 28.5 116.5t91.5 96.5h-8q-209 0 -341.5 59.5t-196.5 184.5
t-64 325q0 180 59.5 306.5t173.5 191.5t276 65q232 0 353.5 -146.5t121.5 -426.5v-84zM437 840q-46 -62 -49 -208h367q-3 147 -47 208.5t-134 61.5q-91 0 -137 -62z" />
    <glyph glyph-name="Ecaron" unicode="&#x11a;" 
d="M455 260h729v-260h-1051v1480h1041v-260h-719v-333h617v-260h-617v-367zM824 1898h243l-256 -303h-272l-256 303h243l149 -185z" />
    <glyph glyph-name="ecaron" unicode="&#x11b;" horiz-adv-x="1110" 
d="M1053 454h-664q5 -88 37.5 -138.5t101.5 -73t188 -22.5q125 0 276 35v-239q-160 -37 -321 -37q-209 0 -341.5 59.5t-196.5 184.5t-64 325q0 180 59.5 306.5t173.5 191.5t276 65q232 0 353.5 -146.5t121.5 -426.5v-84zM437 847q-46 -62 -49 -208h367q-3 147 -47 208.5
t-134 61.5q-91 0 -137 -62zM708 1616h229l-234 -383h-262l-234 383h229l136 -234z" />
    <glyph glyph-name="Gcircumflex" unicode="&#x11c;" horiz-adv-x="1426" 
d="M1299 720v-704q-200 -33 -369 -33q-425 0 -635.5 185t-211.5 568q0 379 215 571t626 192q175 0 333 -37v-268q-156 36 -304 36q-184 -1 -300 -51t-172.5 -159.5t-56.5 -287.5q0 -250 118 -365.5t363 -115.5q31 0 91 2v467h303zM1197 1595h-243l-149 185l-149 -185h-243
l256 303h272z" />
    <glyph glyph-name="gcircumflex" unicode="&#x11d;" horiz-adv-x="1231" 
d="M145 -415v250q177 -49 342 -49q108 0 175 26t98.5 82.5t31.5 149.5v73h-15q-48 -59 -120.5 -91.5t-162.5 -32.5q-117 0 -213.5 58t-154 177.5t-57.5 296.5q0 286 156 436t466 150q108 0 221 -15.5t200 -44.5v-948q0 -197 -65.5 -321.5t-197.5 -183t-337 -58.5
q-198 0 -367 45zM712 269.5q47 16.5 80 49.5v536q-60 14 -129 14q-136 0 -204 -75.5t-68 -241.5q0 -165 57 -232t167 -67q50 0 97 16.5zM1004 1233h-230l-134 233l-135 -233h-229l233 383h262z" />
    <glyph glyph-name="Gbreve" unicode="&#x11e;" horiz-adv-x="1426" 
d="M1299 720v-704q-200 -33 -369 -33q-425 0 -635.5 185t-211.5 568q0 379 215 571t626 192q175 0 333 -37v-268q-156 36 -304 36q-184 -1 -300 -51t-172.5 -159.5t-56.5 -287.5q0 -250 118 -365.5t363 -115.5q31 0 91 2v467h303zM535 1676q-97 77 -113 213h196
q12 -68 56.5 -101t131.5 -33q86 0 130 33t56 101h196q-16 -136 -112.5 -213t-269.5 -77q-174 0 -271 77z" />
    <glyph glyph-name="gbreve" unicode="&#x11f;" horiz-adv-x="1231" 
d="M145 -415v250q177 -49 342 -49q108 0 175 26t98.5 82.5t31.5 149.5v73h-15q-48 -59 -120.5 -91.5t-162.5 -32.5q-117 0 -213.5 58t-154 177.5t-57.5 296.5q0 286 156 436t466 150q108 0 221 -15.5t200 -44.5v-948q0 -197 -65.5 -321.5t-197.5 -183t-337 -58.5
q-198 0 -367 45zM712 269.5q47 16.5 80 49.5v536q-60 14 -129 14q-136 0 -204 -75.5t-68 -241.5q0 -165 57 -232t167 -67q50 0 97 16.5zM379.5 1332.5q-94.5 90.5 -103.5 261.5h194q7 -95 49 -142t122 -47q79 0 120.5 46.5t48.5 142.5h194q-9 -172 -103 -262t-260 -90
q-167 0 -261.5 90.5z" />
    <glyph glyph-name="Gdotaccent" unicode="&#x120;" horiz-adv-x="1426" 
d="M1299 720v-704q-200 -33 -369 -33q-425 0 -635.5 185t-211.5 568q0 379 215 571t626 192q175 0 333 -37v-268q-156 36 -304 36q-184 -1 -300 -51t-172.5 -159.5t-56.5 -287.5q0 -250 118 -365.5t363 -115.5q31 0 91 2v467h303zM659 1643.5q-50 37.5 -50 107.5
q0 69 50 107t146 38t146 -38t50 -107q0 -70 -50 -107.5t-146 -37.5t-146 37.5z" />
    <glyph glyph-name="gdotaccent" unicode="&#x121;" horiz-adv-x="1231" 
d="M145 -415v250q177 -49 342 -49q108 0 175 26t98.5 82.5t31.5 149.5v73h-15q-48 -59 -120.5 -91.5t-162.5 -32.5q-117 0 -213.5 58t-154 177.5t-57.5 296.5q0 286 156 436t466 150q108 0 221 -15.5t200 -44.5v-948q0 -197 -65.5 -321.5t-197.5 -183t-337 -58.5
q-198 0 -367 45zM712 269.5q47 16.5 80 49.5v536q-60 14 -129 14q-136 0 -204 -75.5t-68 -241.5q0 -165 57 -232t167 -67q50 0 97 16.5zM491.5 1296q-49.5 43 -49.5 123q0 81 49 124t149 43q99 0 148 -43t49 -124q0 -80 -49 -123t-148 -43t-148.5 43z" />
    <glyph glyph-name="Gcommaaccent" unicode="&#x122;" horiz-adv-x="1426" 
d="M1299 720v-704q-200 -33 -369 -33q-425 0 -635.5 185t-211.5 568q0 379 215 571t626 192q175 0 333 -37v-268q-156 36 -304 36q-184 -1 -300 -51t-172.5 -159.5t-56.5 -287.5q0 -250 118 -365.5t363 -115.5q31 0 91 2v467h303zM984 -277q0 -54 -21.5 -114.5t-56.5 -105.5
h-197q44 87 55 145q-138 13 -138 112q0 53 44 82.5t134 29.5q180 0 180 -149z" />
    <glyph glyph-name="gcommaaccent" unicode="&#x123;" horiz-adv-x="1231" 
d="M145 -415v250q177 -49 342 -49q108 0 175 26t98.5 82.5t31.5 149.5v73h-15q-48 -59 -120.5 -91.5t-162.5 -32.5q-117 0 -213.5 58t-154 177.5t-57.5 296.5q0 286 156 436t466 150q108 0 221 -15.5t200 -44.5v-948q0 -197 -65.5 -321.5t-197.5 -183t-337 -58.5
q-198 0 -367 45zM712 269.5q47 16.5 80 49.5v536q-60 14 -129 14q-136 0 -204 -75.5t-68 -241.5q0 -165 57 -232t167 -67q50 0 97 16.5zM819 1369q0 -54 -43.5 -83.5t-134.5 -29.5q-180 0 -180 149q0 54 21.5 114.5t56.5 105.5h197q-44 -86 -55 -145q138 -13 138 -111z" />
    <glyph glyph-name="Hcircumflex" unicode="&#x124;" horiz-adv-x="1527" 
d="M133 0v1480h326v-580h609v580h326v-1480h-326v613h-609v-613h-326zM1156 1595h-243l-149 185l-149 -185h-243l256 303h272z" />
    <glyph glyph-name="hcircumflex" unicode="&#x125;" horiz-adv-x="1223" 
d="M119 1616h320v-632h15q56 62 132 94.5t169 32.5q162 0 260 -104t98 -326v-681h-320v660q0 96 -39 136t-115 40q-56 0 -110.5 -23t-89.5 -67v-746h-320v1616zM1009 1691h-243l-149 185l-149 -185h-243l256 303h272z" />
    <glyph glyph-name="Hbar" unicode="&#x126;" horiz-adv-x="1527" 
d="M1523 1290v-201h-129v-1089h-326v613h-609v-613h-326v1089h-130v201h130v190h326v-190h609v190h326v-190h129zM1068 900v189h-609v-189h609z" />
    <glyph glyph-name="hbar" unicode="&#x127;" horiz-adv-x="1223" 
d="M1015 1007q98 -104 98 -326v-681h-320v660q0 96 -39 136t-115 40q-56 0 -110.5 -23t-89.5 -67v-746h-320v1252h-115v200h115v164h320v-164h338v-200h-338v-268h15q56 62 132 94.5t169 32.5q162 0 260 -104z" />
    <glyph glyph-name="Itilde" unicode="&#x128;" horiz-adv-x="592" 
d="M133 0v1480h326v-1480h-326zM380 1629q-40 10 -101 30q-55 19 -89 27.5t-72 8.5q-60 0 -106 -17t-93 -53v183q41 37 89.5 55t115.5 18q48 0 89.5 -10.5t99.5 -30.5q52 -19 87.5 -28t73.5 -9q60 0 106 17t93 53v-183q-40 -37 -88.5 -54t-116.5 -17q-48 0 -88 10z" />
    <glyph glyph-name="itilde" unicode="&#x129;" horiz-adv-x="558" 
d="M119 0v1094h320v-1094h-320zM354.5 1297.5q-39.5 12.5 -93.5 36.5q-48 22 -80 32.5t-65 10.5q-56 0 -101 -20t-91 -65v200q39 40 87 58.5t110 18.5q43 0 82.5 -12.5t93.5 -36.5q48 -22 80 -32.5t65 -10.5q56 0 101 20t91 65v-200q-39 -40 -87 -58.5t-110 -18.5
q-43 0 -82.5 12.5z" />
    <glyph glyph-name="Imacron" unicode="&#x12a;" horiz-adv-x="592" 
d="M133 0v1480h326v-1480h-326zM-72 1651v192h736v-192h-736z" />
    <glyph glyph-name="imacron" unicode="&#x12b;" horiz-adv-x="558" 
d="M119 0v1094h320v-1094h-320zM-76 1324v192h710v-192h-710z" />
    <glyph glyph-name="Ibreve" unicode="&#x12c;" horiz-adv-x="592" 
d="M133 0v1480h326v-1480h-326zM26 1676q-97 77 -113 213h196q12 -68 56.5 -101t131.5 -33q86 0 130 33t56 101h196q-16 -136 -112.5 -213t-269.5 -77q-174 0 -271 77z" />
    <glyph glyph-name="ibreve" unicode="&#x12d;" horiz-adv-x="558" 
d="M119 0v1094h320v-1094h-320zM18.5 1332.5q-94.5 90.5 -103.5 261.5h194q7 -95 49 -142t122 -47q79 0 120.5 46.5t48.5 142.5h194q-9 -172 -103 -262t-260 -90q-167 0 -261.5 90.5z" />
    <glyph glyph-name="Iogonek" unicode="&#x12e;" horiz-adv-x="592" 
d="M512 -284v-125q-86 -33 -185 -33q-139 0 -210 55t-71 153q0 70 37.5 128t122.5 106h-73v1480h326v-1480q-128 -50 -179 -100.5t-51 -111.5q0 -102 141 -102q64 0 142 30z" />
    <glyph glyph-name="iogonek" unicode="&#x12f;" horiz-adv-x="558" 
d="M130.5 1296q-49.5 43 -49.5 123q0 81 49 124t149 43q99 0 148 -43t49 -124q0 -80 -49 -123t-148 -43t-148.5 43zM478 -283v-126q-79 -33 -171 -33q-127 0 -194 55.5t-67 152.5q0 70 35 128t115 106h-77v1094h320v-1094q-116 -49 -163 -100.5t-47 -113.5q0 -47 31 -73.5
t90 -26.5q62 0 128 31z" />
    <glyph glyph-name="Idotaccent" unicode="&#x130;" horiz-adv-x="592" 
d="M133 0v1480h326v-1480h-326zM150 1643.5q-50 37.5 -50 107.5q0 69 50 107t146 38t146 -38t50 -107q0 -70 -50 -107.5t-146 -37.5t-146 37.5z" />
    <glyph glyph-name="dotlessi" unicode="&#x131;" horiz-adv-x="558" 
d="M119 0v1094h320v-1094h-320z" />
    <glyph glyph-name="Jcircumflex" unicode="&#x134;" horiz-adv-x="592" 
d="M-22 -211q86 115 121 230.5t35 279.5v1181h325v-1180q-2 -189 -64 -342t-209 -308zM689 1595h-243l-149 185l-149 -185h-243l256 303h272z" />
    <glyph glyph-name="jcircumflex" unicode="&#x135;" horiz-adv-x="558" 
d="M-38 -334q87 116 122 231t35 279v918h320v-905q0 -194 -62 -349t-208 -311zM639 1235h-230l-134 233l-135 -233h-229l233 383h262z" />
    <glyph glyph-name="Kcommaaccent" unicode="&#x136;" horiz-adv-x="1330" 
d="M1022 0l-421 613h-142v-613h-326v1480h326v-580h143l388 580h344l-479 -716l522 -764h-355zM877 -277q0 -54 -21.5 -114.5t-56.5 -105.5h-197q44 87 55 145q-138 13 -138 112q0 53 44 82.5t134 29.5q180 0 180 -149z" />
    <glyph glyph-name="kcommaaccent" unicode="&#x137;" horiz-adv-x="1181" 
d="M866 0l-299 434h-128v-434h-320v1616h320v-926h126l273 404h341l-348 -526l383 -568h-348zM803 -277q0 -54 -21.5 -114.5t-56.5 -105.5h-197q44 87 55 145q-138 13 -138 112q0 53 44 82.5t134 29.5q180 0 180 -149z" />
    <glyph glyph-name="kgreenlandic" unicode="&#x138;" horiz-adv-x="1181" 
d="M866 0l-299 434h-128v-434h-320v1094h320v-404h126l273 404h341l-348 -526l383 -568h-348z" />
    <glyph glyph-name="Lacute" unicode="&#x139;" horiz-adv-x="1149" 
d="M133 0v1480h326v-1209h680v-271h-1006zM153 1595l180 303h337l-228 -303h-289z" />
    <glyph glyph-name="lacute" unicode="&#x13a;" horiz-adv-x="557" 
d="M119 0v1616h320v-1616h-320zM133 1691l180 303h337l-228 -303h-289z" />
    <glyph glyph-name="Lcommaaccent" unicode="&#x13b;" horiz-adv-x="1149" 
d="M133 0v1480h326v-1209h680v-271h-1006zM815 -277q0 -54 -21.5 -114.5t-56.5 -105.5h-197q44 87 55 145q-138 13 -138 112q0 53 44 82.5t134 29.5q180 0 180 -149z" />
    <glyph glyph-name="lcommaaccent" unicode="&#x13c;" horiz-adv-x="557" 
d="M119 0v1616h320v-1616h-320zM457 -277q0 -54 -21.5 -114.5t-56.5 -105.5h-197q44 87 55 145q-138 13 -138 112q0 53 44 82.5t134 29.5q180 0 180 -149z" />
    <glyph glyph-name="Lcaron" unicode="&#x13d;" horiz-adv-x="1149" 
d="M133 0v1480h326v-1209h680v-271h-1006zM752 1356.5q6 108.5 6 259.5h213q0 -282 -68 -476h-173q16 108 22 216.5z" />
    <glyph glyph-name="lcaron" unicode="&#x13e;" horiz-adv-x="557" 
d="M119 0v1616h320v-1616h-320zM530.5 1392q6.5 104 6.5 224h213q0 -119 -18 -232.5t-51 -203.5h-173q16 108 22.5 212z" />
    <glyph glyph-name="Ldot" unicode="&#x13f;" horiz-adv-x="1149" 
d="M133 0v1480h326v-1209h680v-271h-1006zM714 748.5q-49 42.5 -49 123.5q0 80 49 123t148 43t148.5 -43t49.5 -123q0 -81 -49 -123.5t-149 -42.5q-99 0 -148 42.5z" />
    <glyph glyph-name="ldot" unicode="&#x140;" horiz-adv-x="864" 
d="M119 0v1616h320v-1616h-320zM558 670q-49 43 -49 123q0 81 49 124t148 43q100 0 149 -43t49 -124q0 -80 -49.5 -123t-148.5 -43t-148 43z" />
    <glyph glyph-name="Lslash" unicode="&#x141;" horiz-adv-x="1149" 
d="M459 271h680v-271h-1006v616l-86 -48l-96 185l182 102v625h326v-442l267 150l96 -185l-363 -204v-528z" />
    <glyph glyph-name="lslash" unicode="&#x142;" horiz-adv-x="557" 
d="M617 786l-178 -98v-688h-320v513l-85 -47l-92 176l177 97v877h320v-701l86 47z" />
    <glyph glyph-name="Nacute" unicode="&#x143;" horiz-adv-x="1544" 
d="M1104 1480h307v-1480h-328l-643 991v-991h-307v1480h328l643 -991v991zM626 1595l180 303h337l-228 -303h-289z" />
    <glyph glyph-name="nacute" unicode="&#x144;" horiz-adv-x="1223" 
d="M119 1094h263l22 -111h15q60 62 142 95t179 33q173 0 273 -104t100 -326v-681h-320v662q0 95 -39 134.5t-115 39.5q-57 0 -111 -23t-89 -67v-746h-320v1094zM470 1233l225 383h340l-272 -383h-293z" />
    <glyph glyph-name="Ncommaaccent" unicode="&#x145;" horiz-adv-x="1544" 
d="M1104 1480h307v-1480h-328l-643 991v-991h-307v1480h328l643 -991v991zM951 -277q0 -54 -21.5 -114.5t-56.5 -105.5h-197q44 87 55 145q-138 13 -138 112q0 53 44 82.5t134 29.5q180 0 180 -149z" />
    <glyph glyph-name="ncommaaccent" unicode="&#x146;" horiz-adv-x="1223" 
d="M119 1094h263l22 -111h15q60 62 142 95t179 33q173 0 273 -104t100 -326v-681h-320v662q0 95 -39 134.5t-115 39.5q-57 0 -111 -23t-89 -67v-746h-320v1094zM796 -277q0 -54 -21.5 -114.5t-56.5 -105.5h-197q44 87 55 145q-138 13 -138 112q0 53 44 82.5t134 29.5
q180 0 180 -149z" />
    <glyph glyph-name="Ncaron" unicode="&#x147;" horiz-adv-x="1544" 
d="M1104 1480h307v-1480h-328l-643 991v-991h-307v1480h328l643 -991v991zM921 1898h243l-256 -303h-272l-256 303h243l149 -185z" />
    <glyph glyph-name="ncaron" unicode="&#x148;" horiz-adv-x="1223" 
d="M119 1094h263l22 -111h15q60 62 142 95t179 33q173 0 273 -104t100 -326v-681h-320v662q0 95 -39 134.5t-115 39.5q-57 0 -111 -23t-89 -67v-746h-320v1094zM753 1616h229l-234 -383h-262l-234 383h229l136 -234z" />
    <glyph glyph-name="napostrophe" unicode="&#x149;" horiz-adv-x="1223" 
d="M119 1094h263l22 -111h15q60 62 142 95t179 33q173 0 273 -104t100 -326v-681h-320v662q0 95 -39 134.5t-115 39.5q-57 0 -111 -23t-89 -67v-746h-320v1094zM370 1476q0 -53 -21 -113.5t-56 -106.5h-198q43 82 55 146q-138 11 -138 111q0 54 43.5 83t134.5 29
q180 0 180 -149z" />
    <glyph glyph-name="Eng" unicode="&#x14a;" horiz-adv-x="1544" 
d="M1411 1480v-1263q0 -143 -26.5 -258.5t-85.5 -219.5t-159 -210l-206 137q63 81 100 158.5t54 165.5l-648 1001v-991h-307v1480h328l643 -987v987h307z" />
    <glyph glyph-name="eng" unicode="&#x14b;" horiz-adv-x="1223" 
d="M637 -334q86 115 121 230.5t35 279.5v488q0 95 -39 135.5t-115 40.5q-56 0 -110.5 -23.5t-89.5 -66.5v-750h-320v1094h263l22 -111h15q61 63 143 95.5t178 32.5q173 0 273 -103.5t100 -326.5v-504q-2 -189 -63.5 -341t-206.5 -307z" />
    <glyph glyph-name="Omacron" unicode="&#x14c;" horiz-adv-x="1563" 
d="M410.5 64.5q-156.5 83.5 -242 253.5t-85.5 422t85.5 422t242 253.5t371.5 83.5t371.5 -84t241.5 -254t85 -421t-85.5 -421t-242 -254t-370.5 -84q-215 0 -371.5 83.5zM1052 361q93 117 93 372q0 264 -93.5 383.5t-269.5 119.5q-177 0 -270.5 -117t-93.5 -372
q0 -265 93 -384t271 -119q177 0 270 117zM414 1651v192h736v-192h-736z" />
    <glyph glyph-name="omacron" unicode="&#x14d;" horiz-adv-x="1206" 
d="M317.5 42q-119.5 63 -184 189.5t-64.5 312.5q0 282 139 424.5t395 142.5q255 0 394.5 -143t139.5 -422q0 -187 -64.5 -314t-184 -190t-285.5 -63t-285.5 63zM720 252q46 30 70.5 100.5t24.5 190.5q0 122 -24.5 194t-71 102t-116.5 30t-116.5 -30t-71 -100.5t-24.5 -191.5
q0 -122 24.5 -193.5t70.5 -101.5t117 -30t117 30zM248 1324v192h710v-192h-710z" />
    <glyph glyph-name="Obreve" unicode="&#x14e;" horiz-adv-x="1563" 
d="M410.5 64.5q-156.5 83.5 -242 253.5t-85.5 422t85.5 422t242 253.5t371.5 83.5t371.5 -84t241.5 -254t85 -421t-85.5 -421t-242 -254t-370.5 -84q-215 0 -371.5 83.5zM1052 361q93 117 93 372q0 264 -93.5 383.5t-269.5 119.5q-177 0 -270.5 -117t-93.5 -372
q0 -265 93 -384t271 -119q177 0 270 117zM512 1676q-97 77 -113 213h196q12 -68 56.5 -101t131.5 -33q86 0 130 33t56 101h196q-16 -136 -112.5 -213t-269.5 -77q-174 0 -271 77z" />
    <glyph glyph-name="obreve" unicode="&#x14f;" horiz-adv-x="1206" 
d="M317.5 42q-119.5 63 -184 189.5t-64.5 312.5q0 282 139 424.5t395 142.5q255 0 394.5 -143t139.5 -422q0 -187 -64.5 -314t-184 -190t-285.5 -63t-285.5 63zM720 252q46 30 70.5 100.5t24.5 190.5q0 122 -24.5 194t-71 102t-116.5 30t-116.5 -30t-71 -100.5t-24.5 -191.5
q0 -122 24.5 -193.5t70.5 -101.5t117 -30t117 30zM342.5 1332.5q-94.5 90.5 -103.5 261.5h194q7 -95 49 -142t122 -47q79 0 120.5 46.5t48.5 142.5h194q-9 -172 -103 -262t-260 -90q-167 0 -261.5 90.5z" />
    <glyph glyph-name="Ohungarumlaut" unicode="&#x150;" horiz-adv-x="1563" 
d="M410.5 64.5q-156.5 83.5 -242 253.5t-85.5 422t85.5 422t242 253.5t371.5 83.5t371.5 -84t241.5 -254t85 -421t-85.5 -421t-242 -254t-370.5 -84q-215 0 -371.5 83.5zM1052 361q93 117 93 372q0 264 -93.5 383.5t-269.5 119.5q-177 0 -270.5 -117t-93.5 -372
q0 -265 93 -384t271 -119q177 0 270 117zM462 1595l135 303h253l-152 -303h-236zM866 1595l136 303h253l-153 -303h-236z" />
    <glyph glyph-name="ohungarumlaut" unicode="&#x151;" horiz-adv-x="1206" 
d="M317.5 42q-119.5 63 -184 189.5t-64.5 312.5q0 282 139 424.5t395 142.5q255 0 394.5 -143t139.5 -422q0 -187 -64.5 -314t-184 -190t-285.5 -63t-285.5 63zM720 252q46 30 70.5 100.5t24.5 190.5q0 122 -24.5 194t-71 102t-116.5 30t-116.5 -30t-71 -100.5t-24.5 -191.5
q0 -122 24.5 -193.5t70.5 -101.5t117 -30t117 30zM283 1233l146 383h252l-162 -383h-236zM687 1233l146 383h252l-163 -383h-235z" />
    <glyph glyph-name="OE" unicode="&#x152;" horiz-adv-x="2115" 
d="M2044 260v-260h-796q-36 0 -85 -2t-71 -3q-110 -6 -160 -6q-287 0 -474.5 79t-281 245t-93.5 427q0 753 843 753q68 0 164 -7q106 -6 155 -6h789v-260h-686v-333h584v-260h-584v-367h696zM1025 1221q-67 6 -163 6q-150 0 -248 -49.5t-147.5 -157t-49.5 -281.5t50 -281
t149 -156t250 -49q99 0 159 6v962z" />
    <glyph glyph-name="oe" unicode="&#x153;" horiz-adv-x="1847" 
d="M1790 454h-655q5 -88 37 -138.5t99.5 -73t183.5 -22.5q124 0 274 35v-239q-159 -37 -318 -37q-162 0 -273.5 39t-178.5 118q-128 -157 -371 -157q-159 0 -275.5 63t-180 189.5t-63.5 312.5q0 281 136.5 424t382.5 143q261 0 385 -173q60 84 151.5 129t208.5 45
q144 0 246.5 -65t156.5 -193.5t54 -315.5v-84zM1181.5 847.5q-44.5 -61.5 -47.5 -208.5h359q-3 147 -46.5 208.5t-131.5 61.5q-89 0 -133.5 -61.5zM718 252q46 30 70.5 100.5t24.5 190.5q0 122 -24.5 194t-71 102t-115.5 30q-70 0 -116 -30t-70.5 -101t-24.5 -191
q0 -122 24.5 -193.5t70.5 -101.5t116 -30t116 30z" />
    <glyph glyph-name="Racute" unicode="&#x154;" horiz-adv-x="1378" 
d="M1005 0l-378 543h-18q-70 0 -155 5v-548h-321v1447q106 23 226 37t237 14q321 0 481 -116.5t160 -358.5q0 -158 -76.5 -266t-220.5 -162l420 -595h-355zM454 794q84 -9 161 -9q162 0 239 56t77 181q0 123 -73.5 179.5t-228.5 56.5q-88 0 -175 -15v-449zM532 1595l180 303
h337l-228 -303h-289z" />
    <glyph glyph-name="racute" unicode="&#x155;" horiz-adv-x="809" 
d="M119 1094h261l25 -141h15q45 79 120 117.5t170 38.5q48 0 88 -8v-289q-44 9 -108 9q-73 0 -143 -28t-108 -77v-716h-320v1094zM308 1233l225 383h340l-272 -383h-293z" />
    <glyph glyph-name="Rcommaaccent" unicode="&#x156;" horiz-adv-x="1378" 
d="M1005 0l-378 543h-18q-70 0 -155 5v-548h-321v1447q106 23 226 37t237 14q321 0 481 -116.5t160 -358.5q0 -158 -76.5 -266t-220.5 -162l420 -595h-355zM454 794q84 -9 161 -9q162 0 239 56t77 181q0 123 -73.5 179.5t-228.5 56.5q-88 0 -175 -15v-449zM902 -277
q0 -54 -21.5 -114.5t-56.5 -105.5h-197q44 87 55 145q-138 13 -138 112q0 53 44 82.5t134 29.5q180 0 180 -149z" />
    <glyph glyph-name="rcommaaccent" unicode="&#x157;" horiz-adv-x="809" 
d="M119 1094h261l25 -141h15q45 79 120 117.5t170 38.5q48 0 88 -8v-289q-44 9 -108 9q-73 0 -143 -28t-108 -77v-716h-320v1094zM458 -277q0 -54 -21.5 -114.5t-56.5 -105.5h-197q44 87 55 145q-138 13 -138 112q0 53 44 82.5t134 29.5q180 0 180 -149z" />
    <glyph glyph-name="Rcaron" unicode="&#x158;" horiz-adv-x="1378" 
d="M1005 0l-378 543h-18q-70 0 -155 5v-548h-321v1447q106 23 226 37t237 14q321 0 481 -116.5t160 -358.5q0 -158 -76.5 -266t-220.5 -162l420 -595h-355zM454 794q84 -9 161 -9q162 0 239 56t77 181q0 123 -73.5 179.5t-228.5 56.5q-88 0 -175 -15v-449zM827 1898h243
l-256 -303h-272l-256 303h243l149 -185z" />
    <glyph glyph-name="rcaron" unicode="&#x159;" horiz-adv-x="809" 
d="M119 1094h261l25 -141h15q45 79 120 117.5t170 38.5q48 0 88 -8v-289q-44 9 -108 9q-73 0 -143 -28t-108 -77v-716h-320v1094zM591 1616h229l-234 -383h-262l-234 383h229l136 -234z" />
    <glyph glyph-name="Sacute" unicode="&#x15a;" horiz-adv-x="1154" 
d="M288.5 -2.5q-107.5 16.5 -198.5 46.5v264q93 -30 204.5 -47.5t208.5 -17.5q143 0 207 43.5t64 128.5q0 47 -19.5 78.5t-65.5 55t-129 45.5l-111 29q-198 49 -296 153.5t-98 272.5q0 215 156 332.5t461 117.5q97 0 187.5 -11.5t163.5 -31.5v-265q-71 22 -158.5 34
t-174.5 12q-166 0 -238 -44.5t-72 -126.5q0 -45 17 -75t57.5 -52t113.5 -42l112 -28q216 -54 317.5 -158t101.5 -274q0 -141 -71 -244t-204.5 -157.5t-319.5 -54.5q-108 0 -215.5 16.5zM442 1595l180 303h337l-228 -303h-289z" />
    <glyph glyph-name="sacute" unicode="&#x15b;" horiz-adv-x="980" 
d="M90 27v234q162 -49 346 -49q104 0 150.5 27.5t46.5 80.5q0 41 -22 62t-77 32l-177 32q-153 28 -224 105.5t-71 209.5q0 107 57 185.5t172.5 121.5t286.5 43q78 0 154.5 -9t138.5 -25v-234q-133 36 -284 36q-228 0 -228 -110q0 -36 22.5 -58t75.5 -32l177 -32
q152 -29 224.5 -102.5t72.5 -213.5q0 -109 -57.5 -188t-168 -121.5t-264.5 -42.5q-195 0 -351 48zM348 1233l225 383h340l-272 -383h-293z" />
    <glyph glyph-name="Scircumflex" unicode="&#x15c;" horiz-adv-x="1154" 
d="M288.5 -2.5q-107.5 16.5 -198.5 46.5v264q93 -30 204.5 -47.5t208.5 -17.5q143 0 207 43.5t64 128.5q0 47 -19.5 78.5t-65.5 55t-129 45.5l-111 29q-198 49 -296 153.5t-98 272.5q0 215 156 332.5t461 117.5q97 0 187.5 -11.5t163.5 -31.5v-265q-71 22 -158.5 34
t-174.5 12q-166 0 -238 -44.5t-72 -126.5q0 -45 17 -75t57.5 -52t113.5 -42l112 -28q216 -54 317.5 -158t101.5 -274q0 -141 -71 -244t-204.5 -157.5t-319.5 -54.5q-108 0 -215.5 16.5zM980 1595h-243l-149 185l-149 -185h-243l256 303h272z" />
    <glyph glyph-name="scircumflex" unicode="&#x15d;" horiz-adv-x="980" 
d="M90 27v234q162 -49 346 -49q104 0 150.5 27.5t46.5 80.5q0 41 -22 62t-77 32l-177 32q-153 28 -224 105.5t-71 209.5q0 107 57 185.5t172.5 121.5t286.5 43q78 0 154.5 -9t138.5 -25v-234q-133 36 -284 36q-228 0 -228 -110q0 -36 22.5 -58t75.5 -32l177 -32
q152 -29 224.5 -102.5t72.5 -213.5q0 -109 -57.5 -188t-168 -121.5t-264.5 -42.5q-195 0 -351 48zM859 1233h-230l-134 233l-135 -233h-229l233 383h262z" />
    <glyph glyph-name="Scedilla" unicode="&#x15e;" horiz-adv-x="1154" 
d="M1045.5 221q-53.5 -94 -155 -153t-244.5 -78v-76q90 -12 137 -56.5t47 -116.5q0 -87 -69 -135t-204 -48q-112 0 -202 32v123q86 -32 187 -32q60 0 90 16.5t30 53.5q0 73 -121 73h-49v157q-105 1 -209 17.5t-193 45.5v264q93 -30 204.5 -47.5t208.5 -17.5q143 0 207 43.5
t64 128.5q0 47 -19.5 78.5t-65.5 55t-129 45.5l-111 29q-198 49 -296 153.5t-98 272.5q0 215 156 332.5t461 117.5q97 0 187.5 -11.5t163.5 -31.5v-265q-71 22 -158.5 34t-174.5 12q-166 0 -238 -44.5t-72 -126.5q0 -45 17 -75t57.5 -52t113.5 -42l112 -28
q216 -54 317.5 -158t101.5 -274q0 -122 -53.5 -216z" />
    <glyph glyph-name="scedilla" unicode="&#x15f;" horiz-adv-x="980" 
d="M840 104q-91 -89 -259 -115v-77q80 -13 121.5 -58t41.5 -116q0 -85 -64.5 -132.5t-189.5 -47.5q-102 0 -181 31v124q38 -16 82.5 -24t83.5 -8q51 0 76 16.5t25 53.5q0 73 -102 73h-46v155q-188 2 -338 48v234q162 -49 346 -49q104 0 150.5 27.5t46.5 80.5q0 41 -22 62
t-77 32l-177 32q-153 28 -224 105.5t-71 209.5q0 107 57 185.5t172.5 121.5t286.5 43q78 0 154.5 -9t138.5 -25v-234q-133 36 -284 36q-228 0 -228 -110q0 -36 22.5 -58t75.5 -32l177 -32q152 -29 224.5 -102.5t72.5 -213.5q0 -138 -91 -227z" />
    <glyph glyph-name="Scaron" unicode="&#x160;" horiz-adv-x="1154" 
d="M288.5 -2.5q-107.5 16.5 -198.5 46.5v264q93 -30 204.5 -47.5t208.5 -17.5q143 0 207 43.5t64 128.5q0 47 -19.5 78.5t-65.5 55t-129 45.5l-111 29q-198 49 -296 153.5t-98 272.5q0 215 156 332.5t461 117.5q97 0 187.5 -11.5t163.5 -31.5v-265q-71 22 -158.5 34
t-174.5 12q-166 0 -238 -44.5t-72 -126.5q0 -45 17 -75t57.5 -52t113.5 -42l112 -28q216 -54 317.5 -158t101.5 -274q0 -141 -71 -244t-204.5 -157.5t-319.5 -54.5q-108 0 -215.5 16.5zM737 1898h243l-256 -303h-272l-256 303h243l149 -185z" />
    <glyph glyph-name="scaron" unicode="&#x161;" horiz-adv-x="980" 
d="M90 27v234q162 -49 346 -49q104 0 150.5 27.5t46.5 80.5q0 41 -22 62t-77 32l-177 32q-153 28 -224 105.5t-71 209.5q0 107 57 185.5t172.5 121.5t286.5 43q78 0 154.5 -9t138.5 -25v-234q-133 36 -284 36q-228 0 -228 -110q0 -36 22.5 -58t75.5 -32l177 -32
q152 -29 224.5 -102.5t72.5 -213.5q0 -109 -57.5 -188t-168 -121.5t-264.5 -42.5q-195 0 -351 48zM631 1616h229l-234 -383h-262l-234 383h229l136 -234z" />
    <glyph glyph-name="uni0162" unicode="&#x162;" horiz-adv-x="1287" 
d="M702 0v-86q90 -12 137 -56.5t47 -116.5q0 -87 -69 -135t-204 -48q-112 0 -202 32v123q86 -32 187 -32q60 0 90 16.5t30 53.5q0 73 -121 73h-49v176h-68v1209h-467v271h1260v-271h-466v-1209h-105z" />
    <glyph glyph-name="uni0163" unicode="&#x163;" horiz-adv-x="843" 
d="M588 -20v-68q80 -13 121.5 -58t41.5 -116q0 -85 -64.5 -132.5t-189.5 -47.5q-102 0 -181 31v124q38 -16 82.5 -24t83.5 -8q51 0 76 16.5t25 53.5q0 73 -102 73h-46v179q-240 72 -240 387v452h-178v252h178l58 386h262v-386h287v-252h-287v-402q0 -74 18.5 -117t57 -61.5
t102.5 -18.5q42 0 115 13v-253q-101 -23 -202 -23h-18z" />
    <glyph glyph-name="Tcaron" unicode="&#x164;" horiz-adv-x="1287" 
d="M480 0v1209h-467v271h1260v-271h-466v-1209h-327zM793 1898h243l-256 -303h-272l-256 303h243l149 -185z" />
    <glyph glyph-name="tcaron" unicode="&#x165;" horiz-adv-x="843" 
d="M808 256v-253q-101 -23 -202 -23q-202 0 -306.5 100t-104.5 310v452h-178v252h178l58 386h262v-386h287v-252h-287v-402q0 -74 18.5 -117t57 -61.5t102.5 -18.5q42 0 115 13zM640.5 1392q6.5 104 6.5 224h213q0 -119 -18 -232.5t-51 -203.5h-173q16 108 22.5 212z" />
    <glyph glyph-name="Tbar" unicode="&#x166;" horiz-adv-x="1287" 
d="M1273 1209h-466v-375h301v-208h-301v-626h-327v626h-300v208h300v375h-467v271h1260v-271z" />
    <glyph glyph-name="tbar" unicode="&#x167;" horiz-adv-x="843" 
d="M808 256v-253q-101 -23 -202 -23q-202 0 -306.5 100t-104.5 310v100h-122v194h122v158h-178v252h178l58 386h262v-386h287v-252h-287v-158h235v-194h-235v-50q0 -74 18.5 -117t57 -61.5t102.5 -18.5q42 0 115 13z" />
    <glyph glyph-name="Utilde" unicode="&#x168;" horiz-adv-x="1496" 
d="M277.5 136.5q-151.5 155.5 -151.5 477.5v866h327v-898q0 -174 73 -254t225 -80t225 80t73 254v898h321v-866q0 -322 -150 -477.5t-469 -155.5q-322 0 -473.5 155.5zM835 1629q-40 10 -101 30q-55 19 -89 27.5t-72 8.5q-60 0 -106 -17t-93 -53v183q41 37 89.5 55t115.5 18
q48 0 89.5 -10.5t99.5 -30.5q52 -19 87.5 -28t73.5 -9q60 0 106 17t93 53v-183q-40 -37 -88.5 -54t-116.5 -17q-48 0 -88 10z" />
    <glyph glyph-name="utilde" unicode="&#x169;" horiz-adv-x="1214" 
d="M211.5 84.5q-101.5 103.5 -101.5 325.5v684h320v-663q0 -94 38.5 -134t110.5 -40q53 0 107 23t90 66v748h320v-1094h-264l-22 110h-13q-63 -64 -141.5 -96.5t-167.5 -32.5q-175 0 -276.5 103.5zM678.5 1297.5q-39.5 12.5 -93.5 36.5q-48 22 -80 32.5t-65 10.5
q-56 0 -101 -20t-91 -65v200q39 40 87 58.5t110 18.5q43 0 82.5 -12.5t93.5 -36.5q48 -22 80 -32.5t65 -10.5q56 0 101 20t91 65v-200q-39 -40 -87 -58.5t-110 -18.5q-43 0 -82.5 12.5z" />
    <glyph glyph-name="Umacron" unicode="&#x16a;" horiz-adv-x="1496" 
d="M277.5 136.5q-151.5 155.5 -151.5 477.5v866h327v-898q0 -174 73 -254t225 -80t225 80t73 254v898h321v-866q0 -322 -150 -477.5t-469 -155.5q-322 0 -473.5 155.5zM383 1651v192h736v-192h-736z" />
    <glyph glyph-name="umacron" unicode="&#x16b;" horiz-adv-x="1214" 
d="M211.5 84.5q-101.5 103.5 -101.5 325.5v684h320v-663q0 -94 38.5 -134t110.5 -40q53 0 107 23t90 66v748h320v-1094h-264l-22 110h-13q-63 -64 -141.5 -96.5t-167.5 -32.5q-175 0 -276.5 103.5zM248 1324v192h710v-192h-710z" />
    <glyph glyph-name="Ubreve" unicode="&#x16c;" horiz-adv-x="1496" 
d="M277.5 136.5q-151.5 155.5 -151.5 477.5v866h327v-898q0 -174 73 -254t225 -80t225 80t73 254v898h321v-866q0 -322 -150 -477.5t-469 -155.5q-322 0 -473.5 155.5zM481 1676q-97 77 -113 213h196q12 -68 56.5 -101t131.5 -33q86 0 130 33t56 101h196
q-16 -136 -112.5 -213t-269.5 -77q-174 0 -271 77z" />
    <glyph glyph-name="ubreve" unicode="&#x16d;" horiz-adv-x="1214" 
d="M211.5 84.5q-101.5 103.5 -101.5 325.5v684h320v-663q0 -94 38.5 -134t110.5 -40q53 0 107 23t90 66v748h320v-1094h-264l-22 110h-13q-63 -64 -141.5 -96.5t-167.5 -32.5q-175 0 -276.5 103.5zM342.5 1332.5q-94.5 90.5 -103.5 261.5h194q7 -95 49 -142t122 -47
q79 0 120.5 46.5t48.5 142.5h194q-9 -172 -103 -262t-260 -90q-167 0 -261.5 90.5z" />
    <glyph glyph-name="Uring" unicode="&#x16e;" horiz-adv-x="1496" 
d="M277.5 136.5q-151.5 155.5 -151.5 477.5v866h327v-898q0 -174 73 -254t225 -80t225 80t73 254v898h321v-866q0 -322 -150 -477.5t-469 -155.5q-322 0 -473.5 155.5zM641 1609q-49 27 -77 74.5t-28 107.5t28 108t77 75t110 27t110 -27t77 -75t28 -108t-28 -107.5
t-77 -74.5t-110 -27t-110 27zM818.5 1721q25.5 26 25.5 70q0 45 -25.5 71t-67.5 26t-67.5 -26t-25.5 -71q0 -44 25.5 -70t67.5 -26t67.5 26z" />
    <glyph glyph-name="uring" unicode="&#x16f;" horiz-adv-x="1214" 
d="M211.5 84.5q-101.5 103.5 -101.5 325.5v684h320v-663q0 -94 38.5 -134t110.5 -40q53 0 107 23t90 66v748h320v-1094h-264l-22 110h-13q-63 -64 -141.5 -96.5t-167.5 -32.5q-175 0 -276.5 103.5zM493 1255q-49 27 -77 74.5t-28 107.5t28 107.5t77 74.5t110 27t110 -27
t77 -74.5t28 -107.5t-28 -107.5t-77 -74.5t-110 -27t-110 27zM670.5 1366q25.5 26 25.5 71t-25.5 71t-67.5 26t-67.5 -26t-25.5 -71t25.5 -71t67.5 -26t67.5 26z" />
    <glyph glyph-name="Uhungarumlaut" unicode="&#x170;" horiz-adv-x="1496" 
d="M277.5 136.5q-151.5 155.5 -151.5 477.5v866h327v-898q0 -174 73 -254t225 -80t225 80t73 254v898h321v-866q0 -322 -150 -477.5t-469 -155.5q-322 0 -473.5 155.5zM431 1595l135 303h253l-152 -303h-236zM835 1595l136 303h253l-153 -303h-236z" />
    <glyph glyph-name="uhungarumlaut" unicode="&#x171;" horiz-adv-x="1214" 
d="M211.5 84.5q-101.5 103.5 -101.5 325.5v684h320v-663q0 -94 38.5 -134t110.5 -40q53 0 107 23t90 66v748h320v-1094h-264l-22 110h-13q-63 -64 -141.5 -96.5t-167.5 -32.5q-175 0 -276.5 103.5zM283 1233l146 383h252l-162 -383h-236zM687 1233l146 383h252l-163 -383
h-235z" />
    <glyph glyph-name="Uogonek" unicode="&#x172;" horiz-adv-x="1496" 
d="M1370 1480v-866q0 -243 -85.5 -392t-266.5 -206q-157 -50 -217.5 -105.5t-60.5 -121.5q0 -103 142 -103q59 0 142 30v-125q-92 -33 -185 -33q-140 0 -211 55t-71 154q0 64 31.5 117.5t102.5 97.5q-291 14 -428 169.5t-137 462.5v866h327v-898q0 -174 73 -254t225 -80
t225 80t73 254v898h321z" />
    <glyph glyph-name="uogonek" unicode="&#x173;" horiz-adv-x="1214" 
d="M1135 -283v-126q-79 -33 -171 -33q-127 0 -194 55.5t-67 152.5q0 70 35 128t115 106h-21l-22 110h-13q-63 -64 -141.5 -96.5t-167.5 -32.5q-175 0 -276.5 103.5t-101.5 325.5v684h320v-663q0 -94 38.5 -134t110.5 -40q53 0 107 23t90 66v748h320v-1094
q-116 -49 -163 -100.5t-47 -113.5q0 -47 31 -73.5t90 -26.5q62 0 128 31z" />
    <glyph glyph-name="Wcircumflex" unicode="&#x174;" horiz-adv-x="2282" 
d="M1943 1480h309l-391 -1480h-419l-295 1122l-307 -1122h-418l-392 1480h330l295 -1177l315 1177h361l307 -1191zM1534 1595h-243l-149 185l-149 -185h-243l256 303h272z" />
    <glyph glyph-name="wcircumflex" unicode="&#x175;" horiz-adv-x="1813" 
d="M1479 1094h291l-293 -1094h-354l-213 791l-218 -791h-354l-294 1094h303l187 -752l203 752h354l197 -741zM1272 1233h-230l-134 233l-135 -233h-229l233 383h262z" />
    <glyph glyph-name="Ycircumflex" unicode="&#x176;" horiz-adv-x="1287" 
d="M1327 1480l-519 -854v-626h-326v625l-534 855h346l358 -579l353 579h322zM1036 1595h-243l-149 185l-149 -185h-243l256 303h272z" />
    <glyph glyph-name="ycircumflex" unicode="&#x177;" horiz-adv-x="1167" 
d="M854 1094h315l-541 -1534h-314l157 440h-88l-384 1094h334l258 -811zM948 1233h-230l-134 233l-135 -233h-229l233 383h262z" />
    <glyph glyph-name="Ydieresis" unicode="&#x178;" horiz-adv-x="1287" 
d="M1327 1480l-519 -854v-626h-326v625l-534 855h346l358 -579l353 579h322zM259 1643.5q-44 37.5 -44 107.5q0 69 44 107t128 38t128 -38t44 -107q0 -70 -43.5 -107.5t-128.5 -37.5q-84 0 -128 37.5zM772.5 1643.5q-43.5 37.5 -43.5 107.5q0 69 44 107t128 38t128 -38
t44 -107q0 -70 -44 -107.5t-128 -37.5q-85 0 -128.5 37.5z" />
    <glyph glyph-name="Zacute" unicode="&#x179;" horiz-adv-x="1240" 
d="M481 270h699v-270h-1120v179l688 1031h-677v270h1099v-179zM475 1595l180 303h337l-228 -303h-289z" />
    <glyph glyph-name="zacute" unicode="&#x17a;" horiz-adv-x="1015" 
d="M461 252h504v-252h-899v203l492 639h-482v252h878v-202zM369 1233l225 383h340l-272 -383h-293z" />
    <glyph glyph-name="Zdotaccent" unicode="&#x17b;" horiz-adv-x="1240" 
d="M481 270h699v-270h-1120v179l688 1031h-677v270h1099v-179zM475 1643.5q-50 37.5 -50 107.5q0 69 50 107t146 38t146 -38t50 -107q0 -70 -50 -107.5t-146 -37.5t-146 37.5z" />
    <glyph glyph-name="zdotaccent" unicode="&#x17c;" horiz-adv-x="1015" 
d="M461 252h504v-252h-899v203l492 639h-482v252h878v-202zM367.5 1296q-49.5 43 -49.5 123q0 81 49 124t149 43q99 0 148 -43t49 -124q0 -80 -49 -123t-148 -43t-148.5 43z" />
    <glyph glyph-name="Zcaron" unicode="&#x17d;" horiz-adv-x="1240" 
d="M481 270h699v-270h-1120v179l688 1031h-677v270h1099v-179zM770 1898h243l-256 -303h-272l-256 303h243l149 -185z" />
    <glyph glyph-name="zcaron" unicode="&#x17e;" horiz-adv-x="1015" 
d="M461 252h504v-252h-899v203l492 639h-482v252h878v-202zM652 1616h229l-234 -383h-262l-234 383h229l136 -234z" />
    <glyph glyph-name="uni018F" unicode="&#x18f;" horiz-adv-x="1543" 
d="M1245 1311q214 -188 214 -585q0 -243 -84 -410t-237.5 -251t-362.5 -84q-215 0 -372.5 82.5t-243.5 250.5t-86 417v109h1057q-18 147 -85.5 234.5t-182.5 125.5t-287 38q-98 0 -205 -11.5t-199 -33.5v263q196 43 431 43q429 0 643 -188zM958.5 268.5q73.5 35.5 117.5 117
t56 218.5h-720q12 -135 56 -216.5t120 -118t190 -36.5q107 0 180.5 35.5z" />
    <glyph glyph-name="florin" unicode="&#x192;" horiz-adv-x="803" 
d="M574 1336.5q-53 -45.5 -53 -142.5v-100h287v-252h-287v-844q0 -144 -56.5 -246.5t-166.5 -157t-267 -54.5q-80 0 -161 12v250q57 -8 112 -8q115 0 168 45.5t53 142.5v860h-178v252h178v84q0 144 56.5 246.5t166.5 157t268 54.5q81 0 160 -12v-250q-56 8 -112 8
q-115 0 -168 -45.5z" />
    <glyph glyph-name="Ohorn" unicode="&#x1a0;" horiz-adv-x="1563" 
d="M1425 1092.5q55 -149.5 55 -352.5q0 -252 -85 -422t-241.5 -253.5t-371.5 -83.5q-216 0 -372.5 83.5t-241.5 253.5t-85 422t85.5 422t242 253.5t371.5 83.5q51 0 102.5 -5t59.5 -6q98 -10 142 -10q94 0 141 36.5t47 120.5q0 65 -18 141h216q11 -38 15.5 -74t4.5 -80
q0 -123 -59 -194.5t-167 -92.5q104 -93 159 -242.5zM1052 361q93 117 93 372q0 264 -93.5 383.5t-269.5 119.5q-177 0 -270.5 -117t-93.5 -372q0 -265 93 -384t271 -119q177 0 270 117z" />
    <glyph glyph-name="ohorn" unicode="&#x1a1;" horiz-adv-x="1206" 
d="M1134 1064q-49 -69 -138 -96q141 -144 141 -422q0 -187 -64.5 -314t-184 -190t-285.5 -63t-285.5 63t-184 189.5t-64.5 312.5q0 282 140 424.5t401 142.5q52 0 120 -6q52 -4 67 -4q89 0 135 36.5t46 119.5q0 57 -18 139h203q20 -67 20 -152q0 -111 -49 -180zM720 252
q46 30 70.5 100.5t24.5 190.5q0 122 -24.5 194t-71 102t-116.5 30t-116.5 -30t-71 -100.5t-24.5 -191.5q0 -122 24.5 -193.5t70.5 -101.5t117 -30t117 30z" />
    <glyph glyph-name="Uhorn" unicode="&#x1af;" horiz-adv-x="1499" 
d="M277.5 136.5q-151.5 155.5 -151.5 477.5v866h327v-898q0 -174 73 -254t225 -80t225 80t73 254v898h105q94 0 141 36t47 119q0 65 -18 141h216q21 -71 21 -154q0 -110 -50.5 -178.5t-140.5 -93.5v-736q0 -322 -150 -477.5t-469 -155.5q-322 0 -473.5 155.5z" />
    <glyph glyph-name="uhorn" unicode="&#x1b0;" horiz-adv-x="1248" 
d="M1236.5 1056.5q-49.5 -69.5 -140.5 -97.5v-959h-264l-22 110h-13q-63 -64 -141.5 -96.5t-167.5 -32.5q-175 0 -276.5 103.5t-101.5 325.5v684h320v-663q0 -94 38.5 -134t110.5 -40q53 0 107 23t90 66v748h124q89 0 134.5 36.5t45.5 119.5q0 61 -17 139h202
q21 -71 21 -152q0 -111 -49.5 -180.5z" />
    <glyph glyph-name="uni01C4" unicode="&#x1c4;" horiz-adv-x="2692" 
d="M133 9v1438q104 23 228.5 36t241.5 13q407 0 611 -185.5t204 -570.5q0 -264 -97 -431t-291 -245.5t-492 -78.5q-212 0 -405 24zM882 299q101 49 151 157t50 285q0 175 -50.5 283.5t-151.5 158.5t-256 50q-79 0 -166 -15v-961q64 -7 164 -7q158 0 259 49zM1933 270h699
v-270h-1120v179l688 1031h-677v270h1099v-179zM2222 1898h243l-256 -303h-272l-256 303h243l149 -185z" />
    <glyph glyph-name="uni01C5" unicode="&#x1c5;" horiz-adv-x="2516" 
d="M133 9v1438q104 23 228.5 36t241.5 13q407 0 611 -185.5t204 -570.5q0 -264 -97 -431t-291 -245.5t-492 -78.5q-212 0 -405 24zM882 299q101 49 151 157t50 285q0 175 -50.5 283.5t-151.5 158.5t-256 50q-79 0 -166 -15v-961q64 -7 164 -7q158 0 259 49zM1962 252h504
v-252h-899v203l492 639h-482v252h878v-202zM2166 1578h243l-256 -303h-272l-256 303h243l149 -185z" />
    <glyph glyph-name="uni01C6" unicode="&#x1c6;" horiz-adv-x="2246" 
d="M290 38q-101 57 -161 178.5t-60 307.5q0 287 152.5 437.5t443.5 150.5q68 0 127 -8v512h320v-1616h-268l-20 114h-15q-48 -62 -122.5 -97.5t-168.5 -35.5q-127 0 -228 57zM712 260.5q48 18.5 80 55.5v541q-58 12 -126 12q-140 0 -207.5 -75.5t-67.5 -244.5t57 -238
t164 -69q52 0 100 18.5zM1692 252h504v-252h-899v203l492 639h-482v252h878v-202zM1883 1616h229l-234 -383h-262l-234 383h229l136 -234z" />
    <glyph glyph-name="uni01C7" unicode="&#x1c7;" horiz-adv-x="1741" 
d="M133 0v1480h326v-1209h680v-271h-1006zM1127 -211q86 115 121 230.5t35 279.5v1181h325v-1180q-2 -189 -64 -342t-209 -308z" />
    <glyph glyph-name="uni01C8" unicode="&#x1c8;" horiz-adv-x="1707" 
d="M133 0v1480h326v-1209h680v-271h-1006zM1111 -334q87 116 122 231t35 279v918h320v-905q0 -194 -62 -349t-208 -311zM1275.5 1298q-49.5 43 -49.5 123q0 81 49 124t149 43q99 0 148 -43t49 -124q0 -80 -49 -123t-148 -43t-148.5 43z" />
    <glyph glyph-name="uni01C9" unicode="&#x1c9;" horiz-adv-x="1115" 
d="M119 0v1616h320v-1616h-320zM519 -334q87 116 122 231t35 279v918h320v-905q0 -194 -62 -349t-208 -311zM683.5 1298q-49.5 43 -49.5 123q0 81 49 124t149 43q99 0 148 -43t49 -124q0 -80 -49 -123t-148 -43t-148.5 43z" />
    <glyph glyph-name="uni01CA" unicode="&#x1ca;" horiz-adv-x="2136" 
d="M1104 1480h307v-1480h-328l-643 991v-991h-307v1480h328l643 -991v991zM1522 -211q86 115 121 230.5t35 279.5v1181h325v-1180q-2 -189 -64 -342t-209 -308z" />
    <glyph glyph-name="uni01CB" unicode="&#x1cb;" horiz-adv-x="2102" 
d="M1104 1480h307v-1480h-328l-643 991v-991h-307v1480h328l643 -991v991zM1506 -334q87 116 122 231t35 279v918h320v-905q0 -194 -62 -349t-208 -311zM1670.5 1298q-49.5 43 -49.5 123q0 81 49 124t149 43q99 0 148 -43t49 -124q0 -80 -49 -123t-148 -43t-148.5 43z" />
    <glyph glyph-name="uni01CC" unicode="&#x1cc;" horiz-adv-x="1781" 
d="M119 1094h263l22 -111h15q60 62 142 95t179 33q173 0 273 -104t100 -326v-681h-320v662q0 95 -39 134.5t-115 39.5q-57 0 -111 -23t-89 -67v-746h-320v1094zM1185 -334q87 116 122 231t35 279v918h320v-905q0 -194 -62 -349t-208 -311zM1349.5 1298q-49.5 43 -49.5 123
q0 81 49 124t149 43q99 0 148 -43t49 -124q0 -80 -49 -123t-148 -43t-148.5 43z" />
    <glyph glyph-name="Gcaron" unicode="&#x1e6;" horiz-adv-x="1426" 
d="M1299 720v-704q-200 -33 -369 -33q-425 0 -635.5 185t-211.5 568q0 379 215 571t626 192q175 0 333 -37v-268q-156 36 -304 36q-184 -1 -300 -51t-172.5 -159.5t-56.5 -287.5q0 -250 118 -365.5t363 -115.5q31 0 91 2v467h303zM954 1898h243l-256 -303h-272l-256 303h243
l149 -185z" />
    <glyph glyph-name="gcaron" unicode="&#x1e7;" horiz-adv-x="1231" 
d="M145 -415v250q177 -49 342 -49q108 0 175 26t98.5 82.5t31.5 149.5v73h-15q-48 -59 -120.5 -91.5t-162.5 -32.5q-117 0 -213.5 58t-154 177.5t-57.5 296.5q0 286 156 436t466 150q108 0 221 -15.5t200 -44.5v-948q0 -197 -65.5 -321.5t-197.5 -183t-337 -58.5
q-198 0 -367 45zM712 269.5q47 16.5 80 49.5v536q-60 14 -129 14q-136 0 -204 -75.5t-68 -241.5q0 -165 57 -232t167 -67q50 0 97 16.5zM776 1616h229l-234 -383h-262l-234 383h229l136 -234z" />
    <glyph glyph-name="uni01EA" unicode="&#x1ea;" horiz-adv-x="1563" 
d="M818.5 -88.5q-61.5 -56.5 -61.5 -123.5q0 -102 142 -102q63 0 141 30v-125q-86 -33 -184 -33q-140 0 -211.5 55t-71.5 153q0 65 32 119t103 98q-194 14 -334 102t-215.5 252.5t-75.5 402.5q0 252 85.5 422t242 253.5t371.5 83.5t371.5 -83.5t241.5 -253.5t85 -422
q0 -309 -124.5 -487.5t-329.5 -239.5q-146 -45 -207.5 -101.5zM511 363q93 -119 271 -119q177 0 270 117t93 372q0 264 -93.5 383.5t-269.5 119.5q-177 0 -270.5 -117t-93.5 -372q0 -265 93 -384z" />
    <glyph glyph-name="uni01EB" unicode="&#x1eb;" horiz-adv-x="1206" 
d="M631 -91q-52 -54 -52 -118q0 -50 31.5 -77.5t89.5 -27.5t122 27l6 -122q-40 -16 -80.5 -24.5t-90.5 -8.5q-126 0 -193.5 55t-67.5 153q0 67 30 120.5t95 96.5q-215 23 -333.5 165t-118.5 396q0 282 139 424.5t395 142.5q255 0 394.5 -143t139.5 -422q0 -213 -82 -346.5
t-236 -187.5q-136 -49 -188 -103zM415.5 353.5q24.5 -71.5 70.5 -101.5t117 -30t117 30t70.5 100.5t24.5 190.5q0 122 -24.5 194t-71 102t-116.5 30t-116.5 -30t-71 -100.5t-24.5 -191.5q0 -122 24.5 -193.5z" />
    <glyph glyph-name="uni01F1" unicode="&#x1f1;" horiz-adv-x="2692" 
d="M133 9v1438q104 23 228.5 36t241.5 13q407 0 611 -185.5t204 -570.5q0 -264 -97 -431t-291 -245.5t-492 -78.5q-212 0 -405 24zM882 299q101 49 151 157t50 285q0 175 -50.5 283.5t-151.5 158.5t-256 50q-79 0 -166 -15v-961q64 -7 164 -7q158 0 259 49zM1933 270h699
v-270h-1120v179l688 1031h-677v270h1099v-179z" />
    <glyph glyph-name="uni01F2" unicode="&#x1f2;" horiz-adv-x="2516" 
d="M133 9v1438q104 23 228.5 36t241.5 13q407 0 611 -185.5t204 -570.5q0 -264 -97 -431t-291 -245.5t-492 -78.5q-212 0 -405 24zM882 299q101 49 151 157t50 285q0 175 -50.5 283.5t-151.5 158.5t-256 50q-79 0 -166 -15v-961q64 -7 164 -7q158 0 259 49zM1962 252h504
v-252h-899v203l492 639h-482v252h878v-202z" />
    <glyph glyph-name="uni01F3" unicode="&#x1f3;" horiz-adv-x="2246" 
d="M290 38q-101 57 -161 178.5t-60 307.5q0 287 152.5 437.5t443.5 150.5q68 0 127 -8v512h320v-1616h-268l-20 114h-15q-48 -62 -122.5 -97.5t-168.5 -35.5q-127 0 -228 57zM712 260.5q48 18.5 80 55.5v541q-58 12 -126 12q-140 0 -207.5 -75.5t-67.5 -244.5t57 -238
t164 -69q52 0 100 18.5zM1692 252h504v-252h-899v203l492 639h-482v252h878v-202z" />
    <glyph glyph-name="uni01F4" unicode="&#x1f4;" horiz-adv-x="1426" 
d="M1299 720v-704q-200 -33 -369 -33q-425 0 -635.5 185t-211.5 568q0 379 215 571t626 192q175 0 333 -37v-268q-156 36 -304 36q-184 -1 -300 -51t-172.5 -159.5t-56.5 -287.5q0 -250 118 -365.5t363 -115.5q31 0 91 2v467h303zM659 1595l180 303h337l-228 -303h-289z" />
    <glyph glyph-name="uni01F5" unicode="&#x1f5;" horiz-adv-x="1231" 
d="M145 -415v250q177 -49 342 -49q108 0 175 26t98.5 82.5t31.5 149.5v73h-15q-48 -59 -120.5 -91.5t-162.5 -32.5q-117 0 -213.5 58t-154 177.5t-57.5 296.5q0 286 156 436t466 150q108 0 221 -15.5t200 -44.5v-948q0 -197 -65.5 -321.5t-197.5 -183t-337 -58.5
q-198 0 -367 45zM712 269.5q47 16.5 80 49.5v536q-60 14 -129 14q-136 0 -204 -75.5t-68 -241.5q0 -165 57 -232t167 -67q50 0 97 16.5zM493 1233l225 383h340l-272 -383h-293z" />
    <glyph glyph-name="Aringacute" unicode="&#x1fa;" horiz-adv-x="1460" 
d="M1125 0l-122 395h-549l-122 -395h-318l478 1480h476l478 -1480h-321zM533 654h390l-195 631zM917 1846q28 -48 28 -108t-28 -107.5t-77 -74.5t-110 -27t-110 27t-77 74.5t-28 107.5t28 107.5t77 74.5t110 27q24 0 51 -5l104 126h232zM797.5 1667q25.5 26 25.5 71
q0 44 -25.5 70.5t-67.5 26.5t-67.5 -26.5t-25.5 -70.5q0 -45 25.5 -71t67.5 -26t67.5 26z" />
    <glyph glyph-name="aringacute" unicode="&#x1fb;" horiz-adv-x="1119" 
d="M793 1067q110 -44 163 -144.5t53 -272.5v-650h-264l-22 108h-15q-48 -65 -123 -96.5t-167 -31.5q-110 0 -190 39.5t-122.5 111t-42.5 166.5q0 157 109.5 243t345.5 101l178 15v14q0 76 -24.5 119t-78 61.5t-146.5 18.5q-67 0 -146.5 -11t-150.5 -33v240q78 22 173 34
t181 12q179 0 289 -44zM615 218.5q45 16.5 81 52.5v205l-146 -11q-90 -7 -131 -41.5t-41 -96.5q0 -61 37 -93t108 -32q47 0 92 16.5zM741 1548q30 -49 30 -111q0 -60 -28 -107.5t-77 -74.5t-110 -27t-110 27t-77 74.5t-28 107.5t28 107.5t77 74.5t110 27q27 0 47 -4l108 138
h231zM623.5 1366q25.5 26 25.5 71t-25.5 71t-67.5 26t-67.5 -26t-25.5 -71t25.5 -71t67.5 -26t67.5 26z" />
    <glyph glyph-name="AEacute" unicode="&#x1fc;" horiz-adv-x="2008" 
d="M1280 260h657v-260h-959l-29 394h-491l-124 -394h-320l482 1480h1431v-260h-724l27 -333h595v-260h-574zM540 655h389l-42 565h-170zM881 1595l180 303h337l-228 -303h-289z" />
    <glyph glyph-name="aeacute" unicode="&#x1fd;" horiz-adv-x="1722" 
d="M1665 454h-655q5 -88 37 -138.5t99.5 -73t183.5 -22.5q124 0 274 35v-239q-159 -37 -318 -37q-167 0 -283 39t-187 121q-144 -159 -369 -159q-124 0 -210 39t-130 111t-44 169q0 160 114 250t352 90h170v30q0 76 -26 119.5t-80.5 62t-146.5 18.5q-66 0 -145.5 -11.5
t-149.5 -32.5v240q164 46 340 46q140 0 234.5 -32.5t150.5 -101.5q60 66 144 100.5t188 34.5q144 0 246.5 -65t156.5 -193.5t54 -315.5v-84zM1056.5 847.5q-44.5 -61.5 -47.5 -208.5h359q-3 147 -46.5 208.5t-131.5 61.5q-89 0 -133.5 -61.5zM635 224.5q51 21.5 97 72.5
q-22 72 -30 164h-143q-181 0 -181 -136q0 -59 38 -90.5t110 -31.5q58 0 109 21.5zM712 1233l225 383h340l-272 -383h-293z" />
    <glyph glyph-name="Oslashacute" unicode="&#x1fe;" horiz-adv-x="1563" 
d="M1437.5 1054q42.5 -137 42.5 -314q0 -251 -85.5 -421t-242 -254t-370.5 -84q-238 0 -403 102l-102 -131l-134 105l107 137q-167 195 -167 546q0 252 85.5 422t242 253.5t371.5 83.5q239 0 402 -102l102 131l134 -105l-107 -137q82 -95 124.5 -232zM458 463l547 703
q-86 70 -223 70q-177 0 -270.5 -117t-93.5 -372q0 -172 40 -284zM1052 361q93 117 93 372q0 172 -41 284l-546 -703q84 -70 224 -70q177 0 270 117zM634 1595l180 303h337l-228 -303h-289z" />
    <glyph glyph-name="oslashacute" unicode="&#x1ff;" horiz-adv-x="1206" 
d="M1137 546q0 -187 -64.5 -314t-184 -190t-285.5 -63q-157 0 -271 55l-68 -93l-130 97l68 93q-133 145 -133 413q0 282 139 424.5t395 142.5q157 0 267 -53l69 95l130 -97l-68 -92q136 -145 136 -418zM481.5 842.5q-48.5 -30.5 -74 -102t-25.5 -193.5q0 -99 17 -167
l330 459q-48 34 -126 34q-73 0 -121.5 -30.5zM724.5 248.5q48.5 30.5 74 102t25.5 192.5q0 107 -19 173l-331 -462q47 -36 129 -36q73 0 121.5 30.5zM453 1233l225 383h340l-272 -383h-293z" />
    <glyph glyph-name="uni0200" unicode="&#x200;" horiz-adv-x="1460" 
d="M1125 0l-122 395h-549l-122 -395h-318l478 1480h476l478 -1480h-321zM533 654h390l-195 631zM409 1595l-153 303h253l136 -303h-236zM813 1595l-152 303h252l136 -303h-236z" />
    <glyph glyph-name="uni0201" unicode="&#x201;" horiz-adv-x="1119" 
d="M793 1067q110 -44 163 -144.5t53 -272.5v-650h-264l-22 108h-15q-48 -65 -123 -96.5t-167 -31.5q-110 0 -190 39.5t-122.5 111t-42.5 166.5q0 157 109.5 243t345.5 101l178 15v14q0 76 -24.5 119t-78 61.5t-146.5 18.5q-67 0 -146.5 -11t-150.5 -33v240q78 22 173 34
t181 12q179 0 289 -44zM615 218.5q45 16.5 81 52.5v205l-146 -11q-90 -7 -131 -41.5t-41 -96.5q0 -61 37 -93t108 -32q47 0 92 16.5zM236 1233l-162 383h253l145 -383h-236zM640 1233l-162 383h253l145 -383h-236z" />
    <glyph glyph-name="uni0202" unicode="&#x202;" horiz-adv-x="1460" 
d="M1125 0l-122 395h-549l-122 -395h-318l478 1480h476l478 -1480h-321zM533 654h390l-195 631zM458.5 1816.5q96.5 77.5 269.5 77.5q174 0 271 -77.5t113 -213.5h-196q-11 68 -56.5 101.5t-131.5 33.5t-130 -33.5t-56 -101.5h-196q16 136 112.5 213.5z" />
    <glyph glyph-name="uni0203" unicode="&#x203;" horiz-adv-x="1119" 
d="M793 1067q110 -44 163 -144.5t53 -272.5v-650h-264l-22 108h-15q-48 -65 -123 -96.5t-167 -31.5q-110 0 -190 39.5t-122.5 111t-42.5 166.5q0 157 109.5 243t345.5 101l178 15v14q0 76 -24.5 119t-78 61.5t-146.5 18.5q-67 0 -146.5 -11t-150.5 -33v240q78 22 173 34
t181 12q179 0 289 -44zM615 218.5q45 16.5 81 52.5v205l-146 -11q-90 -7 -131 -41.5t-41 -96.5q0 -61 37 -93t108 -32q47 0 92 16.5zM294.5 1523q93.5 90 260.5 90q166 0 261 -90t104 -262h-194q-7 97 -49 143.5t-122 46.5q-81 0 -121.5 -46t-47.5 -144h-194
q9 172 102.5 262z" />
    <glyph glyph-name="uni0204" unicode="&#x204;" 
d="M455 260h729v-260h-1051v1480h1041v-260h-719v-333h617v-260h-617v-367zM355 1595l-153 303h253l136 -303h-236zM759 1595l-152 303h252l136 -303h-236z" />
    <glyph glyph-name="uni0205" unicode="&#x205;" horiz-adv-x="1110" 
d="M1053 454h-664q5 -88 37.5 -138.5t101.5 -73t188 -22.5q125 0 276 35v-239q-160 -37 -321 -37q-209 0 -341.5 59.5t-196.5 184.5t-64 325q0 180 59.5 306.5t173.5 191.5t276 65q232 0 353.5 -146.5t121.5 -426.5v-84zM437 847q-46 -62 -49 -208h367q-3 147 -47 208.5
t-134 61.5q-91 0 -137 -62zM252 1233l-162 383h253l145 -383h-236zM656 1233l-162 383h253l145 -383h-236z" />
    <glyph glyph-name="uni0206" unicode="&#x206;" 
d="M455 260h729v-260h-1051v1480h1041v-260h-719v-333h617v-260h-617v-367zM404.5 1816.5q96.5 77.5 269.5 77.5q174 0 271 -77.5t113 -213.5h-196q-11 68 -56.5 101.5t-131.5 33.5t-130 -33.5t-56 -101.5h-196q16 136 112.5 213.5z" />
    <glyph glyph-name="uni0207" unicode="&#x207;" horiz-adv-x="1110" 
d="M1053 454h-664q5 -88 37.5 -138.5t101.5 -73t188 -22.5q125 0 276 35v-239q-160 -37 -321 -37q-209 0 -341.5 59.5t-196.5 184.5t-64 325q0 180 59.5 306.5t173.5 191.5t276 65q232 0 353.5 -146.5t121.5 -426.5v-84zM437 847q-46 -62 -49 -208h367q-3 147 -47 208.5
t-134 61.5q-91 0 -137 -62zM310.5 1523q93.5 90 260.5 90q166 0 261 -90t104 -262h-194q-7 97 -49 143.5t-122 46.5q-81 0 -121.5 -46t-47.5 -144h-194q9 172 102.5 262z" />
    <glyph glyph-name="uni0208" unicode="&#x208;" horiz-adv-x="592" 
d="M133 0v1480h326v-1480h-326zM-24 1595l-153 303h253l136 -303h-236zM380 1595l-152 303h252l136 -303h-236z" />
    <glyph glyph-name="uni0209" unicode="&#x209;" horiz-adv-x="558" 
d="M119 0v1094h320v-1094h-320zM-41 1233l-162 383h253l145 -383h-236zM363 1233l-162 383h253l145 -383h-236z" />
    <glyph glyph-name="uni020A" unicode="&#x20a;" horiz-adv-x="592" 
d="M133 0v1480h326v-1480h-326zM25.5 1816.5q96.5 77.5 269.5 77.5q174 0 271 -77.5t113 -213.5h-196q-11 68 -56.5 101.5t-131.5 33.5t-130 -33.5t-56 -101.5h-196q16 136 112.5 213.5z" />
    <glyph glyph-name="uni020B" unicode="&#x20b;" horiz-adv-x="558" 
d="M119 0v1094h320v-1094h-320zM17.5 1523q93.5 90 260.5 90q166 0 261 -90t104 -262h-194q-7 97 -49 143.5t-122 46.5q-81 0 -121.5 -46t-47.5 -144h-194q9 172 102.5 262z" />
    <glyph glyph-name="uni020C" unicode="&#x20c;" horiz-adv-x="1563" 
d="M410.5 64.5q-156.5 83.5 -242 253.5t-85.5 422t85.5 422t242 253.5t371.5 83.5t371.5 -84t241.5 -254t85 -421t-85.5 -421t-242 -254t-370.5 -84q-215 0 -371.5 83.5zM1052 361q93 117 93 372q0 264 -93.5 383.5t-269.5 119.5q-177 0 -270.5 -117t-93.5 -372
q0 -265 93 -384t271 -119q177 0 270 117zM462 1595l-153 303h253l136 -303h-236zM866 1595l-152 303h252l136 -303h-236z" />
    <glyph glyph-name="uni020D" unicode="&#x20d;" horiz-adv-x="1206" 
d="M317.5 42q-119.5 63 -184 189.5t-64.5 312.5q0 282 139 424.5t395 142.5q255 0 394.5 -143t139.5 -422q0 -187 -64.5 -314t-184 -190t-285.5 -63t-285.5 63zM720 252q46 30 70.5 100.5t24.5 190.5q0 122 -24.5 194t-71 102t-116.5 30t-116.5 -30t-71 -100.5t-24.5 -191.5
q0 -122 24.5 -193.5t70.5 -101.5t117 -30t117 30zM283 1233l-162 383h253l145 -383h-236zM687 1233l-162 383h253l145 -383h-236z" />
    <glyph glyph-name="uni020E" unicode="&#x20e;" horiz-adv-x="1563" 
d="M410.5 64.5q-156.5 83.5 -242 253.5t-85.5 422t85.5 422t242 253.5t371.5 83.5t371.5 -84t241.5 -254t85 -421t-85.5 -421t-242 -254t-370.5 -84q-215 0 -371.5 83.5zM1052 361q93 117 93 372q0 264 -93.5 383.5t-269.5 119.5q-177 0 -270.5 -117t-93.5 -372
q0 -265 93 -384t271 -119q177 0 270 117zM511.5 1816.5q96.5 77.5 269.5 77.5q174 0 271 -77.5t113 -213.5h-196q-11 68 -56.5 101.5t-131.5 33.5t-130 -33.5t-56 -101.5h-196q16 136 112.5 213.5z" />
    <glyph glyph-name="uni020F" unicode="&#x20f;" horiz-adv-x="1206" 
d="M317.5 42q-119.5 63 -184 189.5t-64.5 312.5q0 282 139 424.5t395 142.5q255 0 394.5 -143t139.5 -422q0 -187 -64.5 -314t-184 -190t-285.5 -63t-285.5 63zM720 252q46 30 70.5 100.5t24.5 190.5q0 122 -24.5 194t-71 102t-116.5 30t-116.5 -30t-71 -100.5t-24.5 -191.5
q0 -122 24.5 -193.5t70.5 -101.5t117 -30t117 30zM341.5 1523q93.5 90 260.5 90q166 0 261 -90t104 -262h-194q-7 97 -49 143.5t-122 46.5q-81 0 -121.5 -46t-47.5 -144h-194q9 172 102.5 262z" />
    <glyph glyph-name="uni0210" unicode="&#x210;" horiz-adv-x="1378" 
d="M1005 0l-378 543h-18q-70 0 -155 5v-548h-321v1447q106 23 226 37t237 14q321 0 481 -116.5t160 -358.5q0 -158 -76.5 -266t-220.5 -162l420 -595h-355zM454 794q84 -9 161 -9q162 0 239 56t77 181q0 123 -73.5 179.5t-228.5 56.5q-88 0 -175 -15v-449zM358 1595
l-153 303h253l136 -303h-236zM762 1595l-152 303h252l136 -303h-236z" />
    <glyph glyph-name="uni0211" unicode="&#x211;" horiz-adv-x="809" 
d="M119 1094h261l25 -141h15q45 79 120 117.5t170 38.5q48 0 88 -8v-289q-44 9 -108 9q-73 0 -143 -28t-108 -77v-716h-320v1094zM135 1233l-162 383h253l145 -383h-236zM539 1233l-162 383h253l145 -383h-236z" />
    <glyph glyph-name="uni0212" unicode="&#x212;" horiz-adv-x="1378" 
d="M1005 0l-378 543h-18q-70 0 -155 5v-548h-321v1447q106 23 226 37t237 14q321 0 481 -116.5t160 -358.5q0 -158 -76.5 -266t-220.5 -162l420 -595h-355zM454 794q84 -9 161 -9q162 0 239 56t77 181q0 123 -73.5 179.5t-228.5 56.5q-88 0 -175 -15v-449zM407.5 1816.5
q96.5 77.5 269.5 77.5q174 0 271 -77.5t113 -213.5h-196q-11 68 -56.5 101.5t-131.5 33.5t-130 -33.5t-56 -101.5h-196q16 136 112.5 213.5z" />
    <glyph glyph-name="uni0213" unicode="&#x213;" horiz-adv-x="809" 
d="M119 1094h261l25 -141h15q45 79 120 117.5t170 38.5q48 0 88 -8v-289q-44 9 -108 9q-73 0 -143 -28t-108 -77v-716h-320v1094zM193.5 1523q93.5 90 260.5 90q166 0 261 -90t104 -262h-194q-7 97 -49 143.5t-122 46.5q-81 0 -121.5 -46t-47.5 -144h-194q9 172 102.5 262z
" />
    <glyph glyph-name="uni0214" unicode="&#x214;" horiz-adv-x="1496" 
d="M277.5 136.5q-151.5 155.5 -151.5 477.5v866h327v-898q0 -174 73 -254t225 -80t225 80t73 254v898h321v-866q0 -322 -150 -477.5t-469 -155.5q-322 0 -473.5 155.5zM431 1595l-153 303h253l136 -303h-236zM835 1595l-152 303h252l136 -303h-236z" />
    <glyph glyph-name="uni0215" unicode="&#x215;" horiz-adv-x="1214" 
d="M211.5 84.5q-101.5 103.5 -101.5 325.5v684h320v-663q0 -94 38.5 -134t110.5 -40q53 0 107 23t90 66v748h320v-1094h-264l-22 110h-13q-63 -64 -141.5 -96.5t-167.5 -32.5q-175 0 -276.5 103.5zM283 1233l-162 383h253l145 -383h-236zM687 1233l-162 383h253l145 -383
h-236z" />
    <glyph glyph-name="uni0216" unicode="&#x216;" horiz-adv-x="1496" 
d="M277.5 136.5q-151.5 155.5 -151.5 477.5v866h327v-898q0 -174 73 -254t225 -80t225 80t73 254v898h321v-866q0 -322 -150 -477.5t-469 -155.5q-322 0 -473.5 155.5zM480.5 1816.5q96.5 77.5 269.5 77.5q174 0 271 -77.5t113 -213.5h-196q-11 68 -56.5 101.5t-131.5 33.5
t-130 -33.5t-56 -101.5h-196q16 136 112.5 213.5z" />
    <glyph glyph-name="uni0217" unicode="&#x217;" horiz-adv-x="1214" 
d="M211.5 84.5q-101.5 103.5 -101.5 325.5v684h320v-663q0 -94 38.5 -134t110.5 -40q53 0 107 23t90 66v748h320v-1094h-264l-22 110h-13q-63 -64 -141.5 -96.5t-167.5 -32.5q-175 0 -276.5 103.5zM341.5 1523q93.5 90 260.5 90q166 0 261 -90t104 -262h-194
q-7 97 -49 143.5t-122 46.5q-81 0 -121.5 -46t-47.5 -144h-194q9 172 102.5 262z" />
    <glyph glyph-name="Scommaaccent" unicode="&#x218;" horiz-adv-x="1154" 
d="M288.5 -2.5q-107.5 16.5 -198.5 46.5v264q93 -30 204.5 -47.5t208.5 -17.5q143 0 207 43.5t64 128.5q0 47 -19.5 78.5t-65.5 55t-129 45.5l-111 29q-198 49 -296 153.5t-98 272.5q0 215 156 332.5t461 117.5q97 0 187.5 -11.5t163.5 -31.5v-265q-71 22 -158.5 34
t-174.5 12q-166 0 -238 -44.5t-72 -126.5q0 -45 17 -75t57.5 -52t113.5 -42l112 -28q216 -54 317.5 -158t101.5 -274q0 -141 -71 -244t-204.5 -157.5t-319.5 -54.5q-108 0 -215.5 16.5zM767 -277q0 -54 -21.5 -114.5t-56.5 -105.5h-197q44 87 55 145q-138 13 -138 112
q0 53 44 82.5t134 29.5q180 0 180 -149z" />
    <glyph glyph-name="scommaaccent" unicode="&#x219;" horiz-adv-x="980" 
d="M90 27v234q162 -49 346 -49q104 0 150.5 27.5t46.5 80.5q0 41 -22 62t-77 32l-177 32q-153 28 -224 105.5t-71 209.5q0 107 57 185.5t172.5 121.5t286.5 43q78 0 154.5 -9t138.5 -25v-234q-133 36 -284 36q-228 0 -228 -110q0 -36 22.5 -58t75.5 -32l177 -32
q152 -29 224.5 -102.5t72.5 -213.5q0 -109 -57.5 -188t-168 -121.5t-264.5 -42.5q-195 0 -351 48zM674 -277q0 -54 -21.5 -114.5t-56.5 -105.5h-197q44 87 55 145q-138 13 -138 112q0 53 44 82.5t134 29.5q180 0 180 -149z" />
    <glyph glyph-name="uni021A" unicode="&#x21a;" horiz-adv-x="1287" 
d="M480 0v1209h-467v271h1260v-271h-466v-1209h-327zM823 -277q0 -54 -21.5 -114.5t-56.5 -105.5h-197q44 87 55 145q-138 13 -138 112q0 53 44 82.5t134 29.5q180 0 180 -149z" />
    <glyph glyph-name="uni021B" unicode="&#x21b;" horiz-adv-x="843" 
d="M808 256v-253q-101 -23 -202 -23q-202 0 -306.5 100t-104.5 310v452h-178v252h178l58 386h262v-386h287v-252h-287v-402q0 -74 18.5 -117t57 -61.5t102.5 -18.5q42 0 115 13zM681 -277q0 -54 -21.5 -114.5t-56.5 -105.5h-197q44 87 55 145q-138 13 -138 112q0 53 44 82.5
t134 29.5q180 0 180 -149z" />
    <glyph glyph-name="uni022A" unicode="&#x22a;" horiz-adv-x="1563" 
d="M410.5 64.5q-156.5 83.5 -242 253.5t-85.5 422t85.5 422t242 253.5t371.5 83.5t371.5 -84t241.5 -254t85 -421t-85.5 -421t-242 -254t-370.5 -84q-215 0 -371.5 83.5zM1052 361q93 117 93 372q0 264 -93.5 383.5t-269.5 119.5q-177 0 -270.5 -117t-93.5 -372
q0 -265 93 -384t271 -119q177 0 270 117zM397 1643.5q-44 37.5 -44 107.5q0 69 44 107t128 38t128 -38t44 -107q0 -70 -43.5 -107.5t-128.5 -37.5q-84 0 -128 37.5zM910.5 1643.5q-43.5 37.5 -43.5 107.5q0 69 44 107t128 38t128 -38t44 -107q0 -70 -44 -107.5t-128 -37.5
q-85 0 -128.5 37.5zM414 2000v192h736v-192h-736z" />
    <glyph glyph-name="uni022B" unicode="&#x22b;" horiz-adv-x="1206" 
d="M317.5 42q-119.5 63 -184 189.5t-64.5 312.5q0 282 139 424.5t395 142.5q255 0 394.5 -143t139.5 -422q0 -187 -64.5 -314t-184 -190t-285.5 -63t-285.5 63zM720 252q46 30 70.5 100.5t24.5 190.5q0 122 -24.5 194t-71 102t-116.5 30t-116.5 -30t-71 -100.5t-24.5 -191.5
q0 -122 24.5 -193.5t70.5 -101.5t117 -30t117 30zM231 1300.5q-45 42.5 -45 118.5t45 119t128 43t127.5 -43t44.5 -119t-45 -118.5t-127 -42.5q-83 0 -128 42.5zM720 1300.5q-45 42.5 -45 118.5t44.5 119t127.5 43t128 -43t45 -119t-45 -118.5t-128 -42.5q-82 0 -127 42.5z
M248 1695v192h710v-192h-710z" />
    <glyph glyph-name="uni022C" unicode="&#x22c;" horiz-adv-x="1563" 
d="M410.5 64.5q-156.5 83.5 -242 253.5t-85.5 422t85.5 422t242 253.5t371.5 83.5t371.5 -84t241.5 -254t85 -421t-85.5 -421t-242 -254t-370.5 -84q-215 0 -371.5 83.5zM1052 361q93 117 93 372q0 264 -93.5 383.5t-269.5 119.5q-177 0 -270.5 -117t-93.5 -372
q0 -265 93 -384t271 -119q177 0 270 117zM866 1629q-40 10 -101 30q-55 19 -89 27.5t-72 8.5q-60 0 -106 -17t-93 -53v183q41 37 89.5 55t115.5 18q48 0 89.5 -10.5t99.5 -30.5q52 -19 87.5 -28t73.5 -9q60 0 106 17t93 53v-183q-40 -37 -88.5 -54t-116.5 -17q-48 0 -88 10z
M414 2000v192h736v-192h-736z" />
    <glyph glyph-name="uni022D" unicode="&#x22d;" horiz-adv-x="1206" 
d="M317.5 42q-119.5 63 -184 189.5t-64.5 312.5q0 282 139 424.5t395 142.5q255 0 394.5 -143t139.5 -422q0 -187 -64.5 -314t-184 -190t-285.5 -63t-285.5 63zM720 252q46 30 70.5 100.5t24.5 190.5q0 122 -24.5 194t-71 102t-116.5 30t-116.5 -30t-71 -100.5t-24.5 -191.5
q0 -122 24.5 -193.5t70.5 -101.5t117 -30t117 30zM678.5 1297.5q-39.5 12.5 -93.5 36.5q-48 22 -80 32.5t-65 10.5q-56 0 -101 -20t-91 -65v200q39 40 87 58.5t110 18.5q43 0 82.5 -12.5t93.5 -36.5q48 -22 80 -32.5t65 -10.5q56 0 101 20t91 65v-200q-39 -40 -87 -58.5
t-110 -18.5q-43 0 -82.5 12.5zM248 1695v192h710v-192h-710z" />
    <glyph glyph-name="uni0230" unicode="&#x230;" horiz-adv-x="1563" 
d="M410.5 64.5q-156.5 83.5 -242 253.5t-85.5 422t85.5 422t242 253.5t371.5 83.5t371.5 -84t241.5 -254t85 -421t-85.5 -421t-242 -254t-370.5 -84q-215 0 -371.5 83.5zM1052 361q93 117 93 372q0 264 -93.5 383.5t-269.5 119.5q-177 0 -270.5 -117t-93.5 -372
q0 -265 93 -384t271 -119q177 0 270 117zM636 1643.5q-50 37.5 -50 107.5q0 69 50 107t146 38t146 -38t50 -107q0 -70 -50 -107.5t-146 -37.5t-146 37.5zM414 2000v192h736v-192h-736z" />
    <glyph glyph-name="uni0231" unicode="&#x231;" horiz-adv-x="1206" 
d="M317.5 42q-119.5 63 -184 189.5t-64.5 312.5q0 282 139 424.5t395 142.5q255 0 394.5 -143t139.5 -422q0 -187 -64.5 -314t-184 -190t-285.5 -63t-285.5 63zM720 252q46 30 70.5 100.5t24.5 190.5q0 122 -24.5 194t-71 102t-116.5 30t-116.5 -30t-71 -100.5t-24.5 -191.5
q0 -122 24.5 -193.5t70.5 -101.5t117 -30t117 30zM454.5 1296q-49.5 43 -49.5 123q0 81 49 124t149 43q99 0 148 -43t49 -124q0 -80 -49 -123t-148 -43t-148.5 43zM248 1698v192h710v-192h-710z" />
    <glyph glyph-name="uni0232" unicode="&#x232;" horiz-adv-x="1287" 
d="M1327 1480l-519 -854v-626h-326v625l-534 855h346l358 -579l353 579h322zM276 1651v192h736v-192h-736z" />
    <glyph glyph-name="uni0233" unicode="&#x233;" horiz-adv-x="1167" 
d="M854 1094h315l-541 -1534h-314l157 440h-88l-384 1094h334l258 -811zM229 1324v192h710v-192h-710z" />
    <glyph glyph-name="uni0237" unicode="&#x237;" horiz-adv-x="558" 
d="M-38 -334q87 116 122 231t35 279v918h320v-905q0 -194 -62 -349t-208 -311z" />
    <glyph glyph-name="uni0259" unicode="&#x259;" horiz-adv-x="1110" 
d="M780.5 1055.5q132.5 -59.5 196.5 -184.5t64 -325q0 -180 -59.5 -306.5t-173.5 -191.5t-276 -65q-232 0 -353.5 146.5t-121.5 426.5v84h664q-5 88 -37.5 138.5t-101.5 73t-188 22.5q-125 0 -276 -35v239q160 37 321 37q209 0 341.5 -59.5zM673 247q46 62 49 208h-367
q3 -147 47 -208.5t134 -61.5q91 0 137 62z" />
    <glyph glyph-name="uni02BB" unicode="&#x2bb;" horiz-adv-x="1134" 
d="M746 1369q0 -54 -43.5 -83.5t-134.5 -29.5q-180 0 -180 149q0 54 21.5 114.5t56.5 105.5h197q-44 -86 -55 -145q138 -13 138 -111z" />
    <glyph glyph-name="uni02BC" unicode="&#x2bc;" horiz-adv-x="1134" 
d="M925 1476q0 -53 -21 -113.5t-56 -106.5h-198q43 82 55 146q-138 11 -138 111q0 54 43.5 83t134.5 29q180 0 180 -149z" />
    <glyph glyph-name="uni02BE" unicode="&#x2be;" horiz-adv-x="1134" 
d="M567 1340q42 0 67.5 26t25.5 71t-25.5 71t-67.5 26v112q61 0 110 -27t77 -74.5t28 -107.5t-28 -107.5t-77 -74.5t-110 -27v112z" />
    <glyph glyph-name="uni02BF" unicode="&#x2bf;" horiz-adv-x="1134" 
d="M457 1255q-49 27 -77 74.5t-28 107.5t28 107.5t77 74.5t110 27v-112q-42 0 -67.5 -26t-25.5 -71t25.5 -71t67.5 -26v-112q-61 0 -110 27z" />
    <glyph glyph-name="circumflex" unicode="&#x2c6;" horiz-adv-x="1134" 
d="M931 1233h-230l-134 233l-135 -233h-229l233 383h262z" />
    <glyph glyph-name="caron" unicode="&#x2c7;" horiz-adv-x="1134" 
d="M703 1616h229l-234 -383h-262l-234 383h229l136 -234z" />
    <glyph glyph-name="uni02C8" unicode="&#x2c8;" horiz-adv-x="1134" 
d="M495 1218v400h144v-400h-144z" />
    <glyph glyph-name="uni02C9" unicode="&#x2c9;" horiz-adv-x="1134" 
d="M212 1324v192h710v-192h-710z" />
    <glyph glyph-name="uni02CA" unicode="&#x2ca;" horiz-adv-x="1134" 
d="M413 1233l224 383h355l-271 -383h-308z" />
    <glyph glyph-name="uni02CB" unicode="&#x2cb;" horiz-adv-x="1134" 
d="M413 1233l-271 383h355l224 -383h-308z" />
    <glyph glyph-name="uni02CC" unicode="&#x2cc;" horiz-adv-x="1134" 
d="M495 -440v400h144v-400h-144z" />
    <glyph glyph-name="breve" unicode="&#x2d8;" horiz-adv-x="1134" 
d="M306.5 1332.5q-94.5 90.5 -103.5 261.5h194q7 -95 49 -142t122 -47q79 0 120.5 46.5t48.5 142.5h194q-9 -172 -103 -262t-260 -90q-167 0 -261.5 90.5z" />
    <glyph glyph-name="dotaccent" unicode="&#x2d9;" horiz-adv-x="1134" 
d="M418.5 1296q-49.5 43 -49.5 123q0 81 49 124t149 43q99 0 148 -43t49 -124q0 -80 -49 -123t-148 -43t-148.5 43z" />
    <glyph glyph-name="ring" unicode="&#x2da;" horiz-adv-x="1134" 
d="M457 1255q-49 27 -77 74.5t-28 107.5t28 107.5t77 74.5t110 27t110 -27t77 -74.5t28 -107.5t-28 -107.5t-77 -74.5t-110 -27t-110 27zM634.5 1366q25.5 26 25.5 71t-25.5 71t-67.5 26t-67.5 -26t-25.5 -71t25.5 -71t67.5 -26t67.5 26z" />
    <glyph glyph-name="ogonek" unicode="&#x2db;" horiz-adv-x="1134" 
d="M182 -386.5q-67 55.5 -67 152.5q0 98 70 172.5t237 132.5l86 -71q-116 -49 -163 -100.5t-47 -113.5q0 -47 31 -73.5t90 -26.5q62 0 128 31v-126q-79 -33 -171 -33q-127 0 -194 55.5z" />
    <glyph glyph-name="tilde" unicode="&#x2dc;" horiz-adv-x="1134" 
d="M642.5 1297.5q-39.5 12.5 -93.5 36.5q-48 22 -80 32.5t-65 10.5q-56 0 -101 -20t-91 -65v200q39 40 87 58.5t110 18.5q43 0 82.5 -12.5t93.5 -36.5q48 -22 80 -32.5t65 -10.5q56 0 101 20t91 65v-200q-39 -40 -87 -58.5t-110 -18.5q-43 0 -82.5 12.5z" />
    <glyph glyph-name="hungarumlaut" unicode="&#x2dd;" horiz-adv-x="1134" 
d="M247 1233l146 383h252l-162 -383h-236zM651 1233l146 383h252l-163 -383h-235z" />
    <glyph glyph-name="gravecomb" unicode="&#x300;" horiz-adv-x="0" 
d="M-714 1233l-271 383h340l224 -383h-293z" />
    <glyph glyph-name="acutecomb" unicode="&#x301;" horiz-adv-x="0" 
d="M-714 1233l225 383h340l-272 -383h-293z" />
    <glyph glyph-name="uni0302" unicode="&#x302;" horiz-adv-x="0" 
d="M-203 1233h-230l-134 233l-135 -233h-229l233 383h262z" />
    <glyph glyph-name="tildecomb" unicode="&#x303;" horiz-adv-x="0" 
d="M-491.5 1297.5q-39.5 12.5 -93.5 36.5q-48 22 -80 32.5t-65 10.5q-56 0 -101 -20t-91 -65v200q39 40 87 58.5t110 18.5q43 0 82.5 -12.5t93.5 -36.5q48 -22 80 -32.5t65 -10.5q56 0 101 20t91 65v-200q-39 -40 -87 -58.5t-110 -18.5q-43 0 -82.5 12.5z" />
    <glyph glyph-name="uni0304" unicode="&#x304;" horiz-adv-x="0" 
d="M-922 1324v192h710v-192h-710z" />
    <glyph glyph-name="uni0306" unicode="&#x306;" horiz-adv-x="0" 
d="M-827.5 1332.5q-94.5 90.5 -103.5 261.5h194q7 -95 49 -142t122 -47q79 0 120.5 46.5t48.5 142.5h194q-9 -172 -103 -262t-260 -90q-167 0 -261.5 90.5z" />
    <glyph glyph-name="uni0307" unicode="&#x307;" horiz-adv-x="0" 
d="M-715.5 1296q-49.5 43 -49.5 123q0 81 49 124t149 43q99 0 148 -43t49 -124q0 -80 -49 -123t-148 -43t-148.5 43z" />
    <glyph glyph-name="uni0308" unicode="&#x308;" horiz-adv-x="0" 
d="M-939 1300.5q-45 42.5 -45 118.5t45 119t128 43t127.5 -43t44.5 -119t-45 -118.5t-127 -42.5q-83 0 -128 42.5zM-450 1300.5q-45 42.5 -45 118.5t44.5 119t127.5 43t128 -43t45 -119t-45 -118.5t-128 -42.5q-82 0 -127 42.5z" />
    <glyph glyph-name="hookabovecomb" unicode="&#x309;" horiz-adv-x="0" 
d="M-618.5 1324.5q25.5 33.5 69.5 64.5q27 20 39.5 34t12.5 32q0 26 -23 37.5t-75 11.5q-85 0 -165 -24v123q37 12 89.5 18.5t98.5 6.5q125 0 184.5 -37.5t59.5 -115.5q0 -35 -11.5 -60t-28 -41t-44.5 -37q-35 -26 -53.5 -48t-21.5 -56h-160q3 58 28.5 91.5z" />
    <glyph glyph-name="uni030A" unicode="&#x30a;" horiz-adv-x="0" 
d="M-677 1255q-49 27 -77 74.5t-28 107.5t28 107.5t77 74.5t110 27t110 -27t77 -74.5t28 -107.5t-28 -107.5t-77 -74.5t-110 -27t-110 27zM-499.5 1366q25.5 26 25.5 71t-25.5 71t-67.5 26t-67.5 -26t-25.5 -71t25.5 -71t67.5 -26t67.5 26z" />
    <glyph glyph-name="uni030B" unicode="&#x30b;" horiz-adv-x="0" 
d="M-887 1233l146 383h252l-162 -383h-236zM-483 1233l146 383h252l-163 -383h-235z" />
    <glyph glyph-name="uni030C" unicode="&#x30c;" horiz-adv-x="0" 
d="M-431 1616h229l-234 -383h-262l-234 383h229l136 -234z" />
    <glyph glyph-name="uni030F" unicode="&#x30f;" horiz-adv-x="0" 
d="M-887 1233l-162 383h253l145 -383h-236zM-483 1233l-162 383h253l145 -383h-236z" />
    <glyph glyph-name="uni0311" unicode="&#x311;" horiz-adv-x="0" 
d="M-828.5 1523q93.5 90 260.5 90q166 0 261 -90t104 -262h-194q-7 97 -49 143.5t-122 46.5q-81 0 -121.5 -46t-47.5 -144h-194q9 172 102.5 262z" />
    <glyph glyph-name="uni0312" unicode="&#x312;" horiz-adv-x="0" 
d="M-388 1369q0 -54 -43.5 -83.5t-134.5 -29.5q-180 0 -180 149q0 54 21.5 114.5t56.5 105.5h197q-44 -86 -55 -145q138 -13 138 -111z" />
    <glyph glyph-name="uni031B" unicode="&#x31b;" horiz-adv-x="0" 
d="M-707 1480h102q89 0 134.5 36.5t45.5 119.5q0 61 -17 139h202q21 -71 21 -152q0 -147 -85 -221t-233 -74h-170v152z" />
    <glyph glyph-name="dotbelowcomb" unicode="&#x323;" horiz-adv-x="0" 
d="M-695 -401.5q-45 41.5 -45 115.5t45 116t128 42t128 -42t45 -116t-45 -115.5t-128 -41.5t-128 41.5z" />
    <glyph glyph-name="uni0324" unicode="&#x324;" horiz-adv-x="0" 
d="M-939 -408.5q-45 42.5 -45 118.5t45 119t128 43t127.5 -43t44.5 -119t-45 -118.5t-127 -42.5q-83 0 -128 42.5zM-450 -408.5q-45 42.5 -45 118.5t44.5 119t127.5 43t128 -43t45 -119t-45 -118.5t-128 -42.5q-82 0 -127 42.5z" />
    <glyph glyph-name="uni0326" unicode="&#x326;" horiz-adv-x="0" 
d="M-388 -277q0 -54 -21.5 -114.5t-56.5 -105.5h-197q44 87 55 145q-138 13 -138 112q0 53 44 82.5t134 29.5q180 0 180 -149z" />
    <glyph glyph-name="uni0327" unicode="&#x327;" horiz-adv-x="0" 
d="M-359.5 -146q41.5 -45 41.5 -116q0 -85 -64.5 -132.5t-189.5 -47.5q-102 0 -181 31v124q38 -16 82.5 -24t83.5 -8q51 0 76 16.5t25 53.5q0 73 -102 73h-46v196h153v-108q80 -13 121.5 -58z" />
    <glyph glyph-name="uni0328" unicode="&#x328;" horiz-adv-x="0" 
d="M-952 -386.5q-67 55.5 -67 152.5q0 98 70 172.5t237 132.5l86 -71q-116 -49 -163 -100.5t-47 -113.5q0 -47 31 -73.5t90 -26.5q62 0 128 31v-126q-79 -33 -171 -33q-127 0 -194 55.5z" />
    <glyph glyph-name="uni032E" unicode="&#x32e;" horiz-adv-x="0" 
d="M-830.5 -374q-95.5 83 -100.5 229h194q6 -151 171 -151q82 0 123.5 37.5t45.5 113.5h194q-5 -147 -99.5 -229.5t-263.5 -82.5t-264.5 83z" />
    <glyph glyph-name="uni0331" unicode="&#x331;" horiz-adv-x="0" 
d="M-913 -378v190h691v-190h-691z" />
    <glyph glyph-name="uni0394" unicode="&#x394;" horiz-adv-x="1460" 
d="M968 1480l478 -1480h-1432l478 1480h476zM728 1284l-318 -1025h636z" />
    <glyph glyph-name="uni03A9" unicode="&#x3a9;" horiz-adv-x="1563" 
d="M1418 492q-62 -140 -180 -239h242v-253h-604v204q141 124 205 259t64 316q0 230 -93 343.5t-271 113.5q-177 0 -270 -113.5t-93 -343.5q0 -180 64.5 -315.5t204.5 -259.5v-204h-604v253h242q-118 99 -180 239t-62 313q0 220 85 376t242 237t371 81t371.5 -81t242.5 -237
t85 -376q0 -173 -62 -313z" />
    <glyph glyph-name="uni03BC" unicode="&#x3bc;" horiz-adv-x="1214" 
d="M1096 1094v-1094h-264l-22 110h-13q-49 -64 -111 -96.5t-132 -32.5q-69 0 -124 28v-449h-320v1533h320v-662q0 -94 38.5 -134t110.5 -40q53 0 107 23t90 66v748h320z" />
    <glyph glyph-name="pi" unicode="&#x3c0;" horiz-adv-x="1440" 
d="M1405 255v-253q-42 -10 -95.5 -16t-100.5 -6q-196 0 -297 98t-101 303l-1 461h-295v-843h-320v843h-178v252h1292v-252h-178v-410q0 -72 16.5 -113t52.5 -58.5t97 -17.5q36 0 108 12z" />
    <glyph glyph-name="uni1E08" unicode="&#x1e08;" horiz-adv-x="1238" 
d="M1123 1898l-228 -303h-289l180 303h337zM632 1180q-104 -50 -155.5 -157.5t-51.5 -281.5q0 -178 51 -286t152 -156.5t259 -48.5q142 0 303 47v-269q-72 -22 -158.5 -34.5t-174.5 -12.5q-29 0 -43 1v-68q90 -12 137 -56.5t47 -116.5q0 -87 -69 -135t-204 -48
q-112 0 -202 32v123q86 -32 187 -32q60 0 90 16.5t30 53.5q0 73 -121 73h-49v171q-284 43 -430.5 225t-146.5 517q0 378 203 570t587 192q171 0 317 -35v-268q-145 34 -292 34q-162 0 -266 -50z" />
    <glyph glyph-name="uni1E09" unicode="&#x1e09;" horiz-adv-x="963" 
d="M956 1616l-272 -383h-293l225 383h340zM223.5 970.5q154.5 140.5 447.5 140.5q136 0 245 -25v-253q-105 21 -201 21q-111 0 -180.5 -31t-102.5 -98.5t-33 -176.5q0 -165 71 -238t218 -73q51 0 104 8.5t124 27.5v-253q-60 -20 -131 -30.5t-145 -10.5v-67q80 -13 121.5 -58
t41.5 -116q0 -85 -64.5 -132.5t-189.5 -47.5q-102 0 -181 31v124q38 -16 82.5 -24t83.5 -8q51 0 76 16.5t25 53.5q0 73 -102 73h-46v167q-205 35 -311.5 173.5t-106.5 380.5q0 285 154.5 425.5z" />
    <glyph glyph-name="uni1E0C" unicode="&#x1e0c;" horiz-adv-x="1501" 
d="M133 9v1438q104 23 228.5 36t241.5 13q407 0 611 -185.5t204 -570.5q0 -264 -97 -431t-291 -245.5t-492 -78.5q-212 0 -405 24zM882 299q101 49 151 157t50 285q0 175 -50.5 283.5t-151.5 158.5t-256 50q-79 0 -166 -15v-961q64 -7 164 -7q158 0 259 49zM538 -380
q-50 38 -50 107t50 107t146 38t146 -38t50 -107t-50 -107t-146 -38t-146 38z" />
    <glyph glyph-name="uni1E0D" unicode="&#x1e0d;" horiz-adv-x="1231" 
d="M290 38q-101 57 -161 178.5t-60 307.5q0 287 152.5 437.5t443.5 150.5q68 0 127 -8v512h320v-1616h-268l-20 114h-15q-48 -62 -122.5 -97.5t-168.5 -35.5q-127 0 -228 57zM712 260.5q48 18.5 80 55.5v541q-58 12 -126 12q-140 0 -207.5 -75.5t-67.5 -244.5t57 -238
t164 -69q52 0 100 18.5zM496 -401.5q-45 41.5 -45 115.5t45 116t128 42t128 -42t45 -116t-45 -115.5t-128 -41.5t-128 41.5z" />
    <glyph glyph-name="uni1E0E" unicode="&#x1e0e;" horiz-adv-x="1501" 
d="M133 9v1438q104 23 228.5 36t241.5 13q407 0 611 -185.5t204 -570.5q0 -264 -97 -431t-291 -245.5t-492 -78.5q-212 0 -405 24zM882 299q101 49 151 157t50 285q0 175 -50.5 283.5t-151.5 158.5t-256 50q-79 0 -166 -15v-961q64 -7 164 -7q158 0 259 49zM316 -362v192
h736v-192h-736z" />
    <glyph glyph-name="uni1E0F" unicode="&#x1e0f;" horiz-adv-x="1231" 
d="M290 38q-101 57 -161 178.5t-60 307.5q0 287 152.5 437.5t443.5 150.5q68 0 127 -8v512h320v-1616h-268l-20 114h-15q-48 -62 -122.5 -97.5t-168.5 -35.5q-127 0 -228 57zM712 260.5q48 18.5 80 55.5v541q-58 12 -126 12q-140 0 -207.5 -75.5t-67.5 -244.5t57 -238
t164 -69q52 0 100 18.5zM278 -378v190h691v-190h-691z" />
    <glyph glyph-name="uni1E14" unicode="&#x1e14;" 
d="M455 260h729v-260h-1051v1480h1041v-260h-719v-333h617v-260h-617v-367zM514 1956l-228 232h370l180 -232h-322zM307 1651v192h736v-192h-736z" />
    <glyph glyph-name="uni1E15" unicode="&#x1e15;" horiz-adv-x="1110" 
d="M1053 454h-664q5 -88 37.5 -138.5t101.5 -73t188 -22.5q125 0 276 35v-239q-160 -37 -321 -37q-209 0 -341.5 59.5t-196.5 184.5t-64 325q0 180 59.5 306.5t173.5 191.5t276 65q232 0 353.5 -146.5t121.5 -426.5v-84zM437 847q-46 -62 -49 -208h367q-3 147 -47 208.5
t-134 61.5q-91 0 -137 -62zM217 1324v192h710v-192h-710zM428 1656l-228 303h336l180 -303h-288z" />
    <glyph glyph-name="uni1E16" unicode="&#x1e16;" 
d="M455 260h729v-260h-1051v1480h1041v-260h-719v-333h617v-260h-617v-367zM514 1956l179 232h371l-228 -232h-322zM307 1651v192h736v-192h-736z" />
    <glyph glyph-name="uni1E17" unicode="&#x1e17;" horiz-adv-x="1110" 
d="M1053 454h-664q5 -88 37.5 -138.5t101.5 -73t188 -22.5q125 0 276 35v-239q-160 -37 -321 -37q-209 0 -341.5 59.5t-196.5 184.5t-64 325q0 180 59.5 306.5t173.5 191.5t276 65q232 0 353.5 -146.5t121.5 -426.5v-84zM437 847q-46 -62 -49 -208h367q-3 147 -47 208.5
t-134 61.5q-91 0 -137 -62zM217 1324v192h710v-192h-710zM426 1656l180 303h337l-228 -303h-289z" />
    <glyph glyph-name="uni1E1C" unicode="&#x1e1c;" 
d="M405 1676q-97 77 -113 213h196q12 -68 56.5 -101t131.5 -33q86 0 130 33t56 101h196q-16 -136 -112.5 -213t-269.5 -77q-174 0 -271 77zM734 0v-86q90 -12 137 -56.5t47 -116.5q0 -87 -69 -135t-204 -48q-112 0 -202 32v123q86 -32 187 -32q60 0 90 16.5t30 53.5
q0 73 -121 73h-49v176h-447v1480h1041v-260h-719v-333h617v-260h-617v-367h729v-260h-450z" />
    <glyph glyph-name="uni1E1D" unicode="&#x1e1d;" horiz-adv-x="1110" 
d="M311.5 1332.5q-94.5 90.5 -103.5 261.5h194q7 -95 49 -142t122 -47q79 0 120.5 46.5t48.5 142.5h194q-9 -172 -103 -262t-260 -90q-167 0 -261.5 90.5zM1053 454h-664q5 -88 37.5 -138.5t101.5 -73t188 -22.5q125 0 276 35v-239q-160 -37 -321 -37h-13v-67
q80 -13 121.5 -58t41.5 -116q0 -85 -64.5 -132.5t-189.5 -47.5q-102 0 -181 31v124q38 -16 82.5 -24t83.5 -8q51 0 76 16.5t25 53.5q0 73 -102 73h-46v166q-224 32 -330 167.5t-106 390.5q0 180 59.5 306.5t173.5 191.5t276 65q232 0 353.5 -146.5t121.5 -426.5v-84z
M437 847q-46 -62 -49 -208h367q-3 147 -47 208.5t-134 61.5q-91 0 -137 -62z" />
    <glyph glyph-name="uni1E20" unicode="&#x1e20;" horiz-adv-x="1426" 
d="M1299 720v-704q-200 -33 -369 -33q-425 0 -635.5 185t-211.5 568q0 379 215 571t626 192q175 0 333 -37v-268q-156 36 -304 36q-184 -1 -300 -51t-172.5 -159.5t-56.5 -287.5q0 -250 118 -365.5t363 -115.5q31 0 91 2v467h303zM437 1651v192h736v-192h-736z" />
    <glyph glyph-name="uni1E21" unicode="&#x1e21;" horiz-adv-x="1231" 
d="M145 -415v250q177 -49 342 -49q108 0 175 26t98.5 82.5t31.5 149.5v73h-15q-48 -59 -120.5 -91.5t-162.5 -32.5q-117 0 -213.5 58t-154 177.5t-57.5 296.5q0 286 156 436t466 150q108 0 221 -15.5t200 -44.5v-948q0 -197 -65.5 -321.5t-197.5 -183t-337 -58.5
q-198 0 -367 45zM712 269.5q47 16.5 80 49.5v536q-60 14 -129 14q-136 0 -204 -75.5t-68 -241.5q0 -165 57 -232t167 -67q50 0 97 16.5zM285 1324v192h710v-192h-710z" />
    <glyph glyph-name="uni1E24" unicode="&#x1e24;" horiz-adv-x="1527" 
d="M133 0v1480h326v-580h609v580h326v-1480h-326v613h-609v-613h-326zM618 -380q-50 38 -50 107t50 107t146 38t146 -38t50 -107t-50 -107t-146 -38t-146 38z" />
    <glyph glyph-name="uni1E25" unicode="&#x1e25;" horiz-adv-x="1223" 
d="M119 1616h320v-632h15q56 62 132 94.5t169 32.5q162 0 260 -104t98 -326v-681h-320v660q0 96 -39 136t-115 40q-56 0 -110.5 -23t-89.5 -67v-746h-320v1616zM489 -401.5q-45 41.5 -45 115.5t45 116t128 42t128 -42t45 -116t-45 -115.5t-128 -41.5t-128 41.5z" />
    <glyph glyph-name="uni1E2A" unicode="&#x1e2a;" horiz-adv-x="1527" 
d="M133 0v1480h326v-580h609v580h326v-1480h-326v613h-609v-613h-326zM492 -357.5q-97 78.5 -111 215.5h196q10 -68 55.5 -103t132.5 -35t132 35t54 103h196q-14 -137 -110.5 -215.5t-271.5 -78.5q-176 0 -273 78.5z" />
    <glyph glyph-name="uni1E2B" unicode="&#x1e2b;" horiz-adv-x="1223" 
d="M119 1616h320v-632h15q56 62 132 94.5t169 32.5q162 0 260 -104t98 -326v-681h-320v660q0 96 -39 136t-115 40q-56 0 -110.5 -23t-89.5 -67v-746h-320v1616zM353.5 -374q-95.5 83 -100.5 229h194q6 -151 171 -151q82 0 123.5 37.5t45.5 113.5h194q-5 -147 -99.5 -229.5
t-263.5 -82.5t-264.5 83z" />
    <glyph glyph-name="uni1E2E" unicode="&#x1e2e;" horiz-adv-x="592" 
d="M133 0v1480h326v-1480h-326zM135 1956l179 232h371l-228 -232h-322zM-89 1643.5q-44 37.5 -44 107.5q0 69 44 107t128 38t128 -38t44 -107q0 -70 -43.5 -107.5t-128.5 -37.5q-84 0 -128 37.5zM424.5 1643.5q-43.5 37.5 -43.5 107.5q0 69 44 107t128 38t128 -38t44 -107
q0 -70 -44 -107.5t-128 -37.5q-85 0 -128.5 37.5z" />
    <glyph glyph-name="uni1E2F" unicode="&#x1e2f;" horiz-adv-x="558" 
d="M119 0v1094h320v-1094h-320zM-93 1300.5q-45 42.5 -45 118.5t45 119t128 43t127.5 -43t44.5 -119t-45 -118.5t-127 -42.5q-83 0 -128 42.5zM396 1300.5q-45 42.5 -45 118.5t44.5 119t127.5 43t128 -43t45 -119t-45 -118.5t-128 -42.5q-82 0 -127 42.5zM243 1936l180 303
h337l-228 -303h-289z" />
    <glyph glyph-name="uni1E36" unicode="&#x1e36;" horiz-adv-x="1149" 
d="M133 0v1480h326v-1209h680v-271h-1006zM490 -380q-50 38 -50 107t50 107t146 38t146 -38t50 -107t-50 -107t-146 -38t-146 38z" />
    <glyph glyph-name="uni1E37" unicode="&#x1e37;" horiz-adv-x="557" 
d="M119 0v1616h320v-1616h-320zM150 -401.5q-45 41.5 -45 115.5t45 116t128 42t128 -42t45 -116t-45 -115.5t-128 -41.5t-128 41.5z" />
    <glyph glyph-name="uni1E3A" unicode="&#x1e3a;" horiz-adv-x="1149" 
d="M133 0v1480h326v-1209h680v-271h-1006zM268 -362v192h736v-192h-736z" />
    <glyph glyph-name="uni1E3B" unicode="&#x1e3b;" horiz-adv-x="557" 
d="M119 0v1616h320v-1616h-320zM-68 -378v190h691v-190h-691z" />
    <glyph glyph-name="uni1E42" unicode="&#x1e42;" horiz-adv-x="1879" 
d="M1345 1480h397v-1480h-305v1047l-363 -833h-269l-363 806v-1020h-305v1480h397l411 -932zM814 -380q-50 38 -50 107t50 107t146 38t146 -38t50 -107t-50 -107t-146 -38t-146 38z" />
    <glyph glyph-name="uni1E43" unicode="&#x1e43;" horiz-adv-x="1806" 
d="M1598 1007q98 -104 98 -327v-680h-319v663q0 93 -37.5 133t-104.5 40q-48 0 -93 -18.5t-77 -56.5q3 -33 3 -71v-690h-313v663q0 94 -35 133.5t-102 39.5q-51 0 -99.5 -23t-79.5 -68v-745h-320v1094h263l22 -111h15q117 128 307 128q91 0 162.5 -34.5t115.5 -107.5
q68 73 153 107.5t175 34.5q168 0 266 -104zM784 -401.5q-45 41.5 -45 115.5t45 116t128 42t128 -42t45 -116t-45 -115.5t-128 -41.5t-128 41.5z" />
    <glyph glyph-name="uni1E44" unicode="&#x1e44;" horiz-adv-x="1544" 
d="M1104 1480h307v-1480h-328l-643 991v-991h-307v1480h328l643 -991v991zM626 1643.5q-50 37.5 -50 107.5q0 69 50 107t146 38t146 -38t50 -107q0 -70 -50 -107.5t-146 -37.5t-146 37.5z" />
    <glyph glyph-name="uni1E45" unicode="&#x1e45;" horiz-adv-x="1223" 
d="M119 1094h263l22 -111h15q60 62 142 95t179 33q173 0 273 -104t100 -326v-681h-320v662q0 95 -39 134.5t-115 39.5q-57 0 -111 -23t-89 -67v-746h-320v1094zM468.5 1296q-49.5 43 -49.5 123q0 81 49 124t149 43q99 0 148 -43t49 -124q0 -80 -49 -123t-148 -43t-148.5 43z
" />
    <glyph glyph-name="uni1E46" unicode="&#x1e46;" horiz-adv-x="1544" 
d="M1104 1480h307v-1480h-328l-643 991v-991h-307v1480h328l643 -991v991zM626 -380q-50 38 -50 107t50 107t146 38t146 -38t50 -107t-50 -107t-146 -38t-146 38z" />
    <glyph glyph-name="uni1E47" unicode="&#x1e47;" horiz-adv-x="1223" 
d="M119 1094h263l22 -111h15q60 62 142 95t179 33q173 0 273 -104t100 -326v-681h-320v662q0 95 -39 134.5t-115 39.5q-57 0 -111 -23t-89 -67v-746h-320v1094zM489 -401.5q-45 41.5 -45 115.5t45 116t128 42t128 -42t45 -116t-45 -115.5t-128 -41.5t-128 41.5z" />
    <glyph glyph-name="uni1E48" unicode="&#x1e48;" horiz-adv-x="1544" 
d="M1104 1480h307v-1480h-328l-643 991v-991h-307v1480h328l643 -991v991zM404 -362v192h736v-192h-736z" />
    <glyph glyph-name="uni1E49" unicode="&#x1e49;" horiz-adv-x="1223" 
d="M119 1094h263l22 -111h15q60 62 142 95t179 33q173 0 273 -104t100 -326v-681h-320v662q0 95 -39 134.5t-115 39.5q-57 0 -111 -23t-89 -67v-746h-320v1094zM271 -378v190h691v-190h-691z" />
    <glyph glyph-name="uni1E4C" unicode="&#x1e4c;" horiz-adv-x="1563" 
d="M410.5 64.5q-156.5 83.5 -242 253.5t-85.5 422t85.5 422t242 253.5t371.5 83.5t371.5 -84t241.5 -254t85 -421t-85.5 -421t-242 -254t-370.5 -84q-215 0 -371.5 83.5zM1052 361q93 117 93 372q0 264 -93.5 383.5t-269.5 119.5q-177 0 -270.5 -117t-93.5 -372
q0 -265 93 -384t271 -119q177 0 270 117zM621 1956l179 232h371l-228 -232h-322zM866 1629q-40 10 -101 30q-55 19 -89 27.5t-72 8.5q-60 0 -106 -17t-93 -53v183q41 37 89.5 55t115.5 18q48 0 89.5 -10.5t99.5 -30.5q52 -19 87.5 -28t73.5 -9q60 0 106 17t93 53v-183
q-40 -37 -88.5 -54t-116.5 -17q-48 0 -88 10z" />
    <glyph glyph-name="uni1E4D" unicode="&#x1e4d;" horiz-adv-x="1206" 
d="M317.5 42q-119.5 63 -184 189.5t-64.5 312.5q0 282 139 424.5t395 142.5q255 0 394.5 -143t139.5 -422q0 -187 -64.5 -314t-184 -190t-285.5 -63t-285.5 63zM720 252q46 30 70.5 100.5t24.5 190.5q0 122 -24.5 194t-71 102t-116.5 30t-116.5 -30t-71 -100.5t-24.5 -191.5
q0 -122 24.5 -193.5t70.5 -101.5t117 -30t117 30zM678.5 1297.5q-39.5 12.5 -93.5 36.5q-48 22 -80 32.5t-65 10.5q-56 0 -101 -20t-91 -65v200q39 40 87 58.5t110 18.5q43 0 82.5 -12.5t93.5 -36.5q48 -22 80 -32.5t65 -10.5q56 0 101 20t91 65v-200q-39 -40 -87 -58.5
t-110 -18.5q-43 0 -82.5 12.5zM567 1936l180 303h337l-228 -303h-289z" />
    <glyph glyph-name="uni1E4E" unicode="&#x1e4e;" horiz-adv-x="1563" 
d="M410.5 64.5q-156.5 83.5 -242 253.5t-85.5 422t85.5 422t242 253.5t371.5 83.5t371.5 -84t241.5 -254t85 -421t-85.5 -421t-242 -254t-370.5 -84q-215 0 -371.5 83.5zM1052 361q93 117 93 372q0 264 -93.5 383.5t-269.5 119.5q-177 0 -270.5 -117t-93.5 -372
q0 -265 93 -384t271 -119q177 0 270 117zM866 1629q-40 10 -101 30q-55 19 -89 27.5t-72 8.5q-60 0 -106 -17t-93 -53v183q41 37 89.5 55t115.5 18q48 0 89.5 -10.5t99.5 -30.5q52 -19 87.5 -28t73.5 -9q60 0 106 17t93 53v-183q-40 -37 -88.5 -54t-116.5 -17q-48 0 -88 10z
M397 1992.5q-44 37.5 -44 107.5q0 69 44 107t128 38t128 -38t44 -107q0 -70 -43.5 -107.5t-128.5 -37.5q-84 0 -128 37.5zM910.5 1992.5q-43.5 37.5 -43.5 107.5q0 69 44 107t128 38t128 -38t44 -107q0 -70 -44 -107.5t-128 -37.5q-85 0 -128.5 37.5z" />
    <glyph glyph-name="uni1E4F" unicode="&#x1e4f;" horiz-adv-x="1206" 
d="M317.5 42q-119.5 63 -184 189.5t-64.5 312.5q0 282 139 424.5t395 142.5q255 0 394.5 -143t139.5 -422q0 -187 -64.5 -314t-184 -190t-285.5 -63t-285.5 63zM720 252q46 30 70.5 100.5t24.5 190.5q0 122 -24.5 194t-71 102t-116.5 30t-116.5 -30t-71 -100.5t-24.5 -191.5
q0 -122 24.5 -193.5t70.5 -101.5t117 -30t117 30zM678.5 1297.5q-39.5 12.5 -93.5 36.5q-48 22 -80 32.5t-65 10.5q-56 0 -101 -20t-91 -65v200q39 40 87 58.5t110 18.5q43 0 82.5 -12.5t93.5 -36.5q48 -22 80 -32.5t65 -10.5q56 0 101 20t91 65v-200q-39 -40 -87 -58.5
t-110 -18.5q-43 0 -82.5 12.5zM231 1671.5q-45 42.5 -45 118.5t45 119t128 43t127.5 -43t44.5 -119t-45 -118.5t-127 -42.5q-83 0 -128 42.5zM720 1671.5q-45 42.5 -45 118.5t44.5 119t127.5 43t128 -43t45 -119t-45 -118.5t-128 -42.5q-82 0 -127 42.5z" />
    <glyph glyph-name="uni1E50" unicode="&#x1e50;" horiz-adv-x="1563" 
d="M410.5 64.5q-156.5 83.5 -242 253.5t-85.5 422t85.5 422t242 253.5t371.5 83.5t371.5 -84t241.5 -254t85 -421t-85.5 -421t-242 -254t-370.5 -84q-215 0 -371.5 83.5zM1052 361q93 117 93 372q0 264 -93.5 383.5t-269.5 119.5q-177 0 -270.5 -117t-93.5 -372
q0 -265 93 -384t271 -119q177 0 270 117zM621 1956l-228 232h370l180 -232h-322zM414 1651v192h736v-192h-736z" />
    <glyph glyph-name="uni1E51" unicode="&#x1e51;" horiz-adv-x="1206" 
d="M317.5 42q-119.5 63 -184 189.5t-64.5 312.5q0 282 139 424.5t395 142.5q255 0 394.5 -143t139.5 -422q0 -187 -64.5 -314t-184 -190t-285.5 -63t-285.5 63zM720 252q46 30 70.5 100.5t24.5 190.5q0 122 -24.5 194t-71 102t-116.5 30t-116.5 -30t-71 -100.5t-24.5 -191.5
q0 -122 24.5 -193.5t70.5 -101.5t117 -30t117 30zM248 1324v192h710v-192h-710zM459 1656l-228 303h336l180 -303h-288z" />
    <glyph glyph-name="uni1E52" unicode="&#x1e52;" horiz-adv-x="1563" 
d="M410.5 64.5q-156.5 83.5 -242 253.5t-85.5 422t85.5 422t242 253.5t371.5 83.5t371.5 -84t241.5 -254t85 -421t-85.5 -421t-242 -254t-370.5 -84q-215 0 -371.5 83.5zM1052 361q93 117 93 372q0 264 -93.5 383.5t-269.5 119.5q-177 0 -270.5 -117t-93.5 -372
q0 -265 93 -384t271 -119q177 0 270 117zM621 1956l179 232h371l-228 -232h-322zM414 1651v192h736v-192h-736z" />
    <glyph glyph-name="uni1E53" unicode="&#x1e53;" horiz-adv-x="1206" 
d="M317.5 42q-119.5 63 -184 189.5t-64.5 312.5q0 282 139 424.5t395 142.5q255 0 394.5 -143t139.5 -422q0 -187 -64.5 -314t-184 -190t-285.5 -63t-285.5 63zM720 252q46 30 70.5 100.5t24.5 190.5q0 122 -24.5 194t-71 102t-116.5 30t-116.5 -30t-71 -100.5t-24.5 -191.5
q0 -122 24.5 -193.5t70.5 -101.5t117 -30t117 30zM248 1324v192h710v-192h-710zM457 1656l180 303h337l-228 -303h-289z" />
    <glyph glyph-name="uni1E5A" unicode="&#x1e5a;" horiz-adv-x="1378" 
d="M1005 0l-378 543h-18q-70 0 -155 5v-548h-321v1447q106 23 226 37t237 14q321 0 481 -116.5t160 -358.5q0 -158 -76.5 -266t-220.5 -162l420 -595h-355zM454 794q84 -9 161 -9q162 0 239 56t77 181q0 123 -73.5 179.5t-228.5 56.5q-88 0 -175 -15v-449zM577 -380
q-50 38 -50 107t50 107t146 38t146 -38t50 -107t-50 -107t-146 -38t-146 38z" />
    <glyph glyph-name="uni1E5B" unicode="&#x1e5b;" horiz-adv-x="809" 
d="M119 1094h261l25 -141h15q45 79 120 117.5t170 38.5q48 0 88 -8v-289q-44 9 -108 9q-73 0 -143 -28t-108 -77v-716h-320v1094zM151 -401.5q-45 41.5 -45 115.5t45 116t128 42t128 -42t45 -116t-45 -115.5t-128 -41.5t-128 41.5z" />
    <glyph glyph-name="uni1E5E" unicode="&#x1e5e;" horiz-adv-x="1378" 
d="M1005 0l-378 543h-18q-70 0 -155 5v-548h-321v1447q106 23 226 37t237 14q321 0 481 -116.5t160 -358.5q0 -158 -76.5 -266t-220.5 -162l420 -595h-355zM454 794q84 -9 161 -9q162 0 239 56t77 181q0 123 -73.5 179.5t-228.5 56.5q-88 0 -175 -15v-449zM355 -362v192h736
v-192h-736z" />
    <glyph glyph-name="uni1E5F" unicode="&#x1e5f;" horiz-adv-x="809" 
d="M119 1094h261l25 -141h15q45 79 120 117.5t170 38.5q48 0 88 -8v-289q-44 9 -108 9q-73 0 -143 -28t-108 -77v-716h-320v1094zM-67 -378v190h691v-190h-691z" />
    <glyph glyph-name="uni1E60" unicode="&#x1e60;" horiz-adv-x="1154" 
d="M288.5 -2.5q-107.5 16.5 -198.5 46.5v264q93 -30 204.5 -47.5t208.5 -17.5q143 0 207 43.5t64 128.5q0 47 -19.5 78.5t-65.5 55t-129 45.5l-111 29q-198 49 -296 153.5t-98 272.5q0 215 156 332.5t461 117.5q97 0 187.5 -11.5t163.5 -31.5v-265q-71 22 -158.5 34
t-174.5 12q-166 0 -238 -44.5t-72 -126.5q0 -45 17 -75t57.5 -52t113.5 -42l112 -28q216 -54 317.5 -158t101.5 -274q0 -141 -71 -244t-204.5 -157.5t-319.5 -54.5q-108 0 -215.5 16.5zM442 1643.5q-50 37.5 -50 107.5q0 69 50 107t146 38t146 -38t50 -107q0 -70 -50 -107.5
t-146 -37.5t-146 37.5z" />
    <glyph glyph-name="uni1E61" unicode="&#x1e61;" horiz-adv-x="980" 
d="M90 27v234q162 -49 346 -49q104 0 150.5 27.5t46.5 80.5q0 41 -22 62t-77 32l-177 32q-153 28 -224 105.5t-71 209.5q0 107 57 185.5t172.5 121.5t286.5 43q78 0 154.5 -9t138.5 -25v-234q-133 36 -284 36q-228 0 -228 -110q0 -36 22.5 -58t75.5 -32l177 -32
q152 -29 224.5 -102.5t72.5 -213.5q0 -109 -57.5 -188t-168 -121.5t-264.5 -42.5q-195 0 -351 48zM346.5 1296q-49.5 43 -49.5 123q0 81 49 124t149 43q99 0 148 -43t49 -124q0 -80 -49 -123t-148 -43t-148.5 43z" />
    <glyph glyph-name="uni1E62" unicode="&#x1e62;" horiz-adv-x="1154" 
d="M288.5 -2.5q-107.5 16.5 -198.5 46.5v264q93 -30 204.5 -47.5t208.5 -17.5q143 0 207 43.5t64 128.5q0 47 -19.5 78.5t-65.5 55t-129 45.5l-111 29q-198 49 -296 153.5t-98 272.5q0 215 156 332.5t461 117.5q97 0 187.5 -11.5t163.5 -31.5v-265q-71 22 -158.5 34
t-174.5 12q-166 0 -238 -44.5t-72 -126.5q0 -45 17 -75t57.5 -52t113.5 -42l112 -28q216 -54 317.5 -158t101.5 -274q0 -141 -71 -244t-204.5 -157.5t-319.5 -54.5q-108 0 -215.5 16.5zM442 -380q-50 38 -50 107t50 107t146 38t146 -38t50 -107t-50 -107t-146 -38t-146 38z
" />
    <glyph glyph-name="uni1E63" unicode="&#x1e63;" horiz-adv-x="980" 
d="M90 27v234q162 -49 346 -49q104 0 150.5 27.5t46.5 80.5q0 41 -22 62t-77 32l-177 32q-153 28 -224 105.5t-71 209.5q0 107 57 185.5t172.5 121.5t286.5 43q78 0 154.5 -9t138.5 -25v-234q-133 36 -284 36q-228 0 -228 -110q0 -36 22.5 -58t75.5 -32l177 -32
q152 -29 224.5 -102.5t72.5 -213.5q0 -109 -57.5 -188t-168 -121.5t-264.5 -42.5q-195 0 -351 48zM367 -401.5q-45 41.5 -45 115.5t45 116t128 42t128 -42t45 -116t-45 -115.5t-128 -41.5t-128 41.5z" />
    <glyph glyph-name="uni1E64" unicode="&#x1e64;" horiz-adv-x="1154" 
d="M288.5 -2.5q-107.5 16.5 -198.5 46.5v264q93 -30 204.5 -47.5t208.5 -17.5q143 0 207 43.5t64 128.5q0 47 -19.5 78.5t-65.5 55t-129 45.5l-111 29q-198 49 -296 153.5t-98 272.5q0 215 156 332.5t461 117.5q97 0 187.5 -11.5t163.5 -31.5v-265q-71 22 -158.5 34
t-174.5 12q-166 0 -238 -44.5t-72 -126.5q0 -45 17 -75t57.5 -52t113.5 -42l112 -28q216 -54 317.5 -158t101.5 -274q0 -141 -71 -244t-204.5 -157.5t-319.5 -54.5q-108 0 -215.5 16.5zM245.5 1889q-40.5 31 -40.5 88t41 89t119 32q79 0 119.5 -32t40.5 -89t-40.5 -88
t-119.5 -31t-119.5 31zM442 1595l180 303h337l-228 -303h-289z" />
    <glyph glyph-name="uni1E65" unicode="&#x1e65;" horiz-adv-x="980" 
d="M90 27v234q162 -49 346 -49q104 0 150.5 27.5t46.5 80.5q0 41 -22 62t-77 32l-177 32q-153 28 -224 105.5t-71 209.5q0 107 57 185.5t172.5 121.5t286.5 43q78 0 154.5 -9t138.5 -25v-234q-133 36 -284 36q-228 0 -228 -110q0 -36 22.5 -58t75.5 -32l177 -32
q152 -29 224.5 -102.5t72.5 -213.5q0 -109 -57.5 -188t-168 -121.5t-264.5 -42.5q-195 0 -351 48zM209 1607.5q-41 31.5 -41 88.5t41 88.5t119 31.5t119 -31.5t41 -88.5t-41 -88.5t-119 -31.5t-119 31.5zM348 1233l225 383h340l-272 -383h-293z" />
    <glyph glyph-name="uni1E66" unicode="&#x1e66;" horiz-adv-x="1154" 
d="M288.5 -2.5q-107.5 16.5 -198.5 46.5v264q93 -30 204.5 -47.5t208.5 -17.5q143 0 207 43.5t64 128.5q0 47 -19.5 78.5t-65.5 55t-129 45.5l-111 29q-198 49 -296 153.5t-98 272.5q0 215 156 332.5t461 117.5q97 0 187.5 -11.5t163.5 -31.5v-265q-71 22 -158.5 34
t-174.5 12q-166 0 -238 -44.5t-72 -126.5q0 -45 17 -75t57.5 -52t113.5 -42l112 -28q216 -54 317.5 -158t101.5 -274q0 -141 -71 -244t-204.5 -157.5t-319.5 -54.5q-108 0 -215.5 16.5zM469 1957.5q-41 31.5 -41 88.5t41 88.5t119 31.5t119 -31.5t41 -88.5t-41 -88.5
t-119 -31.5t-119 31.5zM737 1898h243l-256 -303h-272l-256 303h243l149 -185z" />
    <glyph glyph-name="uni1E67" unicode="&#x1e67;" horiz-adv-x="980" 
d="M90 27v234q162 -49 346 -49q104 0 150.5 27.5t46.5 80.5q0 41 -22 62t-77 32l-177 32q-153 28 -224 105.5t-71 209.5q0 107 57 185.5t172.5 121.5t286.5 43q78 0 154.5 -9t138.5 -25v-234q-133 36 -284 36q-228 0 -228 -110q0 -36 22.5 -58t75.5 -32l177 -32
q152 -29 224.5 -102.5t72.5 -213.5q0 -109 -57.5 -188t-168 -121.5t-264.5 -42.5q-195 0 -351 48zM376 1674.5q-41 31.5 -41 88.5t41 88.5t119 31.5t119 -31.5t41 -88.5t-41 -88.5t-119 -31.5t-119 31.5zM631 1616h229l-234 -383h-262l-234 383h229l136 -234z" />
    <glyph glyph-name="uni1E68" unicode="&#x1e68;" horiz-adv-x="1154" 
d="M288.5 -2.5q-107.5 16.5 -198.5 46.5v264q93 -30 204.5 -47.5t208.5 -17.5q143 0 207 43.5t64 128.5q0 47 -19.5 78.5t-65.5 55t-129 45.5l-111 29q-198 49 -296 153.5t-98 272.5q0 215 156 332.5t461 117.5q97 0 187.5 -11.5t163.5 -31.5v-265q-71 22 -158.5 34
t-174.5 12q-166 0 -238 -44.5t-72 -126.5q0 -45 17 -75t57.5 -52t113.5 -42l112 -28q216 -54 317.5 -158t101.5 -274q0 -141 -71 -244t-204.5 -157.5t-319.5 -54.5q-108 0 -215.5 16.5zM442 -380q-50 38 -50 107t50 107t146 38t146 -38t50 -107t-50 -107t-146 -38t-146 38z
M442 1643.5q-50 37.5 -50 107.5q0 69 50 107t146 38t146 -38t50 -107q0 -70 -50 -107.5t-146 -37.5t-146 37.5z" />
    <glyph glyph-name="uni1E69" unicode="&#x1e69;" horiz-adv-x="980" 
d="M90 27v234q162 -49 346 -49q104 0 150.5 27.5t46.5 80.5q0 41 -22 62t-77 32l-177 32q-153 28 -224 105.5t-71 209.5q0 107 57 185.5t172.5 121.5t286.5 43q78 0 154.5 -9t138.5 -25v-234q-133 36 -284 36q-228 0 -228 -110q0 -36 22.5 -58t75.5 -32l177 -32
q152 -29 224.5 -102.5t72.5 -213.5q0 -109 -57.5 -188t-168 -121.5t-264.5 -42.5q-195 0 -351 48zM367 -401.5q-45 41.5 -45 115.5t45 116t128 42t128 -42t45 -116t-45 -115.5t-128 -41.5t-128 41.5zM346.5 1296q-49.5 43 -49.5 123q0 81 49 124t149 43q99 0 148 -43
t49 -124q0 -80 -49 -123t-148 -43t-148.5 43z" />
    <glyph glyph-name="uni1E6C" unicode="&#x1e6c;" horiz-adv-x="1287" 
d="M480 0v1209h-467v271h1260v-271h-466v-1209h-327zM498 -380q-50 38 -50 107t50 107t146 38t146 -38t50 -107t-50 -107t-146 -38t-146 38z" />
    <glyph glyph-name="uni1E6D" unicode="&#x1e6d;" horiz-adv-x="843" 
d="M808 256v-253q-101 -23 -202 -23q-202 0 -306.5 100t-104.5 310v452h-178v252h178l58 386h262v-386h287v-252h-287v-402q0 -74 18.5 -117t57 -61.5t102.5 -18.5q42 0 115 13zM374 -401.5q-45 41.5 -45 115.5t45 116t128 42t128 -42t45 -116t-45 -115.5t-128 -41.5
t-128 41.5z" />
    <glyph glyph-name="uni1E6E" unicode="&#x1e6e;" horiz-adv-x="1287" 
d="M480 0v1209h-467v271h1260v-271h-466v-1209h-327zM276 -362v192h736v-192h-736z" />
    <glyph glyph-name="uni1E6F" unicode="&#x1e6f;" horiz-adv-x="843" 
d="M808 256v-253q-101 -23 -202 -23q-202 0 -306.5 100t-104.5 310v452h-178v252h178l58 386h262v-386h287v-252h-287v-402q0 -74 18.5 -117t57 -61.5t102.5 -18.5q42 0 115 13zM156 -378v190h691v-190h-691z" />
    <glyph glyph-name="uni1E78" unicode="&#x1e78;" horiz-adv-x="1496" 
d="M277.5 136.5q-151.5 155.5 -151.5 477.5v866h327v-898q0 -174 73 -254t225 -80t225 80t73 254v898h321v-866q0 -322 -150 -477.5t-469 -155.5q-322 0 -473.5 155.5zM590 1956l179 232h371l-228 -232h-322zM835 1629q-40 10 -101 30q-55 19 -89 27.5t-72 8.5
q-60 0 -106 -17t-93 -53v183q41 37 89.5 55t115.5 18q48 0 89.5 -10.5t99.5 -30.5q52 -19 87.5 -28t73.5 -9q60 0 106 17t93 53v-183q-40 -37 -88.5 -54t-116.5 -17q-48 0 -88 10z" />
    <glyph glyph-name="uni1E79" unicode="&#x1e79;" horiz-adv-x="1214" 
d="M211.5 84.5q-101.5 103.5 -101.5 325.5v684h320v-663q0 -94 38.5 -134t110.5 -40q53 0 107 23t90 66v748h320v-1094h-264l-22 110h-13q-63 -64 -141.5 -96.5t-167.5 -32.5q-175 0 -276.5 103.5zM678.5 1297.5q-39.5 12.5 -93.5 36.5q-48 22 -80 32.5t-65 10.5
q-56 0 -101 -20t-91 -65v200q39 40 87 58.5t110 18.5q43 0 82.5 -12.5t93.5 -36.5q48 -22 80 -32.5t65 -10.5q56 0 101 20t91 65v-200q-39 -40 -87 -58.5t-110 -18.5q-43 0 -82.5 12.5zM567 1936l180 303h337l-228 -303h-289z" />
    <glyph glyph-name="uni1E7A" unicode="&#x1e7a;" horiz-adv-x="1496" 
d="M277.5 136.5q-151.5 155.5 -151.5 477.5v866h327v-898q0 -174 73 -254t225 -80t225 80t73 254v898h321v-866q0 -322 -150 -477.5t-469 -155.5q-322 0 -473.5 155.5zM383 1651v192h736v-192h-736zM366 1992.5q-44 37.5 -44 107.5q0 69 44 107t128 38t128 -38t44 -107
q0 -70 -43.5 -107.5t-128.5 -37.5q-84 0 -128 37.5zM879.5 1992.5q-43.5 37.5 -43.5 107.5q0 69 44 107t128 38t128 -38t44 -107q0 -70 -44 -107.5t-128 -37.5q-85 0 -128.5 37.5z" />
    <glyph glyph-name="uni1E7B" unicode="&#x1e7b;" horiz-adv-x="1214" 
d="M211.5 84.5q-101.5 103.5 -101.5 325.5v684h320v-663q0 -94 38.5 -134t110.5 -40q53 0 107 23t90 66v748h320v-1094h-264l-22 110h-13q-63 -64 -141.5 -96.5t-167.5 -32.5q-175 0 -276.5 103.5zM248 1324v192h710v-192h-710zM231 1671.5q-45 42.5 -45 118.5t45 119
t128 43t127.5 -43t44.5 -119t-45 -118.5t-127 -42.5q-83 0 -128 42.5zM720 1671.5q-45 42.5 -45 118.5t44.5 119t127.5 43t128 -43t45 -119t-45 -118.5t-128 -42.5q-82 0 -127 42.5z" />
    <glyph glyph-name="Wgrave" unicode="&#x1e80;" horiz-adv-x="2282" 
d="M1943 1480h309l-391 -1480h-419l-295 1122l-307 -1122h-418l-392 1480h330l295 -1177l315 1177h361l307 -1191zM998 1595l-228 303h336l180 -303h-288z" />
    <glyph glyph-name="wgrave" unicode="&#x1e81;" horiz-adv-x="1813" 
d="M1479 1094h291l-293 -1094h-354l-213 791l-218 -791h-354l-294 1094h303l187 -752l203 752h354l197 -741zM761 1233l-271 383h340l224 -383h-293z" />
    <glyph glyph-name="Wacute" unicode="&#x1e82;" horiz-adv-x="2282" 
d="M1943 1480h309l-391 -1480h-419l-295 1122l-307 -1122h-418l-392 1480h330l295 -1177l315 1177h361l307 -1191zM996 1595l180 303h337l-228 -303h-289z" />
    <glyph glyph-name="wacute" unicode="&#x1e83;" horiz-adv-x="1813" 
d="M1479 1094h291l-293 -1094h-354l-213 791l-218 -791h-354l-294 1094h303l187 -752l203 752h354l197 -741zM761 1233l225 383h340l-272 -383h-293z" />
    <glyph glyph-name="Wdieresis" unicode="&#x1e84;" horiz-adv-x="2282" 
d="M1943 1480h309l-391 -1480h-419l-295 1122l-307 -1122h-418l-392 1480h330l295 -1177l315 1177h361l307 -1191zM757 1643.5q-44 37.5 -44 107.5q0 69 44 107t128 38t128 -38t44 -107q0 -70 -43.5 -107.5t-128.5 -37.5q-84 0 -128 37.5zM1270.5 1643.5
q-43.5 37.5 -43.5 107.5q0 69 44 107t128 38t128 -38t44 -107q0 -70 -44 -107.5t-128 -37.5q-85 0 -128.5 37.5z" />
    <glyph glyph-name="wdieresis" unicode="&#x1e85;" horiz-adv-x="1813" 
d="M1479 1094h291l-293 -1094h-354l-213 791l-218 -791h-354l-294 1094h303l187 -752l203 752h354l197 -741zM536 1300.5q-45 42.5 -45 118.5t45 119t128 43t127.5 -43t44.5 -119t-45 -118.5t-127 -42.5q-83 0 -128 42.5zM1025 1300.5q-45 42.5 -45 118.5t44.5 119t127.5 43
t128 -43t45 -119t-45 -118.5t-128 -42.5q-82 0 -127 42.5z" />
    <glyph glyph-name="uni1E8E" unicode="&#x1e8e;" horiz-adv-x="1287" 
d="M1327 1480l-519 -854v-626h-326v625l-534 855h346l358 -579l353 579h322zM498 1643.5q-50 37.5 -50 107.5q0 69 50 107t146 38t146 -38t50 -107q0 -70 -50 -107.5t-146 -37.5t-146 37.5z" />
    <glyph glyph-name="uni1E8F" unicode="&#x1e8f;" horiz-adv-x="1167" 
d="M854 1094h315l-541 -1534h-314l157 440h-88l-384 1094h334l258 -811zM435.5 1296q-49.5 43 -49.5 123q0 81 49 124t149 43q99 0 148 -43t49 -124q0 -80 -49 -123t-148 -43t-148.5 43z" />
    <glyph glyph-name="uni1E92" unicode="&#x1e92;" horiz-adv-x="1240" 
d="M481 270h699v-270h-1120v179l688 1031h-677v270h1099v-179zM473 -380q-50 38 -50 107t50 107t146 38t146 -38t50 -107t-50 -107t-146 -38t-146 38z" />
    <glyph glyph-name="uni1E93" unicode="&#x1e93;" horiz-adv-x="1015" 
d="M461 252h504v-252h-899v203l492 639h-482v252h878v-202zM388 -401.5q-45 41.5 -45 115.5t45 116t128 42t128 -42t45 -116t-45 -115.5t-128 -41.5t-128 41.5z" />
    <glyph glyph-name="uni1E97" unicode="&#x1e97;" horiz-adv-x="843" 
d="M808 256v-253q-101 -23 -202 -23q-202 0 -306.5 100t-104.5 310v452h-178v252h178l58 386h262v-386h287v-252h-287v-402q0 -74 18.5 -117t57 -61.5t102.5 -18.5q42 0 115 13zM-17 1608.5q-45 42.5 -45 118.5t45 119t128 43t127.5 -43t44.5 -119t-45 -118.5t-127 -42.5
q-83 0 -128 42.5zM472 1608.5q-45 42.5 -45 118.5t44.5 119t127.5 43t128 -43t45 -119t-45 -118.5t-128 -42.5q-82 0 -127 42.5z" />
    <glyph glyph-name="uni1E9E" unicode="&#x1e9e;" horiz-adv-x="1820" 
d="M1667 711q98 -104 98 -274q0 -141 -69 -244t-200 -157.5t-314 -54.5q-99 0 -202 15.5t-189 43.5v265q88 -29 194.5 -45.5t192.5 -16.5q141 0 204 43.5t63 128.5q0 47 -18.5 79t-62 56t-119.5 44l-107 29q-192 49 -287 153.5t-95 272.5q0 102 34 182q-31 7 -71 7
q-131 0 -195.5 -70.5t-64.5 -211.5v-956h-326v915q0 286 145.5 435t440.5 149q173 0 301 -55q138 55 341 55q90 0 176 -10.5t155 -29.5v-264q-69 20 -152 31t-159 11q-163 0 -233.5 -44.5t-70.5 -126.5q0 -45 16 -75.5t54 -53t105 -40.5l107 -28q210 -54 308 -158z" />
    <glyph glyph-name="uni1EA0" unicode="&#x1ea0;" horiz-adv-x="1460" 
d="M1125 0l-122 395h-549l-122 -395h-318l478 1480h476l478 -1480h-321zM533 654h390l-195 631zM584 -380q-50 38 -50 107t50 107t146 38t146 -38t50 -107t-50 -107t-146 -38t-146 38z" />
    <glyph glyph-name="uni1EA1" unicode="&#x1ea1;" horiz-adv-x="1119" 
d="M793 1067q110 -44 163 -144.5t53 -272.5v-650h-264l-22 108h-15q-48 -65 -123 -96.5t-167 -31.5q-110 0 -190 39.5t-122.5 111t-42.5 166.5q0 157 109.5 243t345.5 101l178 15v14q0 76 -24.5 119t-78 61.5t-146.5 18.5q-67 0 -146.5 -11t-150.5 -33v240q78 22 173 34
t181 12q179 0 289 -44zM615 218.5q45 16.5 81 52.5v205l-146 -11q-90 -7 -131 -41.5t-41 -96.5q0 -61 37 -93t108 -32q47 0 92 16.5zM432 -401.5q-45 41.5 -45 115.5t45 116t128 42t128 -42t45 -116t-45 -115.5t-128 -41.5t-128 41.5z" />
    <glyph glyph-name="uni1EA2" unicode="&#x1ea2;" horiz-adv-x="1460" 
d="M1125 0l-122 395h-549l-122 -395h-318l478 1480h476l478 -1480h-321zM533 654h390l-195 631zM679 1663.5q28 24.5 78 47.5q31 14 44.5 24t13.5 24q0 19 -26.5 28.5t-83.5 9.5q-93 0 -192 -25v119q41 12 100.5 19t115.5 7q131 0 193 -34t62 -100q0 -29 -14 -50.5
t-33.5 -35t-51.5 -31.5q-36 -20 -54.5 -35t-21.5 -36h-161q3 44 31 68.5z" />
    <glyph glyph-name="uni1EA3" unicode="&#x1ea3;" horiz-adv-x="1119" 
d="M793 1067q110 -44 163 -144.5t53 -272.5v-650h-264l-22 108h-15q-48 -65 -123 -96.5t-167 -31.5q-110 0 -190 39.5t-122.5 111t-42.5 166.5q0 157 109.5 243t345.5 101l178 15v14q0 76 -24.5 119t-78 61.5t-146.5 18.5q-67 0 -146.5 -11t-150.5 -33v240q78 22 173 34
t181 12q179 0 289 -44zM615 218.5q45 16.5 81 52.5v205l-146 -11q-90 -7 -131 -41.5t-41 -96.5q0 -61 37 -93t108 -32q47 0 92 16.5zM504.5 1324.5q25.5 33.5 69.5 64.5q27 20 39.5 34t12.5 32q0 26 -23 37.5t-75 11.5q-85 0 -165 -24v123q37 12 89.5 18.5t98.5 6.5
q125 0 184.5 -37.5t59.5 -115.5q0 -35 -11.5 -60t-28 -41t-44.5 -37q-35 -26 -53.5 -48t-21.5 -56h-160q3 58 28.5 91.5z" />
    <glyph glyph-name="uni1EA4" unicode="&#x1ea4;" horiz-adv-x="1460" 
d="M1125 0l-122 395h-549l-122 -395h-318l478 1480h476l478 -1480h-321zM533 654h390l-195 631zM1097 2064h219l-162 -247h-175zM593 1867h272l256 -272h-243l-149 168l-149 -168h-243z" />
    <glyph glyph-name="uni1EA5" unicode="&#x1ea5;" horiz-adv-x="1119" 
d="M793 1067q110 -44 163 -144.5t53 -272.5v-650h-264l-22 108h-15q-48 -65 -123 -96.5t-167 -31.5q-110 0 -190 39.5t-122.5 111t-42.5 166.5q0 157 109.5 243t345.5 101l178 15v14q0 76 -24.5 119t-78 61.5t-146.5 18.5q-67 0 -146.5 -11t-150.5 -33v240q78 22 173 34
t181 12q179 0 289 -44zM615 218.5q45 16.5 81 52.5v205l-146 -11q-90 -7 -131 -41.5t-41 -96.5q0 -61 37 -93t108 -32q47 0 92 16.5zM964 1868h271l-228 -271h-223zM425 1616h262l233 -383h-230l-134 233l-135 -233h-229z" />
    <glyph glyph-name="uni1EA6" unicode="&#x1ea6;" horiz-adv-x="1460" 
d="M1125 0l-122 395h-549l-122 -395h-318l478 1480h476l478 -1480h-321zM533 654h390l-195 631zM1188 1817h-175l-162 247h218zM593 1867h272l256 -272h-243l-149 168l-149 -168h-243z" />
    <glyph glyph-name="uni1EA7" unicode="&#x1ea7;" horiz-adv-x="1119" 
d="M793 1067q110 -44 163 -144.5t53 -272.5v-650h-264l-22 108h-15q-48 -65 -123 -96.5t-167 -31.5q-110 0 -190 39.5t-122.5 111t-42.5 166.5q0 157 109.5 243t345.5 101l178 15v14q0 76 -24.5 119t-78 61.5t-146.5 18.5q-67 0 -146.5 -11t-150.5 -33v240q78 22 173 34
t181 12q179 0 289 -44zM615 218.5q45 16.5 81 52.5v205l-146 -11q-90 -7 -131 -41.5t-41 -96.5q0 -61 37 -93t108 -32q47 0 92 16.5zM1039 1597h-224l-228 271h272zM425 1616h262l233 -383h-230l-134 233l-135 -233h-229z" />
    <glyph glyph-name="uni1EA8" unicode="&#x1ea8;" horiz-adv-x="1460" 
d="M1125 0l-122 395h-549l-122 -395h-318l478 1480h476l478 -1480h-321zM533 654h390l-195 631zM1314 1985q0 -37 -25 -58.5t-74 -45.5q-38 -18 -55.5 -31t-20.5 -33h-161q3 40 30.5 61.5t77.5 42.5q32 14 45.5 23t13.5 22q0 34 -110 34q-95 0 -193 -23v104q43 11 103.5 18
t113.5 7q255 0 255 -121zM593 1867h272l256 -272h-243l-149 168l-149 -168h-243z" />
    <glyph glyph-name="uni1EA9" unicode="&#x1ea9;" horiz-adv-x="1119" 
d="M793 1067q110 -44 163 -144.5t53 -272.5v-650h-264l-22 108h-15q-48 -65 -123 -96.5t-167 -31.5q-110 0 -190 39.5t-122.5 111t-42.5 166.5q0 157 109.5 243t345.5 101l178 15v14q0 76 -24.5 119t-78 61.5t-146.5 18.5q-67 0 -146.5 -11t-150.5 -33v240q78 22 173 34
t181 12q179 0 289 -44zM615 218.5q45 16.5 81 52.5v205l-146 -11q-90 -7 -131 -41.5t-41 -96.5q0 -61 37 -93t108 -32q47 0 92 16.5zM1038 1856.5q58 -29.5 58 -90.5q0 -33 -21 -52.5t-64 -41.5q-37 -18 -56.5 -34t-23.5 -41h-151q3 44 30.5 67t73.5 43q26 11 38 19t12 20
q0 18 -24 27t-78 9q-95 0 -182 -23v102q38 11 97 18t109 7q124 0 182 -29.5zM425 1616h262l233 -383h-230l-134 233l-135 -233h-229z" />
    <glyph glyph-name="uni1EAA" unicode="&#x1eaa;" horiz-adv-x="1460" 
d="M1125 0l-122 395h-549l-122 -395h-318l478 1480h476l478 -1480h-321zM533 654h390l-195 631zM1009.5 2059q49.5 15 111.5 52v-139q-52 -36 -103 -49t-119 -13q-48 0 -91.5 9t-99.5 25q-54 14 -86.5 21t-65.5 7q-58 0 -107.5 -15t-111.5 -52v139q53 35 104 49t118 14
q47 0 88 -8.5t103 -25.5q50 -14 84 -21.5t68 -7.5q58 0 107.5 15zM593 1867h272l256 -272h-243l-149 168l-149 -168h-243z" />
    <glyph glyph-name="uni1EAB" unicode="&#x1eab;" horiz-adv-x="1119" 
d="M793 1067q110 -44 163 -144.5t53 -272.5v-650h-264l-22 108h-15q-48 -65 -123 -96.5t-167 -31.5q-110 0 -190 39.5t-122.5 111t-42.5 166.5q0 157 109.5 243t345.5 101l178 15v14q0 76 -24.5 119t-78 61.5t-146.5 18.5q-67 0 -146.5 -11t-150.5 -33v240q78 22 173 34
t181 12q179 0 289 -44zM615 218.5q45 16.5 81 52.5v205l-146 -11q-90 -7 -131 -41.5t-41 -96.5q0 -61 37 -93t108 -32q47 0 92 16.5zM636.5 1629q-41.5 9 -97.5 27q-53 16 -87 24t-71 8q-59 0 -104.5 -15t-92.5 -48v161q40 33 88.5 48.5t114.5 15.5q46 0 86.5 -9.5
t99.5 -27.5q50 -16 85.5 -24.5t72.5 -8.5q58 0 104 15.5t93 48.5v-161q-39 -32 -88 -47.5t-115 -15.5q-47 0 -88.5 9zM942 1235h-240l-146 205l-146 -205h-240l250 326h272z" />
    <glyph glyph-name="uni1EAC" unicode="&#x1eac;" horiz-adv-x="1460" 
d="M1125 0l-122 395h-549l-122 -395h-318l478 1480h476l478 -1480h-321zM533 654h390l-195 631zM584 -380q-50 38 -50 107t50 107t146 38t146 -38t50 -107t-50 -107t-146 -38t-146 38zM1121 1595h-243l-149 185l-149 -185h-243l256 303h272z" />
    <glyph glyph-name="uni1EAD" unicode="&#x1ead;" horiz-adv-x="1119" 
d="M793 1067q110 -44 163 -144.5t53 -272.5v-650h-264l-22 108h-15q-48 -65 -123 -96.5t-167 -31.5q-110 0 -190 39.5t-122.5 111t-42.5 166.5q0 157 109.5 243t345.5 101l178 15v14q0 76 -24.5 119t-78 61.5t-146.5 18.5q-67 0 -146.5 -11t-150.5 -33v240q78 22 173 34
t181 12q179 0 289 -44zM615 218.5q45 16.5 81 52.5v205l-146 -11q-90 -7 -131 -41.5t-41 -96.5q0 -61 37 -93t108 -32q47 0 92 16.5zM432 -401.5q-45 41.5 -45 115.5t45 116t128 42t128 -42t45 -116t-45 -115.5t-128 -41.5t-128 41.5zM920 1233h-230l-134 233l-135 -233
h-229l233 383h262z" />
    <glyph glyph-name="uni1EAE" unicode="&#x1eae;" horiz-adv-x="1460" 
d="M1125 0l-122 395h-549l-122 -395h-318l478 1480h476l478 -1480h-321zM533 654h390l-195 631zM642 1833l118 241h218l-162 -241h-174zM473 1667.5q-91 68.5 -109 191.5h171q13 -65 56 -96t138 -31q65 0 105 14.5t61.5 41.5t34.5 71h164q-18 -122 -109.5 -191t-255.5 -69
q-165 0 -256 68.5z" />
    <glyph glyph-name="uni1EAF" unicode="&#x1eaf;" horiz-adv-x="1119" 
d="M793 1067q110 -44 163 -144.5t53 -272.5v-650h-264l-22 108h-15q-48 -65 -123 -96.5t-167 -31.5q-110 0 -190 39.5t-122.5 111t-42.5 166.5q0 157 109.5 243t345.5 101l178 15v14q0 76 -24.5 119t-78 61.5t-146.5 18.5q-67 0 -146.5 -11t-150.5 -33v240q78 22 173 34
t181 12q179 0 289 -44zM615 218.5q45 16.5 81 52.5v205l-146 -11q-90 -7 -131 -41.5t-41 -96.5q0 -61 37 -93t108 -32q47 0 92 16.5zM443 1597l180 271h271l-228 -271h-223zM290 1328.5q-96 83.5 -111 231.5h195q11 -79 55.5 -119t127.5 -40q82 0 126 40t55 119h195
q-15 -149 -110 -232t-266 -83t-267 83.5z" />
    <glyph glyph-name="uni1EB0" unicode="&#x1eb0;" horiz-adv-x="1460" 
d="M1125 0l-122 395h-549l-122 -395h-318l478 1480h476l478 -1480h-321zM533 654h390l-195 631zM642 1833l-162 241h218l118 -241h-174zM473 1667.5q-91 68.5 -109 191.5h164q19 -65 62.5 -96t138.5 -31t137.5 31t56.5 96h171q-18 -122 -109.5 -191t-255.5 -69
q-165 0 -256 68.5z" />
    <glyph glyph-name="uni1EB1" unicode="&#x1eb1;" horiz-adv-x="1119" 
d="M793 1067q110 -44 163 -144.5t53 -272.5v-650h-264l-22 108h-15q-48 -65 -123 -96.5t-167 -31.5q-110 0 -190 39.5t-122.5 111t-42.5 166.5q0 157 109.5 243t345.5 101l178 15v14q0 76 -24.5 119t-78 61.5t-146.5 18.5q-67 0 -146.5 -11t-150.5 -33v240q78 22 173 34
t181 12q179 0 289 -44zM615 218.5q45 16.5 81 52.5v205l-146 -11q-90 -7 -131 -41.5t-41 -96.5q0 -61 37 -93t108 -32q47 0 92 16.5zM446 1597l-228 271h271l180 -271h-223zM290 1328.5q-96 83.5 -111 231.5h195q11 -79 55.5 -119t127.5 -40q82 0 126 40t55 119h195
q-15 -149 -110 -232t-266 -83t-267 83.5z" />
    <glyph glyph-name="uni1EB2" unicode="&#x1eb2;" horiz-adv-x="1460" 
d="M1125 0l-122 395h-549l-122 -395h-318l478 1480h476l478 -1480h-321zM533 654h390l-195 631zM678.5 1894.5q27.5 21.5 77.5 42.5q32 14 45.5 23t13.5 22q0 34 -110 34q-96 0 -192 -23v105q43 11 103 17.5t113 6.5q131 0 193 -30t62 -90q0 -38 -25 -59.5t-74 -45.5
q-37 -18 -55 -31.5t-21 -32.5h-161q3 40 30.5 61.5zM472.5 1667.5q-90.5 68.5 -108.5 191.5h171q13 -65 55.5 -96t137.5 -31t139 31t63 96h164q-18 -122 -109.5 -191t-256.5 -69t-255.5 68.5z" />
    <glyph glyph-name="uni1EB3" unicode="&#x1eb3;" horiz-adv-x="1119" 
d="M793 1067q110 -44 163 -144.5t53 -272.5v-650h-264l-22 108h-15q-48 -65 -123 -96.5t-167 -31.5q-110 0 -190 39.5t-122.5 111t-42.5 166.5q0 157 109.5 243t345.5 101l178 15v14q0 76 -24.5 119t-78 61.5t-146.5 18.5q-67 0 -146.5 -11t-150.5 -33v240q78 22 173 34
t181 12q179 0 289 -44zM615 218.5q45 16.5 81 52.5v205l-146 -11q-90 -7 -131 -41.5t-41 -96.5q0 -61 37 -93t108 -32q47 0 92 16.5zM505.5 1658.5q27.5 21.5 77.5 42.5q32 14 45.5 23t13.5 22q0 34 -110 34q-96 0 -192 -23v104q43 11 102.5 18t113.5 7q131 0 193 -30
t62 -90q0 -38 -25 -59.5t-74 -45.5q-37 -18 -55 -31.5t-21 -32.5h-161q3 40 30.5 61.5zM290 1328.5q-96 83.5 -111 231.5h195q11 -79 55.5 -119t127.5 -40q82 0 126 40t55 119h195q-15 -149 -110 -232t-266 -83t-267 83.5z" />
    <glyph glyph-name="uni1EB4" unicode="&#x1eb4;" horiz-adv-x="1460" 
d="M1125 0l-122 395h-549l-122 -395h-318l478 1480h476l478 -1480h-321zM533 654h390l-195 631zM800 1919q-39 9 -90 25q-49 15 -78 21.5t-58 6.5q-54 0 -100.5 -15t-109.5 -52v139q54 35 102.5 49t110.5 14q41 0 77 -8.5t94 -25.5q45 -14 75.5 -21.5t60.5 -7.5
q54 0 100.5 15t109.5 52v-139q-53 -36 -101.5 -49t-111.5 -13q-42 0 -81 9zM472.5 1667.5q-90.5 68.5 -108.5 191.5h171q13 -65 55.5 -96t137.5 -31t138 31t57 96h171q-18 -122 -109.5 -191t-256.5 -69t-255.5 68.5z" />
    <glyph glyph-name="uni1EB5" unicode="&#x1eb5;" horiz-adv-x="1119" 
d="M793 1067q110 -44 163 -144.5t53 -272.5v-650h-264l-22 108h-15q-48 -65 -123 -96.5t-167 -31.5q-110 0 -190 39.5t-122.5 111t-42.5 166.5q0 157 109.5 243t345.5 101l178 15v14q0 76 -24.5 119t-78 61.5t-146.5 18.5q-67 0 -146.5 -11t-150.5 -33v240q78 22 173 34
t181 12q179 0 289 -44zM615 218.5q45 16.5 81 52.5v205l-146 -11q-90 -7 -131 -41.5t-41 -96.5q0 -61 37 -93t108 -32q47 0 92 16.5zM639.5 1629q-42.5 9 -99.5 27q-57 17 -91.5 24.5t-72.5 7.5q-60 0 -107.5 -15t-96.5 -48v160q41 34 91 49.5t119 15.5q47 0 87 -8.5
t103 -27.5q54 -17 90 -25t74 -8q60 0 107.5 15t96.5 48v-160q-41 -34 -91 -49t-119 -15q-48 0 -90.5 9zM290 1328.5q-96 83.5 -111 231.5h195q11 -79 55.5 -119t127.5 -40q82 0 126 40t55 119h195q-15 -149 -110 -232t-266 -83t-267 83.5z" />
    <glyph glyph-name="uni1EB6" unicode="&#x1eb6;" horiz-adv-x="1460" 
d="M1125 0l-122 395h-549l-122 -395h-318l478 1480h476l478 -1480h-321zM533 654h390l-195 631zM584 -380q-50 38 -50 107t50 107t146 38t146 -38t50 -107t-50 -107t-146 -38t-146 38zM459 1676q-97 77 -113 213h196q12 -68 56.5 -101t131.5 -33q86 0 130 33t56 101h196
q-16 -136 -112.5 -213t-269.5 -77q-174 0 -271 77z" />
    <glyph glyph-name="uni1EB7" unicode="&#x1eb7;" horiz-adv-x="1119" 
d="M793 1067q110 -44 163 -144.5t53 -272.5v-650h-264l-22 108h-15q-48 -65 -123 -96.5t-167 -31.5q-110 0 -190 39.5t-122.5 111t-42.5 166.5q0 157 109.5 243t345.5 101l178 15v14q0 76 -24.5 119t-78 61.5t-146.5 18.5q-67 0 -146.5 -11t-150.5 -33v240q78 22 173 34
t181 12q179 0 289 -44zM615 218.5q45 16.5 81 52.5v205l-146 -11q-90 -7 -131 -41.5t-41 -96.5q0 -61 37 -93t108 -32q47 0 92 16.5zM432 -401.5q-45 41.5 -45 115.5t45 116t128 42t128 -42t45 -116t-45 -115.5t-128 -41.5t-128 41.5zM295.5 1332.5q-94.5 90.5 -103.5 261.5
h194q7 -95 49 -142t122 -47q79 0 120.5 46.5t48.5 142.5h194q-9 -172 -103 -262t-260 -90q-167 0 -261.5 90.5z" />
    <glyph glyph-name="uni1EB8" unicode="&#x1eb8;" 
d="M455 260h729v-260h-1051v1480h1041v-260h-719v-333h617v-260h-617v-367zM530 -380q-50 38 -50 107t50 107t146 38t146 -38t50 -107t-50 -107t-146 -38t-146 38z" />
    <glyph glyph-name="uni1EB9" unicode="&#x1eb9;" horiz-adv-x="1110" 
d="M1053 454h-664q5 -88 37.5 -138.5t101.5 -73t188 -22.5q125 0 276 35v-239q-160 -37 -321 -37q-209 0 -341.5 59.5t-196.5 184.5t-64 325q0 180 59.5 306.5t173.5 191.5t276 65q232 0 353.5 -146.5t121.5 -426.5v-84zM437 847q-46 -62 -49 -208h367q-3 147 -47 208.5
t-134 61.5q-91 0 -137 -62zM444 -401.5q-45 41.5 -45 115.5t45 116t128 42t128 -42t45 -116t-45 -115.5t-128 -41.5t-128 41.5z" />
    <glyph glyph-name="uni1EBA" unicode="&#x1eba;" 
d="M455 260h729v-260h-1051v1480h1041v-260h-719v-333h617v-260h-617v-367zM625 1663.5q28 24.5 78 47.5q31 14 44.5 24t13.5 24q0 19 -26.5 28.5t-83.5 9.5q-93 0 -192 -25v119q41 12 100.5 19t115.5 7q131 0 193 -34t62 -100q0 -29 -14 -50.5t-33.5 -35t-51.5 -31.5
q-36 -20 -54.5 -35t-21.5 -36h-161q3 44 31 68.5z" />
    <glyph glyph-name="uni1EBB" unicode="&#x1ebb;" horiz-adv-x="1110" 
d="M1053 454h-664q5 -88 37.5 -138.5t101.5 -73t188 -22.5q125 0 276 35v-239q-160 -37 -321 -37q-209 0 -341.5 59.5t-196.5 184.5t-64 325q0 180 59.5 306.5t173.5 191.5t276 65q232 0 353.5 -146.5t121.5 -426.5v-84zM437 847q-46 -62 -49 -208h367q-3 147 -47 208.5
t-134 61.5q-91 0 -137 -62zM520.5 1324.5q25.5 33.5 69.5 64.5q27 20 39.5 34t12.5 32q0 26 -23 37.5t-75 11.5q-85 0 -165 -24v123q37 12 89.5 18.5t98.5 6.5q125 0 184.5 -37.5t59.5 -115.5q0 -35 -11.5 -60t-28 -41t-44.5 -37q-35 -26 -53.5 -48t-21.5 -56h-160
q3 58 28.5 91.5z" />
    <glyph glyph-name="uni1EBC" unicode="&#x1ebc;" 
d="M455 260h729v-260h-1051v1480h1041v-260h-719v-333h617v-260h-617v-367zM759 1629q-40 10 -101 30q-55 19 -89 27.5t-72 8.5q-60 0 -106 -17t-93 -53v183q41 37 89.5 55t115.5 18q48 0 89.5 -10.5t99.5 -30.5q52 -19 87.5 -28t73.5 -9q60 0 106 17t93 53v-183
q-40 -37 -88.5 -54t-116.5 -17q-48 0 -88 10z" />
    <glyph glyph-name="uni1EBD" unicode="&#x1ebd;" horiz-adv-x="1110" 
d="M1053 454h-664q5 -88 37.5 -138.5t101.5 -73t188 -22.5q125 0 276 35v-239q-160 -37 -321 -37q-209 0 -341.5 59.5t-196.5 184.5t-64 325q0 180 59.5 306.5t173.5 191.5t276 65q232 0 353.5 -146.5t121.5 -426.5v-84zM437 847q-46 -62 -49 -208h367q-3 147 -47 208.5
t-134 61.5q-91 0 -137 -62zM647.5 1297.5q-39.5 12.5 -93.5 36.5q-48 22 -80 32.5t-65 10.5q-56 0 -101 -20t-91 -65v200q39 40 87 58.5t110 18.5q43 0 82.5 -12.5t93.5 -36.5q48 -22 80 -32.5t65 -10.5q56 0 101 20t91 65v-200q-39 -40 -87 -58.5t-110 -18.5
q-43 0 -82.5 12.5z" />
    <glyph glyph-name="uni1EBE" unicode="&#x1ebe;" 
d="M455 260h729v-260h-1051v1480h1041v-260h-719v-333h617v-260h-617v-367zM1043 2064h219l-162 -247h-175zM539 1867h272l256 -272h-243l-149 168l-149 -168h-243z" />
    <glyph glyph-name="uni1EBF" unicode="&#x1ebf;" horiz-adv-x="1110" 
d="M1053 454h-664q5 -88 37.5 -138.5t101.5 -73t188 -22.5q125 0 276 35v-239q-160 -37 -321 -37q-209 0 -341.5 59.5t-196.5 184.5t-64 325q0 180 59.5 306.5t173.5 191.5t276 65q232 0 353.5 -146.5t121.5 -426.5v-84zM437 847q-46 -62 -49 -208h367q-3 147 -47 208.5
t-134 61.5q-91 0 -137 -62zM980 1868h271l-228 -271h-223zM441 1616h262l233 -383h-230l-134 233l-135 -233h-229z" />
    <glyph glyph-name="uni1EC0" unicode="&#x1ec0;" 
d="M455 260h729v-260h-1051v1480h1041v-260h-719v-333h617v-260h-617v-367zM1134 1817h-175l-162 247h218zM539 1867h272l256 -272h-243l-149 168l-149 -168h-243z" />
    <glyph glyph-name="uni1EC1" unicode="&#x1ec1;" horiz-adv-x="1110" 
d="M1053 454h-664q5 -88 37.5 -138.5t101.5 -73t188 -22.5q125 0 276 35v-239q-160 -37 -321 -37q-209 0 -341.5 59.5t-196.5 184.5t-64 325q0 180 59.5 306.5t173.5 191.5t276 65q232 0 353.5 -146.5t121.5 -426.5v-84zM437 847q-46 -62 -49 -208h367q-3 147 -47 208.5
t-134 61.5q-91 0 -137 -62zM1055 1597h-224l-228 271h272zM441 1616h262l233 -383h-230l-134 233l-135 -233h-229z" />
    <glyph glyph-name="uni1EC2" unicode="&#x1ec2;" 
d="M455 260h729v-260h-1051v1480h1041v-260h-719v-333h617v-260h-617v-367zM1260 1985q0 -37 -25 -58.5t-74 -45.5q-38 -18 -55.5 -31t-20.5 -33h-161q3 40 30.5 61.5t77.5 42.5q32 14 45.5 23t13.5 22q0 34 -110 34q-95 0 -193 -23v104q43 11 103.5 18t113.5 7
q255 0 255 -121zM539 1867h272l256 -272h-243l-149 168l-149 -168h-243z" />
    <glyph glyph-name="uni1EC3" unicode="&#x1ec3;" horiz-adv-x="1110" 
d="M1053 454h-664q5 -88 37.5 -138.5t101.5 -73t188 -22.5q125 0 276 35v-239q-160 -37 -321 -37q-209 0 -341.5 59.5t-196.5 184.5t-64 325q0 180 59.5 306.5t173.5 191.5t276 65q232 0 353.5 -146.5t121.5 -426.5v-84zM437 847q-46 -62 -49 -208h367q-3 147 -47 208.5
t-134 61.5q-91 0 -137 -62zM1054 1856.5q58 -29.5 58 -90.5q0 -33 -21 -52.5t-64 -41.5q-37 -18 -56.5 -34t-23.5 -41h-151q3 44 30.5 67t73.5 43q26 11 38 19t12 20q0 18 -24 27t-78 9q-95 0 -182 -23v102q38 11 97 18t109 7q124 0 182 -29.5zM441 1616h262l233 -383h-230
l-134 233l-135 -233h-229z" />
    <glyph glyph-name="uni1EC4" unicode="&#x1ec4;" 
d="M455 260h729v-260h-1051v1480h1041v-260h-719v-333h617v-260h-617v-367zM955.5 2059q49.5 15 111.5 52v-139q-52 -36 -103 -49t-119 -13q-48 0 -91.5 9t-99.5 25q-54 14 -86.5 21t-65.5 7q-58 0 -107.5 -15t-111.5 -52v139q53 35 104 49t118 14q47 0 88 -8.5t103 -25.5
q50 -14 84 -21.5t68 -7.5q58 0 107.5 15zM539 1867h272l256 -272h-243l-149 168l-149 -168h-243z" />
    <glyph glyph-name="uni1EC5" unicode="&#x1ec5;" horiz-adv-x="1110" 
d="M1053 454h-664q5 -88 37.5 -138.5t101.5 -73t188 -22.5q125 0 276 35v-239q-160 -37 -321 -37q-209 0 -341.5 59.5t-196.5 184.5t-64 325q0 180 59.5 306.5t173.5 191.5t276 65q232 0 353.5 -146.5t121.5 -426.5v-84zM437 847q-46 -62 -49 -208h367q-3 147 -47 208.5
t-134 61.5q-91 0 -137 -62zM652.5 1629q-41.5 9 -97.5 27q-53 16 -87 24t-71 8q-59 0 -104.5 -15t-92.5 -48v161q40 33 88.5 48.5t114.5 15.5q46 0 86.5 -9.5t99.5 -27.5q50 -16 85.5 -24.5t72.5 -8.5q58 0 104 15.5t93 48.5v-161q-39 -32 -88 -47.5t-115 -15.5
q-47 0 -88.5 9zM958 1235h-240l-146 205l-146 -205h-240l250 326h272z" />
    <glyph glyph-name="uni1EC6" unicode="&#x1ec6;" 
d="M455 260h729v-260h-1051v1480h1041v-260h-719v-333h617v-260h-617v-367zM530 -380q-50 38 -50 107t50 107t146 38t146 -38t50 -107t-50 -107t-146 -38t-146 38zM1067 1595h-243l-149 185l-149 -185h-243l256 303h272z" />
    <glyph glyph-name="uni1EC7" unicode="&#x1ec7;" horiz-adv-x="1110" 
d="M1053 454h-664q5 -88 37.5 -138.5t101.5 -73t188 -22.5q125 0 276 35v-239q-160 -37 -321 -37q-209 0 -341.5 59.5t-196.5 184.5t-64 325q0 180 59.5 306.5t173.5 191.5t276 65q232 0 353.5 -146.5t121.5 -426.5v-84zM437 847q-46 -62 -49 -208h367q-3 147 -47 208.5
t-134 61.5q-91 0 -137 -62zM444 -401.5q-45 41.5 -45 115.5t45 116t128 42t128 -42t45 -116t-45 -115.5t-128 -41.5t-128 41.5zM936 1233h-230l-134 233l-135 -233h-229l233 383h262z" />
    <glyph glyph-name="uni1EC8" unicode="&#x1ec8;" horiz-adv-x="592" 
d="M133 0v1480h326v-1480h-326zM246 1663.5q28 24.5 78 47.5q31 14 44.5 24t13.5 24q0 19 -26.5 28.5t-83.5 9.5q-93 0 -192 -25v119q41 12 100.5 19t115.5 7q131 0 193 -34t62 -100q0 -29 -14 -50.5t-33.5 -35t-51.5 -31.5q-36 -20 -54.5 -35t-21.5 -36h-161q3 44 31 68.5z
" />
    <glyph glyph-name="uni1EC9" unicode="&#x1ec9;" horiz-adv-x="558" 
d="M119 0v1094h320v-1094h-320zM227.5 1324.5q25.5 33.5 69.5 64.5q27 20 39.5 34t12.5 32q0 26 -23 37.5t-75 11.5q-85 0 -165 -24v123q37 12 89.5 18.5t98.5 6.5q125 0 184.5 -37.5t59.5 -115.5q0 -35 -11.5 -60t-28 -41t-44.5 -37q-35 -26 -53.5 -48t-21.5 -56h-160
q3 58 28.5 91.5z" />
    <glyph glyph-name="uni1ECA" unicode="&#x1eca;" horiz-adv-x="592" 
d="M133 0v1480h326v-1480h-326zM149 -380q-50 38 -50 107t50 107t146 38t146 -38t50 -107t-50 -107t-146 -38t-146 38z" />
    <glyph glyph-name="uni1ECB" unicode="&#x1ecb;" horiz-adv-x="558" 
d="M119 0v1094h320v-1094h-320zM130.5 1296q-49.5 43 -49.5 123q0 81 49 124t149 43q99 0 148 -43t49 -124q0 -80 -49 -123t-148 -43t-148.5 43zM151 -401.5q-45 41.5 -45 115.5t45 116t128 42t128 -42t45 -116t-45 -115.5t-128 -41.5t-128 41.5z" />
    <glyph glyph-name="uni1ECC" unicode="&#x1ecc;" horiz-adv-x="1563" 
d="M410.5 64.5q-156.5 83.5 -242 253.5t-85.5 422t85.5 422t242 253.5t371.5 83.5t371.5 -84t241.5 -254t85 -421t-85.5 -421t-242 -254t-370.5 -84q-215 0 -371.5 83.5zM1052 361q93 117 93 372q0 264 -93.5 383.5t-269.5 119.5q-177 0 -270.5 -117t-93.5 -372
q0 -265 93 -384t271 -119q177 0 270 117zM636 -380q-50 38 -50 107t50 107t146 38t146 -38t50 -107t-50 -107t-146 -38t-146 38z" />
    <glyph glyph-name="uni1ECD" unicode="&#x1ecd;" horiz-adv-x="1206" 
d="M317.5 42q-119.5 63 -184 189.5t-64.5 312.5q0 282 139 424.5t395 142.5q255 0 394.5 -143t139.5 -422q0 -187 -64.5 -314t-184 -190t-285.5 -63t-285.5 63zM720 252q46 30 70.5 100.5t24.5 190.5q0 122 -24.5 194t-71 102t-116.5 30t-116.5 -30t-71 -100.5t-24.5 -191.5
q0 -122 24.5 -193.5t70.5 -101.5t117 -30t117 30zM475 -401.5q-45 41.5 -45 115.5t45 116t128 42t128 -42t45 -116t-45 -115.5t-128 -41.5t-128 41.5z" />
    <glyph glyph-name="uni1ECE" unicode="&#x1ece;" horiz-adv-x="1563" 
d="M410.5 64.5q-156.5 83.5 -242 253.5t-85.5 422t85.5 422t242 253.5t371.5 83.5t371.5 -84t241.5 -254t85 -421t-85.5 -421t-242 -254t-370.5 -84q-215 0 -371.5 83.5zM1052 361q93 117 93 372q0 264 -93.5 383.5t-269.5 119.5q-177 0 -270.5 -117t-93.5 -372
q0 -265 93 -384t271 -119q177 0 270 117zM732 1663.5q28 24.5 78 47.5q31 14 44.5 24t13.5 24q0 19 -26.5 28.5t-83.5 9.5q-93 0 -192 -25v119q41 12 100.5 19t115.5 7q131 0 193 -34t62 -100q0 -29 -14 -50.5t-33.5 -35t-51.5 -31.5q-36 -20 -54.5 -35t-21.5 -36h-161
q3 44 31 68.5z" />
    <glyph glyph-name="uni1ECF" unicode="&#x1ecf;" horiz-adv-x="1206" 
d="M317.5 42q-119.5 63 -184 189.5t-64.5 312.5q0 282 139 424.5t395 142.5q255 0 394.5 -143t139.5 -422q0 -187 -64.5 -314t-184 -190t-285.5 -63t-285.5 63zM720 252q46 30 70.5 100.5t24.5 190.5q0 122 -24.5 194t-71 102t-116.5 30t-116.5 -30t-71 -100.5t-24.5 -191.5
q0 -122 24.5 -193.5t70.5 -101.5t117 -30t117 30zM551.5 1324.5q25.5 33.5 69.5 64.5q27 20 39.5 34t12.5 32q0 26 -23 37.5t-75 11.5q-85 0 -165 -24v123q37 12 89.5 18.5t98.5 6.5q125 0 184.5 -37.5t59.5 -115.5q0 -35 -11.5 -60t-28 -41t-44.5 -37q-35 -26 -53.5 -48
t-21.5 -56h-160q3 58 28.5 91.5z" />
    <glyph glyph-name="uni1ED0" unicode="&#x1ed0;" horiz-adv-x="1563" 
d="M410.5 64.5q-156.5 83.5 -242 253.5t-85.5 422t85.5 422t242 253.5t371.5 83.5t371.5 -84t241.5 -254t85 -421t-85.5 -421t-242 -254t-370.5 -84q-215 0 -371.5 83.5zM1052 361q93 117 93 372q0 264 -93.5 383.5t-269.5 119.5q-177 0 -270.5 -117t-93.5 -372
q0 -265 93 -384t271 -119q177 0 270 117zM1150 2064h219l-162 -247h-175zM646 1867h272l256 -272h-243l-149 168l-149 -168h-243z" />
    <glyph glyph-name="uni1ED1" unicode="&#x1ed1;" horiz-adv-x="1206" 
d="M317.5 42q-119.5 63 -184 189.5t-64.5 312.5q0 282 139 424.5t395 142.5q255 0 394.5 -143t139.5 -422q0 -187 -64.5 -314t-184 -190t-285.5 -63t-285.5 63zM720 252q46 30 70.5 100.5t24.5 190.5q0 122 -24.5 194t-71 102t-116.5 30t-116.5 -30t-71 -100.5t-24.5 -191.5
q0 -122 24.5 -193.5t70.5 -101.5t117 -30t117 30zM1011 1868h271l-228 -271h-223zM472 1616h262l233 -383h-230l-134 233l-135 -233h-229z" />
    <glyph glyph-name="uni1ED2" unicode="&#x1ed2;" horiz-adv-x="1563" 
d="M410.5 64.5q-156.5 83.5 -242 253.5t-85.5 422t85.5 422t242 253.5t371.5 83.5t371.5 -84t241.5 -254t85 -421t-85.5 -421t-242 -254t-370.5 -84q-215 0 -371.5 83.5zM1052 361q93 117 93 372q0 264 -93.5 383.5t-269.5 119.5q-177 0 -270.5 -117t-93.5 -372
q0 -265 93 -384t271 -119q177 0 270 117zM1241 1817h-175l-162 247h218zM646 1867h272l256 -272h-243l-149 168l-149 -168h-243z" />
    <glyph glyph-name="uni1ED3" unicode="&#x1ed3;" horiz-adv-x="1206" 
d="M317.5 42q-119.5 63 -184 189.5t-64.5 312.5q0 282 139 424.5t395 142.5q255 0 394.5 -143t139.5 -422q0 -187 -64.5 -314t-184 -190t-285.5 -63t-285.5 63zM720 252q46 30 70.5 100.5t24.5 190.5q0 122 -24.5 194t-71 102t-116.5 30t-116.5 -30t-71 -100.5t-24.5 -191.5
q0 -122 24.5 -193.5t70.5 -101.5t117 -30t117 30zM1086 1597h-224l-228 271h272zM472 1616h262l233 -383h-230l-134 233l-135 -233h-229z" />
    <glyph glyph-name="uni1ED4" unicode="&#x1ed4;" horiz-adv-x="1563" 
d="M410.5 64.5q-156.5 83.5 -242 253.5t-85.5 422t85.5 422t242 253.5t371.5 83.5t371.5 -84t241.5 -254t85 -421t-85.5 -421t-242 -254t-370.5 -84q-215 0 -371.5 83.5zM1052 361q93 117 93 372q0 264 -93.5 383.5t-269.5 119.5q-177 0 -270.5 -117t-93.5 -372
q0 -265 93 -384t271 -119q177 0 270 117zM1367 1985q0 -37 -25 -58.5t-74 -45.5q-38 -18 -55.5 -31t-20.5 -33h-161q3 40 30.5 61.5t77.5 42.5q32 14 45.5 23t13.5 22q0 34 -110 34q-95 0 -193 -23v104q43 11 103.5 18t113.5 7q255 0 255 -121zM646 1867h272l256 -272h-243
l-149 168l-149 -168h-243z" />
    <glyph glyph-name="uni1ED5" unicode="&#x1ed5;" horiz-adv-x="1206" 
d="M317.5 42q-119.5 63 -184 189.5t-64.5 312.5q0 282 139 424.5t395 142.5q255 0 394.5 -143t139.5 -422q0 -187 -64.5 -314t-184 -190t-285.5 -63t-285.5 63zM720 252q46 30 70.5 100.5t24.5 190.5q0 122 -24.5 194t-71 102t-116.5 30t-116.5 -30t-71 -100.5t-24.5 -191.5
q0 -122 24.5 -193.5t70.5 -101.5t117 -30t117 30zM1085 1856.5q58 -29.5 58 -90.5q0 -33 -21 -52.5t-64 -41.5q-37 -18 -56.5 -34t-23.5 -41h-151q3 44 30.5 67t73.5 43q26 11 38 19t12 20q0 18 -24 27t-78 9q-95 0 -182 -23v102q38 11 97 18t109 7q124 0 182 -29.5z
M472 1616h262l233 -383h-230l-134 233l-135 -233h-229z" />
    <glyph glyph-name="uni1ED6" unicode="&#x1ed6;" horiz-adv-x="1563" 
d="M410.5 64.5q-156.5 83.5 -242 253.5t-85.5 422t85.5 422t242 253.5t371.5 83.5t371.5 -84t241.5 -254t85 -421t-85.5 -421t-242 -254t-370.5 -84q-215 0 -371.5 83.5zM1052 361q93 117 93 372q0 264 -93.5 383.5t-269.5 119.5q-177 0 -270.5 -117t-93.5 -372
q0 -265 93 -384t271 -119q177 0 270 117zM1062.5 2059q49.5 15 111.5 52v-139q-52 -36 -103 -49t-119 -13q-48 0 -91.5 9t-99.5 25q-54 14 -86.5 21t-65.5 7q-58 0 -107.5 -15t-111.5 -52v139q53 35 104 49t118 14q47 0 88 -8.5t103 -25.5q50 -14 84 -21.5t68 -7.5
q58 0 107.5 15zM646 1867h272l256 -272h-243l-149 168l-149 -168h-243z" />
    <glyph glyph-name="uni1ED7" unicode="&#x1ed7;" horiz-adv-x="1206" 
d="M317.5 42q-119.5 63 -184 189.5t-64.5 312.5q0 282 139 424.5t395 142.5q255 0 394.5 -143t139.5 -422q0 -187 -64.5 -314t-184 -190t-285.5 -63t-285.5 63zM720 252q46 30 70.5 100.5t24.5 190.5q0 122 -24.5 194t-71 102t-116.5 30t-116.5 -30t-71 -100.5t-24.5 -191.5
q0 -122 24.5 -193.5t70.5 -101.5t117 -30t117 30zM683.5 1629q-41.5 9 -97.5 27q-53 16 -87 24t-71 8q-59 0 -104.5 -15t-92.5 -48v161q40 33 88.5 48.5t114.5 15.5q46 0 86.5 -9.5t99.5 -27.5q50 -16 85.5 -24.5t72.5 -8.5q58 0 104 15.5t93 48.5v-161q-39 -32 -88 -47.5
t-115 -15.5q-47 0 -88.5 9zM989 1235h-240l-146 205l-146 -205h-240l250 326h272z" />
    <glyph glyph-name="uni1ED8" unicode="&#x1ed8;" horiz-adv-x="1563" 
d="M410.5 64.5q-156.5 83.5 -242 253.5t-85.5 422t85.5 422t242 253.5t371.5 83.5t371.5 -84t241.5 -254t85 -421t-85.5 -421t-242 -254t-370.5 -84q-215 0 -371.5 83.5zM1052 361q93 117 93 372q0 264 -93.5 383.5t-269.5 119.5q-177 0 -270.5 -117t-93.5 -372
q0 -265 93 -384t271 -119q177 0 270 117zM636 -380q-50 38 -50 107t50 107t146 38t146 -38t50 -107t-50 -107t-146 -38t-146 38zM1174 1595h-243l-149 185l-149 -185h-243l256 303h272z" />
    <glyph glyph-name="uni1ED9" unicode="&#x1ed9;" horiz-adv-x="1206" 
d="M317.5 42q-119.5 63 -184 189.5t-64.5 312.5q0 282 139 424.5t395 142.5q255 0 394.5 -143t139.5 -422q0 -187 -64.5 -314t-184 -190t-285.5 -63t-285.5 63zM720 252q46 30 70.5 100.5t24.5 190.5q0 122 -24.5 194t-71 102t-116.5 30t-116.5 -30t-71 -100.5t-24.5 -191.5
q0 -122 24.5 -193.5t70.5 -101.5t117 -30t117 30zM475 -401.5q-45 41.5 -45 115.5t45 116t128 42t128 -42t45 -116t-45 -115.5t-128 -41.5t-128 41.5zM967 1233h-230l-134 233l-135 -233h-229l233 383h262z" />
    <glyph glyph-name="uni1EDA" unicode="&#x1eda;" horiz-adv-x="1563" 
d="M1425 1092.5q55 -149.5 55 -352.5q0 -252 -85 -422t-241.5 -253.5t-371.5 -83.5q-216 0 -372.5 83.5t-241.5 253.5t-85 422t85.5 422t242 253.5t371.5 83.5q51 0 102.5 -5t59.5 -6q98 -10 142 -10q94 0 141 36.5t47 120.5q0 65 -18 141h216q11 -38 15.5 -74t4.5 -80
q0 -123 -59 -194.5t-167 -92.5q104 -93 159 -242.5zM1052 361q93 117 93 372q0 264 -93.5 383.5t-269.5 119.5q-177 0 -270.5 -117t-93.5 -372q0 -265 93 -384t271 -119q177 0 270 117zM636 1595l180 303h337l-228 -303h-289z" />
    <glyph glyph-name="uni1EDB" unicode="&#x1edb;" horiz-adv-x="1206" 
d="M993 1616l-259 -383h-278l214 383h323zM1134 1064q-49 -69 -138 -96q141 -144 141 -422q0 -187 -64.5 -314t-184 -190t-285.5 -63t-285.5 63t-184 189.5t-64.5 312.5q0 282 140 424.5t401 142.5q52 0 120 -6q52 -4 67 -4q89 0 135 36.5t46 119.5q0 57 -18 139h203
q20 -67 20 -152q0 -111 -49 -180zM720 252q46 30 70.5 100.5t24.5 190.5q0 122 -24.5 194t-71 102t-116.5 30t-116.5 -30t-71 -100.5t-24.5 -191.5q0 -122 24.5 -193.5t70.5 -101.5t117 -30t117 30z" />
    <glyph glyph-name="uni1EDC" unicode="&#x1edc;" horiz-adv-x="1563" 
d="M1425 1092.5q55 -149.5 55 -352.5q0 -252 -85 -422t-241.5 -253.5t-371.5 -83.5q-216 0 -372.5 83.5t-241.5 253.5t-85 422t85.5 422t242 253.5t371.5 83.5q51 0 102.5 -5t59.5 -6q98 -10 142 -10q94 0 141 36.5t47 120.5q0 65 -18 141h216q11 -38 15.5 -74t4.5 -80
q0 -123 -59 -194.5t-167 -92.5q104 -93 159 -242.5zM1052 361q93 117 93 372q0 264 -93.5 383.5t-269.5 119.5q-177 0 -270.5 -117t-93.5 -372q0 -265 93 -384t271 -119q177 0 270 117zM638 1595l-228 303h336l180 -303h-288z" />
    <glyph glyph-name="uni1EDD" unicode="&#x1edd;" horiz-adv-x="1206" 
d="M1134 1064q-49 -69 -138 -96q141 -144 141 -422q0 -187 -64.5 -314t-184 -190t-285.5 -63t-285.5 63t-184 189.5t-64.5 312.5q0 282 140 424.5t401 142.5q52 0 120 -6q52 -4 67 -4q89 0 135 36.5t46 119.5q0 57 -18 139h203q20 -67 20 -152q0 -111 -49 -180zM720 252
q46 30 70.5 100.5t24.5 190.5q0 122 -24.5 194t-71 102t-116.5 30t-116.5 -30t-71 -100.5t-24.5 -191.5q0 -122 24.5 -193.5t70.5 -101.5t117 -30t117 30zM448 1233l-271 383h340l224 -383h-293z" />
    <glyph glyph-name="uni1EDE" unicode="&#x1ede;" horiz-adv-x="1563" 
d="M1425 1092.5q55 -149.5 55 -352.5q0 -252 -85 -422t-241.5 -253.5t-371.5 -83.5q-216 0 -372.5 83.5t-241.5 253.5t-85 422t85.5 422t242 253.5t371.5 83.5q51 0 102.5 -5t59.5 -6q98 -10 142 -10q94 0 141 36.5t47 120.5q0 65 -18 141h216q11 -38 15.5 -74t4.5 -80
q0 -123 -59 -194.5t-167 -92.5q104 -93 159 -242.5zM1052 361q93 117 93 372q0 264 -93.5 383.5t-269.5 119.5q-177 0 -270.5 -117t-93.5 -372q0 -265 93 -384t271 -119q177 0 270 117zM732 1663.5q28 24.5 78 47.5q31 14 44.5 24t13.5 24q0 19 -26.5 28.5t-83.5 9.5
q-93 0 -192 -25v119q41 12 100.5 19t115.5 7q131 0 193 -34t62 -100q0 -29 -14 -50.5t-33.5 -35t-51.5 -31.5q-36 -20 -54.5 -35t-21.5 -36h-161q3 44 31 68.5z" />
    <glyph glyph-name="uni1EDF" unicode="&#x1edf;" horiz-adv-x="1206" 
d="M1134 1064q-49 -69 -138 -96q141 -144 141 -422q0 -187 -64.5 -314t-184 -190t-285.5 -63t-285.5 63t-184 189.5t-64.5 312.5q0 282 140 424.5t401 142.5q52 0 120 -6q52 -4 67 -4q89 0 135 36.5t46 119.5q0 57 -18 139h203q20 -67 20 -152q0 -111 -49 -180zM720 252
q46 30 70.5 100.5t24.5 190.5q0 122 -24.5 194t-71 102t-116.5 30t-116.5 -30t-71 -100.5t-24.5 -191.5q0 -122 24.5 -193.5t70.5 -101.5t117 -30t117 30zM543.5 1324.5q25.5 33.5 69.5 64.5q27 20 39.5 34t12.5 32q0 26 -23 37.5t-75 11.5q-85 0 -165 -24v123
q37 12 89.5 18.5t98.5 6.5q125 0 184.5 -37.5t59.5 -115.5q0 -35 -11.5 -60t-28 -41t-44.5 -37q-35 -26 -53.5 -48t-21.5 -56h-160q3 58 28.5 91.5z" />
    <glyph glyph-name="uni1EE0" unicode="&#x1ee0;" horiz-adv-x="1563" 
d="M862.5 1629q-39.5 10 -97.5 30q-48 18 -83 27t-72 9q-58 0 -102 -17t-90 -53v183q38 37 85.5 55t112.5 18q46 0 86 -10.5t96 -30.5q50 -19 84 -28t71 -9q58 0 102 16.5t91 53.5v-183q-39 -37 -85.5 -54t-112.5 -17q-46 0 -85.5 10zM1425 1092.5q55 -149.5 55 -352.5
q0 -252 -85 -422t-241.5 -253.5t-371.5 -83.5q-216 0 -372.5 83.5t-241.5 253.5t-85 422t85.5 422t242 253.5t371.5 83.5q51 0 102.5 -5t59.5 -6q98 -10 142 -10q94 0 141 36.5t47 120.5q0 65 -18 141h216q11 -38 15.5 -74t4.5 -80q0 -123 -59 -194.5t-167 -92.5
q104 -93 159 -242.5zM1052 361q93 117 93 372q0 264 -93.5 383.5t-269.5 119.5q-177 0 -270.5 -117t-93.5 -372q0 -265 93 -384t271 -119q177 0 270 117z" />
    <glyph glyph-name="uni1EE1" unicode="&#x1ee1;" horiz-adv-x="1206" 
d="M652.5 1297q-35.5 12 -86.5 37q-44 22 -74 32.5t-63 10.5q-50 0 -93 -20t-88 -65v200q38 39 83.5 58t102.5 19q42 0 77.5 -12t86.5 -37q44 -22 74 -32.5t63 -10.5q50 0 93.5 20.5t87.5 64.5v-200q-38 -39 -83.5 -58t-102.5 -19q-42 0 -77.5 12zM1134 1064
q-49 -69 -138 -96q141 -144 141 -422q0 -187 -64.5 -314t-184 -190t-285.5 -63t-285.5 63t-184 189.5t-64.5 312.5q0 282 140 424.5t401 142.5q52 0 120 -6q52 -4 67 -4q89 0 135 36.5t46 119.5q0 57 -18 139h203q20 -67 20 -152q0 -111 -49 -180zM720 252q46 30 70.5 100.5
t24.5 190.5q0 122 -24.5 194t-71 102t-116.5 30t-116.5 -30t-71 -100.5t-24.5 -191.5q0 -122 24.5 -193.5t70.5 -101.5t117 -30t117 30z" />
    <glyph glyph-name="uni1EE2" unicode="&#x1ee2;" horiz-adv-x="1563" 
d="M1425 1092.5q55 -149.5 55 -352.5q0 -252 -85 -422t-241.5 -253.5t-371.5 -83.5q-216 0 -372.5 83.5t-241.5 253.5t-85 422t85.5 422t242 253.5t371.5 83.5q51 0 102.5 -5t59.5 -6q98 -10 142 -10q94 0 141 36.5t47 120.5q0 65 -18 141h216q11 -38 15.5 -74t4.5 -80
q0 -123 -59 -194.5t-167 -92.5q104 -93 159 -242.5zM1052 361q93 117 93 372q0 264 -93.5 383.5t-269.5 119.5q-177 0 -270.5 -117t-93.5 -372q0 -265 93 -384t271 -119q177 0 270 117zM636 -380q-50 38 -50 107t50 107t146 38t146 -38t50 -107t-50 -107t-146 -38t-146 38z
" />
    <glyph glyph-name="uni1EE3" unicode="&#x1ee3;" horiz-adv-x="1206" 
d="M1134 1064q-49 -69 -138 -96q141 -144 141 -422q0 -187 -64.5 -314t-184 -190t-285.5 -63t-285.5 63t-184 189.5t-64.5 312.5q0 282 140 424.5t401 142.5q52 0 120 -6q52 -4 67 -4q89 0 135 36.5t46 119.5q0 57 -18 139h203q20 -67 20 -152q0 -111 -49 -180zM720 252
q46 30 70.5 100.5t24.5 190.5q0 122 -24.5 194t-71 102t-116.5 30t-116.5 -30t-71 -100.5t-24.5 -191.5q0 -122 24.5 -193.5t70.5 -101.5t117 -30t117 30zM474 -401.5q-45 41.5 -45 115.5t45 116t128 42t128 -42t45 -116t-45 -115.5t-128 -41.5t-128 41.5z" />
    <glyph glyph-name="uni1EE4" unicode="&#x1ee4;" horiz-adv-x="1496" 
d="M277.5 136.5q-151.5 155.5 -151.5 477.5v866h327v-898q0 -174 73 -254t225 -80t225 80t73 254v898h321v-866q0 -322 -150 -477.5t-469 -155.5q-322 0 -473.5 155.5zM605 -380q-50 38 -50 107t50 107t146 38t146 -38t50 -107t-50 -107t-146 -38t-146 38z" />
    <glyph glyph-name="uni1EE5" unicode="&#x1ee5;" horiz-adv-x="1214" 
d="M211.5 84.5q-101.5 103.5 -101.5 325.5v684h320v-663q0 -94 38.5 -134t110.5 -40q53 0 107 23t90 66v748h320v-1094h-264l-22 110h-13q-63 -64 -141.5 -96.5t-167.5 -32.5q-175 0 -276.5 103.5zM475 -401.5q-45 41.5 -45 115.5t45 116t128 42t128 -42t45 -116t-45 -115.5
t-128 -41.5t-128 41.5z" />
    <glyph glyph-name="uni1EE6" unicode="&#x1ee6;" horiz-adv-x="1496" 
d="M277.5 136.5q-151.5 155.5 -151.5 477.5v866h327v-898q0 -174 73 -254t225 -80t225 80t73 254v898h321v-866q0 -322 -150 -477.5t-469 -155.5q-322 0 -473.5 155.5zM701 1663.5q28 24.5 78 47.5q31 14 44.5 24t13.5 24q0 19 -26.5 28.5t-83.5 9.5q-93 0 -192 -25v119
q41 12 100.5 19t115.5 7q131 0 193 -34t62 -100q0 -29 -14 -50.5t-33.5 -35t-51.5 -31.5q-36 -20 -54.5 -35t-21.5 -36h-161q3 44 31 68.5z" />
    <glyph glyph-name="uni1EE7" unicode="&#x1ee7;" horiz-adv-x="1214" 
d="M211.5 84.5q-101.5 103.5 -101.5 325.5v684h320v-663q0 -94 38.5 -134t110.5 -40q53 0 107 23t90 66v748h320v-1094h-264l-22 110h-13q-63 -64 -141.5 -96.5t-167.5 -32.5q-175 0 -276.5 103.5zM551.5 1324.5q25.5 33.5 69.5 64.5q27 20 39.5 34t12.5 32q0 26 -23 37.5
t-75 11.5q-85 0 -165 -24v123q37 12 89.5 18.5t98.5 6.5q125 0 184.5 -37.5t59.5 -115.5q0 -35 -11.5 -60t-28 -41t-44.5 -37q-35 -26 -53.5 -48t-21.5 -56h-160q3 58 28.5 91.5z" />
    <glyph glyph-name="uni1EE8" unicode="&#x1ee8;" horiz-adv-x="1499" 
d="M277.5 136.5q-151.5 155.5 -151.5 477.5v866h327v-898q0 -174 73 -254t225 -80t225 80t73 254v898h105q94 0 141 36t47 119q0 65 -18 141h216q21 -71 21 -154q0 -110 -50.5 -178.5t-140.5 -93.5v-736q0 -322 -150 -477.5t-469 -155.5q-322 0 -473.5 155.5zM603 1595
l180 303h337l-228 -303h-289z" />
    <glyph glyph-name="uni1EE9" unicode="&#x1ee9;" horiz-adv-x="1248" 
d="M1236.5 1056.5q-49.5 -69.5 -140.5 -97.5v-959h-264l-22 110h-13q-63 -64 -141.5 -96.5t-167.5 -32.5q-175 0 -276.5 103.5t-101.5 325.5v684h320v-663q0 -94 38.5 -134t110.5 -40q53 0 107 23t90 66v748h124q89 0 134.5 36.5t45.5 119.5q0 61 -17 139h202
q21 -71 21 -152q0 -111 -49.5 -180.5zM456 1233l225 383h340l-272 -383h-293z" />
    </font>
</defs>
</svg>
